<svg viewBox="0 0 330 200" xmlns="http://www.w3.org/2000/svg"><g><g><g><g><g><line x1="41.171875" y1="177" x2="36.171875" y2="177" style="visibility: inherit;" fill="rgb(0, 0, 0)" stroke="rgb(204, 204, 204)" stroke-width="1px"></line><line x1="41.171875" y1="157.33333333333331" x2="36.171875" y2="157.33333333333331" style="visibility: inherit;" fill="rgb(0, 0, 0)" stroke="rgb(204, 204, 204)" stroke-width="1px"></line><line x1="41.171875" y1="137.66666666666666" x2="36.171875" y2="137.66666666666666" style="visibility: inherit;" fill="rgb(0, 0, 0)" stroke="rgb(204, 204, 204)" stroke-width="1px"></line><line x1="41.171875" y1="118.00000000000001" x2="36.171875" y2="118.00000000000001" style="visibility: inherit;" fill="rgb(0, 0, 0)" stroke="rgb(204, 204, 204)" stroke-width="1px"></line><line x1="41.171875" y1="98.33333333333334" x2="36.171875" y2="98.33333333333334" style="visibility: inherit;" fill="rgb(0, 0, 0)" stroke="rgb(204, 204, 204)" stroke-width="1px"></line><line x1="41.171875" y1="78.66666666666666" x2="36.171875" y2="78.66666666666666" style="visibility: inherit;" fill="rgb(0, 0, 0)" stroke="rgb(204, 204, 204)" stroke-width="1px"></line><line x1="41.171875" y1="59.00000000000001" x2="36.171875" y2="59.00000000000001" style="visibility: inherit;" fill="rgb(0, 0, 0)" stroke="rgb(204, 204, 204)" stroke-width="1px"></line><line x1="41.171875" y1="39.33333333333335" x2="36.171875" y2="39.33333333333335" style="visibility: inherit;" fill="rgb(0, 0, 0)" stroke="rgb(204, 204, 204)" stroke-width="1px"></line><line x1="41.171875" y1="19.666666666666657" x2="36.171875" y2="19.666666666666657" style="visibility: inherit;" fill="rgb(0, 0, 0)" stroke="rgb(204, 204, 204)" stroke-width="1px"></line><line x1="41.171875" y1="0" x2="36.171875" y2="0" style="visibility: inherit;" fill="rgb(0, 0, 0)" stroke="rgb(204, 204, 204)" stroke-width="1px"></line></g><g transform="translate(31.171875, 0)"><text x="0" y="177" dx="0em" dy="0.3em" style="text-anchor: end; visibility: hidden; font-family: Roboto, sans-serif; font-size: 12px; font-weight: 200;" fill="rgb(33, 33, 33)" stroke="none" stroke-width="1px">0</text><text x="0" y="157.33333333333331" dx="0em" dy="0.3em" style="text-anchor: end; visibility: inherit; font-family: Roboto, sans-serif; font-size: 12px; font-weight: 200;" fill="rgb(33, 33, 33)" stroke="none" stroke-width="1px">0.1</text><text x="0" y="137.66666666666666" dx="0em" dy="0.3em" style="text-anchor: end; visibility: hidden; font-family: Roboto, sans-serif; font-size: 12px; font-weight: 200;" fill="rgb(33, 33, 33)" stroke="none" stroke-width="1px">0.2</text><text x="0" y="118.00000000000001" dx="0em" dy="0.3em" style="text-anchor: end; visibility: inherit; font-family: Roboto, sans-serif; font-size: 12px; font-weight: 200;" fill="rgb(33, 33, 33)" stroke="none" stroke-width="1px">0.3</text><text x="0" y="98.33333333333334" dx="0em" dy="0.3em" style="text-anchor: end; visibility: hidden; font-family: Roboto, sans-serif; font-size: 12px; font-weight: 200;" fill="rgb(33, 33, 33)" stroke="none" stroke-width="1px">0.4</text><text x="0" y="78.66666666666666" dx="0em" dy="0.3em" style="text-anchor: end; visibility: inherit; font-family: Roboto, sans-serif; font-size: 12px; font-weight: 200;" fill="rgb(33, 33, 33)" stroke="none" stroke-width="1px">0.5</text><text x="0" y="59.00000000000001" dx="0em" dy="0.3em" style="text-anchor: end; visibility: hidden; font-family: Roboto, sans-serif; font-size: 12px; font-weight: 200;" fill="rgb(33, 33, 33)" stroke="none" stroke-width="1px">0.6</text><text x="0" y="39.33333333333335" dx="0em" dy="0.3em" style="text-anchor: end; visibility: inherit; font-family: Roboto, sans-serif; font-size: 12px; font-weight: 200;" fill="rgb(33, 33, 33)" stroke="none" stroke-width="1px">0.7</text><text x="0" y="19.666666666666657" dx="0em" dy="0.3em" style="text-anchor: end; visibility: hidden; font-family: Roboto, sans-serif; font-size: 12px; font-weight: 200;" fill="rgb(33, 33, 33)" stroke="none" stroke-width="1px">0.8</text><text x="0" y="0" dx="0em" dy="0.3em" style="text-anchor: end; visibility: hidden; font-family: Roboto, sans-serif; font-size: 12px; font-weight: 200;" fill="rgb(33, 33, 33)" stroke="none" stroke-width="1px">0.9</text></g><line x1="41.171875" y1="0" x2="41.171875" y2="177" fill="rgb(0, 0, 0)" stroke="rgb(204, 204, 204)" stroke-width="1px"></line></g></g><g transform="translate(41, 0)" clip-path="url(#clip_0)"><clipPath id="clip_0"><rect width="288" height="177"></rect></clipPath><g><g><g><line x1="0" y1="0" x2="0" y2="177" fill="rgb(0, 0, 0)" stroke="rgb(66, 66, 66)" stroke-width="1px" opacity="0.25"></line><line x1="24.069010416666664" y1="0" x2="24.069010416666664" y2="177" fill="rgb(0, 0, 0)" stroke="rgb(66, 66, 66)" stroke-width="1px" opacity="0.25"></line><line x1="48.13802083333333" y1="0" x2="48.13802083333333" y2="177" fill="rgb(0, 0, 0)" stroke="rgb(66, 66, 66)" stroke-width="1px" opacity="0.25"></line><line x1="72.20703125" y1="0" x2="72.20703125" y2="177" fill="rgb(0, 0, 0)" stroke="rgb(66, 66, 66)" stroke-width="1px" opacity="0.25"></line><line x1="96.27604166666666" y1="0" x2="96.27604166666666" y2="177" fill="rgb(0, 0, 0)" stroke="rgb(66, 66, 66)" stroke-width="1px" opacity="0.25"></line><line x1="120.34505208333334" y1="0" x2="120.34505208333334" y2="177" fill="rgb(0, 0, 0)" stroke="rgb(66, 66, 66)" stroke-width="1px" opacity="0.25"></line><line x1="144.4140625" y1="0" x2="144.4140625" y2="177" fill="rgb(0, 0, 0)" stroke="rgb(66, 66, 66)" stroke-width="1px" opacity="0.25"></line><line x1="168.48307291666669" y1="0" x2="168.48307291666669" y2="177" fill="rgb(0, 0, 0)" stroke="rgb(66, 66, 66)" stroke-width="1px" opacity="0.25"></line><line x1="192.55208333333331" y1="0" x2="192.55208333333331" y2="177" fill="rgb(0, 0, 0)" stroke="rgb(66, 66, 66)" stroke-width="1px" opacity="0.25"></line><line x1="216.62109375" y1="0" x2="216.62109375" y2="177" fill="rgb(0, 0, 0)" stroke="rgb(66, 66, 66)" stroke-width="1px" opacity="0.25"></line><line x1="240.69010416666669" y1="0" x2="240.69010416666669" y2="177" fill="rgb(0, 0, 0)" stroke="rgb(66, 66, 66)" stroke-width="1px" opacity="0.25"></line><line x1="264.7591145833333" y1="0" x2="264.7591145833333" y2="177" fill="rgb(0, 0, 0)" stroke="rgb(66, 66, 66)" stroke-width="1px" opacity="0.25"></line><line x1="288.828125" y1="0" x2="288.828125" y2="177" fill="rgb(0, 0, 0)" stroke="rgb(66, 66, 66)" stroke-width="1px" opacity="0.25"></line></g><g><line x1="0" y1="177" x2="288.828125" y2="177" fill="rgb(0, 0, 0)" stroke="rgb(66, 66, 66)" stroke-width="1px" opacity="0.25"></line><line x1="0" y1="157.33333333333331" x2="288.828125" y2="157.33333333333331" fill="rgb(0, 0, 0)" stroke="rgb(66, 66, 66)" stroke-width="1px" opacity="0.25"></line><line x1="0" y1="137.66666666666666" x2="288.828125" y2="137.66666666666666" fill="rgb(0, 0, 0)" stroke="rgb(66, 66, 66)" stroke-width="1px" opacity="0.25"></line><line x1="0" y1="118.00000000000001" x2="288.828125" y2="118.00000000000001" fill="rgb(0, 0, 0)" stroke="rgb(66, 66, 66)" stroke-width="1px" opacity="0.25"></line><line x1="0" y1="98.33333333333334" x2="288.828125" y2="98.33333333333334" fill="rgb(0, 0, 0)" stroke="rgb(66, 66, 66)" stroke-width="1px" opacity="0.25"></line><line x1="0" y1="78.66666666666666" x2="288.828125" y2="78.66666666666666" fill="rgb(0, 0, 0)" stroke="rgb(66, 66, 66)" stroke-width="1px" opacity="0.25"></line><line x1="0" y1="59.00000000000001" x2="288.828125" y2="59.00000000000001" fill="rgb(0, 0, 0)" stroke="rgb(66, 66, 66)" stroke-width="1px" opacity="0.25"></line><line x1="0" y1="39.33333333333335" x2="288.828125" y2="39.33333333333335" fill="rgb(0, 0, 0)" stroke="rgb(66, 66, 66)" stroke-width="1px" opacity="0.25"></line><line x1="0" y1="19.666666666666657" x2="288.828125" y2="19.666666666666657" fill="rgb(0, 0, 0)" stroke="rgb(66, 66, 66)" stroke-width="1px" opacity="0.25"></line><line x1="0" y1="0" x2="288.828125" y2="0" fill="rgb(0, 0, 0)" stroke="rgb(66, 66, 66)" stroke-width="1px" opacity="0.25"></line></g></g></g><g><g><line x1="0" y1="177" x2="288.828125" y2="177" fill="rgb(0, 0, 0)" stroke="rgb(153, 153, 153)" stroke-width="1.5px"></line></g></g><g><g><line x1="24.069010416666664" y1="0" x2="24.069010416666664" y2="177" fill="rgb(0, 0, 0)" stroke="rgb(153, 153, 153)" stroke-width="1.5px"></line></g></g><g><g><g><g><g><path stroke="rgb(255, 112, 67)" stroke-width="2px" d="M24.27600390625,13.137794852256775L24.290445312499997,14.66281227270763L24.415604166666668,28.196884711583465L24.526321614583335,37.736038883527115L24.87772916666667,45.69741380214692L25.176184895833334,51.42087113857269L25.200253906249998,52.115132927894585L25.30134375,53.20407104492188L25.3879921875,55.203323682149254L25.556475260416665,59.15236107508343L25.566102864583332,59.53782371679942L25.604613281250003,59.924271027247116L26.35556640625,67.48195521036783L26.654022135416664,70.69508167107901L26.861015625,72.10600646336873L26.894712239583335,72.69046596686046L27.12577473958333,74.01239546140035L27.188354166666667,74.35305567582448L27.303885416666667,75.15008640289307L27.51087890625,76.57770367463431L27.549389322916667,76.82002596060435L27.852658854166666,77.87581356366475L27.934493489583335,78.62111401557922L27.963376302083333,78.8270387252172L28.098162760416667,79.55660792191824L28.748026041666666,82.87330043315887L28.955019531250002,83.90883199373881L29.205337239583333,85.08864682912827L29.388261718749998,86.09169604380925L29.754110677083336,87.05751540263495L30.144028645833334,87.32287776470184L30.40878776041667,87.67048341035843L30.423229166666665,87.69368173678717L30.490622395833334,87.84670980771384L30.509877604166665,87.93529482682547L30.74094010416667,88.8495480219523L30.774636718750003,89.01520095268886L30.986444010416665,89.4983099102974L31.130858072916666,89.88119365771612L31.405244791666668,90.79909833272299L31.544845052083335,91.19850458701451L31.621865885416668,91.25811221202214L31.69888671875,91.30816620588303L32.213963541666665,92.33288985490799L32.42095703125,92.42025576035181L32.4353984375,92.44980754454932L32.95047526041667,92.68425248066585L33.056378906249996,93.01907501618066L33.109330729166665,93.01628512144089L33.3018828125,93.42549117406209L33.383717447916666,93.50868982076645L33.446296875,93.69999688863756L33.87472526041667,94.54392832517624L34.16355338541667,95.07572563489278L34.601609375,95.57261995474498L34.659375,95.65424195925395L34.81341666666667,95.92643839120865L34.84229947916666,95.94301950931549L34.96264453125,96.13323640823364L35.179265625,96.51666524012883L35.57399739583333,96.97287750244142L35.800246093750005,97.20719349384309L35.88208072916667,97.26225288709006L35.891708333333334,97.28445482254028L35.91577734375,97.23557891448338L36.03612239583333,97.3498884042104L36.040936197916665,97.35933653513591L36.09870182291667,97.38149744272232L36.122770833333334,97.3530944387118L36.26237109375,97.52582174539566L36.334578125,97.53848177194595L36.9988828125,98.50751302639642L37.263641927083334,98.70042018095651L38.356375,99.78663287560146L38.69815494791667,99.99368878205617L38.71259635416667,100.02216211954753L38.991796875000006,100.262104789416L39.29025260416667,100.73049646615982L39.622404947916664,100.79349182049432L39.68979817708333,100.79751841227214L39.69942578125,100.77188771963121L39.70423958333333,100.78911356131235L39.98344010416666,100.84881496429443L40.82585546875,101.51868861913681L41.49016015625,101.92359260718028L41.499787760416666,101.91927295923233L41.74047786458333,102.2141226331393L42.082257812499996,102.38750052452087L42.33257552083334,102.47277400890987L42.433665364583334,102.50554354985555L42.46736197916666,102.44323394695918L42.98243880208334,102.93345244725545L43.11722526041667,102.98580400149028L43.25201171875,102.98019490639368L43.50232942708334,102.82220832506815L43.80078515625,103.01916551589966L44.27253776041667,103.3550313313802L44.421765625,103.41711235046387L44.44583463541667,103.46813342968622L44.8550078125,103.80326660474142L44.864635416666665,103.81170662244162L45.25455338541667,104.12193002303442L45.69742317708334,104.31936196486154L45.7792578125,104.27501084407172L45.880347656249995,104.26137787103653L46.52539713541667,104.47754782438278L46.544652343749995,104.50020692745845L46.58316276041667,104.52518703540166L47.12230859375,104.76842951774597L47.18970182291667,104.78957058986028L47.37262630208333,104.93931643168132L47.430391927083335,104.98067251841228L47.63257161458333,105.09848109881082L48.003234375,105.34250311056772L48.383524739583336,128.91869616508484L48.39315234375,128.83743755022684L48.65309765625,126.77165530125299L48.78788411458333,128.85762618978816L49.29333333333333,127.27492066224416L49.803596354166665,125.81663213173549L49.87098958333333,125.5746322075526L50.16463151041666,125.51478427648544L50.78561197916667,125.93592357635497L51.41140625,125.78807087739308L51.623213541666665,125.90953679879506L52.032386718750004,126.3065517147382L52.12866276041667,126.54052189985912L52.30195963541667,126.77422247330348L52.33565625,126.6970197558403L52.508953125,126.71917480230331L52.61004296875,126.81538514296213L52.90849869791667,126.74916617075603L53.00477473958333,126.67278987169264L53.539106770833335,126.61693336566289L53.58724479166666,126.70353732506435L53.919397135416666,126.4117471575737L53.9819765625,126.41349963347118L54.010859375,126.4133765498797L54.34782552083334,126.66733902692796L54.458542968749995,126.55424865086873L54.76662630208333,126.48590209086736L55.45981380208333,126.12510305643082L55.71975911458333,126.1733459631602L55.859359375,125.86185655991237L56.1193046875,125.77818902333577L56.307042968750004,125.77535810073216L56.321484375000004,125.78675212462743L56.379250000000006,125.81579985221227L56.52847786458334,125.77858171860376L57.067623697916666,125.54047358036041L57.606769531249995,125.34352225065233L57.731928385416666,125.2091325521469L58.28070182291667,125.17231883605321L58.31921223958333,125.12534779310228L58.516578125,125.10452322165172L58.95944791666667,124.93753981590271L59.26753125,125.21560909350713L59.49859375,125.12153806289038L59.60931119791667,125.0868167678515L59.93664973958333,125.13476075728734L59.984787760416665,125.12082300583522L59.999229166666666,125.10336271921794L60.07143619791666,125.12245239814122L60.230291666666666,125.12429865201314L61.10640364583333,125.18746984004974L61.42892838541667,125.30797453721364L61.56371484375,125.26005399227142L61.61185286458333,125.25691243012746L61.7803359375,125.28477034966151L62.54091666666667,125.25650801261266L62.901951822916665,125.35968136787413L63.45072526041667,125.31101646025976L63.64809114583333,125.36043159166971L64.19205078125,125.4778709212939L64.33165104166667,125.49514951308568L64.35572005208333,125.50899934768678L64.39904427083333,125.46504092216492L64.83228645833334,125.44988991816838L64.84672786458333,125.45828890800476L64.98151432291667,125.41924796501795L65.02965234375,125.44960858424504L65.4773359375,125.34597806135812L65.64100520833334,125.37339053551356L65.92983333333333,125.4122908115387L66.81075911458333,125.19855908552806L66.93591796875,125.21950674057008L66.950359375,125.23734800020854L67.05144921875,125.25949132442476L67.08514583333334,125.2690508166949L67.36434635416666,125.26256841421126L67.39322916666667,125.27652961015703L67.66280208333333,125.42402478059132L68.64963151041667,125.41993371645609L68.91920442708333,125.42801620562872L69.07324609375,125.55966289838155L69.492046875,125.56427560249965L69.65090234375,125.52372248967488L70.03119270833334,125.54510972897211L70.06488932291667,125.57248703638712L70.12746874999999,125.55616966883342L70.416296875,125.51868778467178L70.56071093749999,125.52024684349696L70.67142838541666,125.5516741871834L70.75807682291666,125.58723362286885L71.456078125,125.6235198378563L71.76416145833333,125.59619528055192L72.49104557291666,132.96376220385233L72.61620442708333,130.9342280725638L73.54045442708333,136.28315083185834L73.57415104166667,136.3329879641533L74.11811067708334,135.62709184487662L74.13255208333332,135.63019237915674L74.23364192708334,135.8926593462626L74.51765625,134.4906024336815L74.72464973958333,134.00528969367346L75.13382291666666,133.90154194831848L75.28305078125,133.86119690537453L75.36007161458333,133.49344071745872L75.44190625,133.50932436188063L75.63445833333334,133.22851500908533L75.85589322916667,133.50535931189853L75.86070703125,133.53171971440315L75.96661067708334,133.57128815849623L76.13509375,133.61038185159367L76.26025260416667,133.63234934210777L76.30357682291667,133.53408467769623L76.55389453125001,133.91422541936237L76.5683359375,133.8858868877093L76.73200520833333,134.07124491532645L76.75126041666667,134.05368792017302L76.86197786458334,134.3612269262473L76.89086067708332,134.3900841673215L76.90048828124999,134.4515761435032L77.12192317708333,134.0946747561296L77.51665494791666,134.3733272155126L77.6081171875,134.29979942242306L77.65144140624999,134.32796798149747L77.97877994791668,134.06006482243538L77.98840755208334,134.08110332489014L78.27723567708334,133.7947434882323L79.04263020833334,133.28723467389744L79.29776171875001,133.66446829835573L79.39403776041667,133.85672486821812L79.54326562499999,133.80870761473975L79.58658984375,133.74521992603937L79.66842447916666,133.75401454170546L79.75025911458333,133.639022231102L80.14499088541668,133.63062324126562L80.25570833333333,133.68909380833307L80.3231015625,133.590166836977L80.67932291666666,133.63287977377576L81.22809635416667,133.6114808122317L81.69022135416667,133.596036752065L81.71429036458333,133.64419467250508L81.88758723958333,133.5424133340518L82.03681510416668,133.6910895208518L82.50375390625,133.80167133609453L82.62891276041667,133.78848380843797L82.64816796875,133.7727994422118L82.72518880208332,133.72167579332987L82.92736848958334,133.82030384739238L83.23545182291667,133.79511566956836L83.24989322916667,133.80585910876593L83.3269140625,133.7671786248684L83.78903906250001,134.03249409794807L84.04417057291666,133.96551904082298L85.06951041666666,133.65967389941216L85.204296875,133.6364140311877L85.71455989583333,133.44499267141023L86.06115364583333,133.36832038561502L86.35960937499999,133.34729946653047L86.7350859375,133.3598012427489L86.81692057291666,133.3825629154841L86.94689322916666,133.41946454842886L87.04798307291667,133.42665907740593L87.10574869791667,133.44416625301045L87.17795572916667,133.4235995709896L87.45234244791668,133.4885290960471L87.80375,133.46691620349884L88.33326822916668,133.48068691293398L88.58839973958334,133.53191899259883L88.60765494791667,133.53331980109215L89.07940755208334,133.4539191623529L89.28158723958333,133.39254733920097L89.52709114583334,133.46512563029924L89.63780859375001,133.46771624684334L89.92182291666667,133.39373714725178L89.93626432291667,133.41398732860884L90.38876171875,133.30603422721228L90.55243098958333,133.3401195903619L90.7209140625,133.33515228827795L90.90865234374999,133.31461784243584L91.35152213541667,133.26380190253258L91.45742578125,133.24517232179642L91.85215755208334,133.22453237573305L92.53090364583333,133.1373335123062L92.84861458333333,133.1417205631733L92.88231119791666,133.15832805633545L92.92563541666667,133.17544546723366L93.00747005208333,133.16878723104793L93.09411848958332,133.14106997847557L93.3781328125,133.17160936196643L93.61882291666666,133.24909048279127L93.84507161458333,133.26720428466797L94.14834114583334,133.2421303987503L94.50937630208333,133.28406673669815L94.53825911458333,133.29944632450741L94.68267317708333,133.24505216876665L94.72599739583333,133.25748361150426L94.77413541666667,133.23383104801178L95.21700520833333,133.21385340889296L95.26032942708333,133.20221321781477L95.27958463541665,133.19936471184096L95.36141927083334,133.21078804135323L95.66950260416667,133.2043085694313L95.76096484375,133.2002643942833L96.410828125,133.25888735055923L96.71409765624999,138.5630487104257L96.93553255208333,138.9716833035151L97.14733984374999,138.23484045267105L97.56132682291667,138.34282579024634L97.84052734375,137.75639694929123L98.55778385416667,139.36135716239613L98.56741145833334,139.39202842116356L98.721453125,140.03338478008905L98.87068098958333,139.76760334769884L99.1546953125,140.25142736236253L99.84306901041667,139.70990644892055L99.95860026041667,139.66337499022484L100.00192447916666,139.4712004760901L100.26668359375,139.16854085524878L100.99356770833334,139.19341253240904L101.0609609375,139.1014016866684L101.55196875,138.79266994198164L101.65305859374999,138.90837144851685L102.29329427083334,138.82593181729317L102.63988802083334,138.9016252954801L102.74579166666668,138.8050720791022L102.82762630208333,138.84702013929683L103.04906119791667,138.92366605003673L103.21273046875,139.01341743270558L103.52562760416666,139.01334416866302L103.91073177083334,138.75446420907974L104.27658072916667,138.70978486537933L104.44987760416666,138.63500572244325L104.98420963541666,138.5826102097829L104.9890234375,138.59879277149835L105.15269270833333,138.5898399055004L105.2200859375,138.6793304681778L105.422265625,138.61963492631912L106.22617057291667,138.45010486245155L106.37539843750001,138.4783408244451L106.53906770833333,138.53603186209995L107.05895833333332,138.50639802217484L107.21781380208333,138.55005459984145L107.30446223958333,138.54079109430313L107.31408984375,138.53643627961478L107.42962109375,138.48877655466399L107.43443489583333,138.4767934878667L107.44887630208333,138.47118439277014L107.54033854166667,138.55206789573032L107.70882161458333,138.51312366127968L107.85804947916667,138.6012485822042L108.04578776041666,138.61581933498383L108.09392578125001,138.52374108632404L108.52235416666666,138.6191572447618L108.58974739583333,138.6113297144572L108.72934765625,138.71541740496954L108.76785807291667,138.7461003859838L108.90745833333334,138.78452298045158L109.38402473958332,138.62678842743236L110.49601302083333,138.01260716716448L110.63079947916667,137.95521797736487L110.67412369791666,137.96102928121883L110.80891015625,137.9435924390952L110.97739322916667,138.0506370663643L111.03515885416667,138.07700039943057L111.3432421875,138.1103882888953L111.99310546875,138.30341852704683L112.25305078125,138.34095902244252L112.89328645833332,138.3281055788199L112.89810026041667,138.31575619180998L113.57203255208333,138.2253219882647L114.15450260416667,138.2342982987563L114.18819921875,138.24866098165512L114.78992447916667,138.20391130447388L115.33388411458333,138.2074133257071L115.42534635416666,138.1846194167932L115.5601328125,138.25130727887154L115.66603645833334,138.23308211565018L115.76712630208333,138.23704716563225L116.09446484374999,138.19264329473177L116.34959635416666,138.243204275767L116.62879687499999,138.24128475785255L116.84060416666668,138.21762047211328L117.8707578125,138.18108222881952L117.95740624999999,138.15693440039954L118.06330989583333,138.13597209254903L118.09219270833333,138.15855793158212L118.61689713541666,138.08120868603388L118.68429036458333,138.07225582003593L118.7372421875,138.0844323039055L119.00200130208333,138.11610874533653L119.054953125,138.1124338209629L119.0838359375,138.129935135444L119.36785026041667,138.14114453395206L119.49782291666666,138.13126561045647L119.60854036458333,138.11052602529526L119.94550651041666,138.14534988999367L120.05141015625,138.16147384047508L120.210265625,138.10522463917732L120.32579687500001,138.1096292734146L120.51834895833333,138.15917334953943L120.60499739583332,142.68714906771976L120.63388020833334,141.7573551038901L120.64832161458334,143.46075874567032L121.01417057291667,139.96556279063225L121.018984375,140.1678711871306L121.24523307291668,143.11562356352806L121.3944609375,142.61262781421343L121.52443359375,142.56512340903282L121.538875,142.54018139839172L121.56294401041667,142.55536170800528L121.90472395833332,143.02461203932762L121.95767578125,142.66623364885646L122.19355208333333,142.4353259007136L122.46793880208332,141.95069598158202L122.68455989583333,142.0911050538222L122.88192578125,141.76412470142049L122.94450520833334,141.6887330710888L122.94931901041667,141.61382791399956L123.05522265625,141.78384152054787L123.13224348958333,141.55464228987694L123.66657552083332,141.84737902879715L123.76766536458334,142.0365731616815L124.09981770833332,142.15582650899887L124.11425911458333,142.13302966952324L124.11907291666667,142.14673883716264L124.35013541666666,141.99950741728148L124.46566666666666,141.87711250782013L125.10108854166666,141.52825844287872L125.48619270833333,141.6320091187954L125.54877213541666,141.43337564667067L125.85685546875001,141.6090891957283L126.16975260416667,141.8722389837106L126.28047005208333,141.80471591154736L126.68482942708333,141.93616039554277L126.69927083333333,141.928962936004L126.72333984375,141.9470210572084L127.04586458333334,141.64519371589026L127.13251302083333,141.5696203907331L127.49354817708334,141.4738730788231L127.68128645833333,141.41718136270842L128.4418671875,141.45249756177267L128.64404687500002,141.47714358568192L128.64886067708335,141.48621660470963L128.9617578125,141.47966386874518L128.990640625,141.47757437825203L129.11579947916667,141.52247937520343L129.21688932291667,141.53075528144836L129.24577213541667,141.5321941872438L130.00635286458333,141.72387929757434L131.1568515625,141.69875852266946L131.21943098958332,141.7294327119986L131.38310026041665,141.72127402822176L131.49863151041666,141.74371040860814L131.56602473958333,141.7631429632505L131.70081119791666,141.78224143385887L132.24958463541665,141.85335151354474L132.41806770833335,141.86825341979664L132.59617838541666,141.83874852458635L133.034234375,141.80710431933403L133.66002864583334,141.74003548423448L134.02106380208335,141.56649348139763L134.45430598958333,141.65667858719826L134.46874739583333,141.64700480302176L135.17637630208333,141.7456563015779L135.19563151041666,141.73995928963026L135.402625,141.74291622638702L135.45557682291667,141.73951677481335L135.50371484375,141.7151022652785L135.66738411458334,141.70266789197922L135.71552213541665,141.67654779553413L135.84068098958332,141.58551868796349L136.05730208333333,141.63190361857414L136.16801953125,141.57740982373556L136.4135234375,141.6183409790198L136.5290546875,141.67533747355142L136.62051692708332,141.66267744700113L136.846765625,141.68897630771002L137.39072526041667,141.62249065438908L137.62660156249999,141.55921689669293L138.01651953125,141.50101594130197L138.06947135416667,141.44847683111826L138.16574739583334,141.4964471956094L138.51715494791665,141.42228640119234L138.79154166666666,141.40186624725658L139.30661848958334,141.4177264471849L139.98536458333334,141.32134906450906L140.17310286458334,141.3248100578785L140.312703125,141.31791151563328L140.73150390625,141.29660633206367L140.96256640625,141.33219214280447L140.97219401041667,141.34277440110841L141.15511848958334,141.3815398712953L141.2658359375,141.39415593942007L141.60761588541666,141.29939329624176L142.28636197916666,141.30330266555148L142.5944453125,141.30337592959404L143.06619791666668,141.2624887327353L143.10470833333332,141.25052911043167L143.83640625,141.26779011885324L143.94230989583335,141.26249459385872L144.10116536458332,141.28502182165784L144.45738671875,141.23339118560156L144.645125,141.2681036889553L145.05911197916666,147.95333913962045L145.41051953124997,148.3909833629926L145.53086458333334,148.83771818876266L145.59344401041668,148.55450577537218L145.63676822916665,148.46672373016676L146.01705859375002,146.7050898273786L146.30107291666664,146.63728835185367L146.84984635416666,145.23717440168062L146.9220533854167,145.33683108290037L147.30234375,145.42890640099844L147.72114453125,145.6067358156045L148.14957291666667,145.50966388980547L148.32768359374998,145.52266093095145L148.49616666666665,145.5328592856725L148.85238802083333,145.73054032524425L149.44929947916665,145.53040054440498L149.5503893229167,145.43681891759238L149.59371354166666,145.39733839035034L149.670734375,145.3612397313118L149.97400390625,144.8387557466825L149.97881770833334,144.82883872588476L150.04621093749998,144.94315407673517L150.63830859375,144.94538716475168L150.6912604166667,144.98579081892967L151.17264062499999,145.08906967441243L151.49516536458333,145.09333071112633L152.45792578125003,144.8681316971779L153.06927864583335,145.00395737091702L153.07409244791668,145.0077729622523L153.21369270833333,145.15817231933278L153.2233203125,145.15615316232046L153.69988671875,145.08415805300078L154.42195703124997,144.95966193079948L154.73004036458332,144.98330570260686L154.75892317708335,144.93320775032043L154.78780598958335,144.92389442523321L154.80706119791668,144.9512277742227L154.81187500000001,144.9385443031788L155.36546223958334,145.05702105164528L155.63022135416668,145.11751956741014L156.20787760416667,145.27084069450697L156.47745052083332,145.2463675737381L156.949203125,145.07433187961578L156.99734114583333,145.07806541522345L157.03103776041667,145.0913144846757L157.11768619791667,145.02841876943907L157.39207291666668,144.98630952835083L157.60388020833332,144.9937033355236L158.0178671875,145.11205406983694L158.45592317708332,145.10971548159918L158.46555078125,145.11917240420976L158.61959244791666,145.09941748778024L158.70624088541666,145.1065416832765L160.068546875,144.96600366632146L160.19370572916665,144.9948990046978L160.40551302083333,144.95354877909026L160.67027213541667,144.85416170954704L160.96872786458334,144.82960360248885L161.03130729166668,144.8337884445985L161.47417708333336,144.75136346618336L161.61377734375,144.68653358022374L161.801515625,144.6784247159958L163.14938020833333,144.53068044781685L163.52967057291667,144.488911151886L163.65482942708334,144.51537705461183L163.76073307291665,144.48980204264325L163.85219531250002,144.47712736328444L163.97254036458332,144.4698273340861L164.04956119791666,144.48015463352203L164.1073268229167,144.47831717133522L164.3143203125,144.50596409042677L164.64165885416665,144.40698729952175L164.94011458333333,144.41000870863596L165.94138541666666,144.31354340910912L165.97508203125,144.29209462801617L166.01840625,144.30743611852327L166.25909635416667,144.24396015206975L166.27353776041667,144.22150032718977L166.37462760416665,144.20955242713293L166.52385546875,144.20196227232614L166.61531770833332,144.19773933291435L167.26999479166668,144.0727303624153L167.65991276041666,143.98093051711717L167.6647265625,143.9818096856276L167.82839583333333,144.00772171219188L168.48788671875002,144.0085276166598L168.5119557291667,144.02409769097966L168.63711458333333,143.98827157417932L168.85854947916667,147.16385753949484L168.93075651041667,151.96097018321356L169.32548828125002,147.2400081853072L169.53248177083333,148.0763025780519L169.657640625,147.73723072806996L169.85500651041664,148.6414555410544L170.06199999999998,147.88694726427397L170.697421875,147.9722852210204L170.7311184895833,147.91663385430974L170.75037369791664,147.98511228958765L171.24138151041666,148.2230152885119L171.43393359375,147.22708147764206L171.88643098958332,147.2907156944275L171.95382421875001,147.42305399974185L172.04047265625002,147.55133640766144L172.24265234375002,147.0468753774961L173.55200651041667,146.78430584073067L173.80713802083332,146.78099723656973L174.37998046875,146.84823018312454L175.25609244791667,146.88836715618768L175.434203125,146.96169860164326L175.88670052083333,146.8423045873642L176.65209505208335,146.88809168338776L176.77725390625,146.88550985852876L176.96980598958334,146.85879778862L177.19124088541668,146.90700259804726L177.50413802083335,146.90418046712875L177.5378346354167,146.86993685364723L177.57634505208333,146.88470395406088L177.80740755208333,146.88726526498795L177.85073177083333,146.88508492708206L178.13474609375,146.83000501990318L178.19732552083335,146.79251434405646L178.89532682291664,146.6644868950049L178.95309244791667,146.61656048893929L179.11194791666665,146.52284698685008L179.31412760416666,146.5592093964418L179.62702473958333,146.53662941853204L179.98324609374998,146.58330154418945L180.20949479166666,146.59460472067198L180.52239192708333,146.59895660479864L180.66199218749998,146.51896399259567L180.72457161458334,146.5473582049211L181.05672395833335,146.61646378040314L181.07116536458332,146.62883661190668L181.2781588541667,146.5677314698696L181.51403515624997,146.5220410823822L181.78360807291665,146.45307617386183L182.41902994791667,146.4669084250927L182.45754036458334,146.4542982180913L182.49123697916667,146.48189238707224L182.93892057291666,146.5115555326144L182.9966861979167,146.50327083468437L183.09296223958333,146.4614663720131L183.64173567708335,146.54424008727074L183.66099088541668,146.5336783428987L183.79096354166666,146.55429191390672L183.80059114583332,146.56013838450116L184.23383333333334,146.5044870177905L184.57079947916668,146.37108198801678L184.70077213541666,146.3904588619868L184.73446875,146.3970614175002L184.86925520833333,146.4063776731491L185.52393229166665,146.42431271076202L185.96680208333333,146.39523567756018L186.00049869791667,146.3969588478406L186.43374088541665,146.33460235595703L186.47706510416666,146.3327238659064L186.53483072916669,146.3542517721653L186.62629296875,146.32671914498013L186.70812760416666,146.29807876547176L186.96807291666667,146.23411339521408L187.02583854166664,146.23918326695758L187.14618359375,146.22906403740248L187.32429427083332,146.25476506352425L187.60349479166666,146.21498561898866L187.8249296875,146.16330223282176L187.9163919270833,146.17272105813026L187.95008854166667,146.16618883609772L188.17152343749999,146.17898366848627L188.42184114583333,146.24153357744217L188.43628255208333,146.23289135098457L188.604765625,146.28297465046248L189.23055989583332,146.2764394978682L189.48087760416666,146.1897183159987L189.48569140625,146.18046360214552L189.58678125,146.1806511580944L189.85154036458334,146.25283089280128L190.27034114583333,146.32525093356767L190.2751549479167,146.32287131746608L190.45807942708333,146.33072815338772L190.6265625,146.31050727764764L190.66988671875,146.3263059357802L190.857625,146.29644058148068L191.09350130208333,146.2806389927864L191.35826041666667,146.2691160241763L191.51230208333334,146.258645127217L191.96961328125,146.2900900542736L192.70131119791668,146.31735013922057L192.93718750000002,162.90960291524726L193.110484375,149.77212778727213L193.40894010416665,150.9014871418476L193.77960286458335,149.0743727684021L193.79404427083335,149.23558296759924L194.15989322916667,148.94732119639713L194.26098307291667,149.47137596209845L194.2994934895833,149.21286232272786L194.36207291666668,149.0870122810205L194.37170052083334,149.02273627122244L194.40058333333334,148.89240247011185L194.8723359375,149.1872228384018L194.88196354166666,149.25496570269266L195.30076432291668,149.27684527635574L195.31520572916668,149.20912292599678L195.44517838541665,149.30767185489336L196.26833854166665,149.83462787667912L196.30203515624999,149.89199069142342L196.61974609375,149.93427283565205L196.64381510416666,149.93114885687828L197.14445052083332,149.60013898213705L197.22628515625,149.63195022940636L197.54880989583333,149.55282213290533L197.6450859375,149.4600346883138L198.16016276041668,149.77674342195192L198.41048046875,149.91283284624416L198.4826875,149.95361747344336L198.55489453125,150.00052990516025L198.63191536458334,150.03449804584187L198.69449479166664,150.08939918875694L198.86297786458334,150.1921329597632L198.95444010416665,150.1717919309934L198.98813671874998,150.18112870057425L200.10975260416666,149.81074965993562L200.39858072916667,149.68601030111313L200.54299479166667,149.71582876642546L200.63445703125,149.50477557380995L201.0628854166667,149.54073649644852L201.25062369791667,149.5576458374659L201.26987890625,149.52948900063834L201.31320312499997,149.56293843189877L201.3420859375,149.51242727041245L201.46243098958334,149.54886001348495L201.73681770833335,149.6461048424244L202.43963281249998,149.64965668320656L202.99803385416666,149.57784912983576L203.15688932291667,149.63501266638437L203.68159375000002,149.5968186557293L203.71047656250002,149.57197335362434L203.75380078125,149.5831270714601L204.37478125,149.35882480939227L204.53845052083335,149.30063557624817L205.77078385416667,149.19053437312445L205.86224609375,149.21913372476897L206.06923958333334,149.2089676062266L206.40139192708332,149.19161281983057L207.436359375,149.194906771183L207.92255338541665,149.19397485256195L208.1873125,149.15784688790637L208.25951953125,149.1359614531199L208.59167187499997,149.17188134789467L208.75534114583334,149.17605446775755L209.1115625,149.12364430228868L209.18858333333333,149.11189274986586L209.24153515625002,149.08149989446005L209.40520442708333,149.08263402183852L209.79030859375,149.03732460737228L210.08395052083335,149.06097717086473L210.0887643229167,149.06475173433623L210.36796484375,149.07491199175516L210.46424088541667,149.07291041811308L210.671234375,149.04211607575417L210.69530338541668,149.03702275951701L211.04189713541666,148.98398838440576L211.72064322916665,148.887276917696L211.83136067708335,148.82625090082487L211.8361744791667,148.827555000782L212.4908515625,148.8281235297521L212.9529765625,148.87692910432816L213.23699088541665,148.8069971104463L213.28994270833334,148.79081747929254L214.6570625,148.57437791426975L214.85442838541667,148.60908455650014L215.19139453124998,148.60854240258536L215.32618098958335,148.6157222787539L215.57168489583333,148.55789936582246L216.03862369791668,148.53045758605003L216.18785156250001,148.55509774883586L216.21192057291668,148.54158492883047L216.29375520833335,148.53794517119726L216.53925911458333,148.51740193367004L216.72218359374997,148.52767648299536L217.70419921875,150.6431141694387L218.05079296875002,150.48069950938225L218.5562421875,150.55632265408835L218.97504296875,150.5381443798542L219.03280859375,150.63618046045303L219.18685026041666,150.60206872224808L219.32163671875,150.66344054539996L219.7404375,150.66444865862528L219.78857552083335,150.7843877573808L219.81745833333332,150.65172415971756L219.83671354166665,150.70763927698135L219.98594140625002,150.7791332602501L219.9955690104167,150.7172456582387L220.06296223958333,150.6199978987376L220.09184505208333,150.57844546437263L220.44325260416667,150.63609547416368L221.63226171875,149.99080630143484L222.05587630208333,150.16183388233185L222.18103515625,150.2077792286873L222.61427734375002,150.3251042664051L222.74425,150.32401116689047L223.08121614583334,150.48365351557732L223.4085546875,150.30732161800069L223.48557552083335,150.27953989307085L223.80328645833333,150.18372810880345L224.0343489583333,150.09404705961546L224.11136979166668,150.1066308915615L224.25097005208332,150.08794856071472L224.37131510416668,150.05246825019518L224.46277734375,150.03332582116127L225.15596484374998,149.9901146888733L225.19447526041665,150.02003572384515L225.50255859375002,150.0752211312453L225.63253125,150.03032785654068L226.28239453125,150.02399784326553L226.31609114583333,149.9989825685819L226.40273958333336,150.05255030592284L226.89856119791665,150.22314416368803L227.01409244791668,150.24704875548682L227.06223046875002,150.24888621767363L227.12962369791666,150.3152634402116L227.42807942708333,150.1219284236431L227.885390625,150.09348439176878L228.2031015625,150.03752238551775L228.26568098958333,150.02327399452528L228.41972265625,150.04495428999266L228.50637109375,150.065201540788L228.55450911458334,150.09238250056902L228.65559895833331,150.12266106406847L229.18030338541666,150.10168410340944L229.51726953124998,150.16479081908864L229.98902213541666,150.04089839259782L230.55223697916668,149.97916317979497L230.73516145833332,149.9418981571992L230.89401692708333,149.87520736455917L230.9758515625,149.8637957572937L231.16358984375,149.91316986083984L232.32852994791668,149.74647365013757L232.40555078124999,149.68465052048364L233.09873828125,149.68379479646683L233.34905598958332,149.70580038428307L233.56086328125,149.67646546165147L233.72934635416667,149.64760235945386L233.87376041666667,149.644302546978L233.98929166666667,149.6459290087223L234.10482291666668,149.64700745542845L234.14333333333332,149.64716570576033L234.19628515624998,149.61992320418358L234.20109895833332,149.6270180940628L234.48992708333333,149.68918996055922L234.61989973958333,149.68175219496092L234.63915494791667,149.6833552122116L234.71136197916667,149.68808806935948L234.83652083333334,149.68042171994844L234.88947265625,149.69447376330692L234.94242447916668,149.69172196586928L235.10127994791665,149.70555128653842L235.510453125,149.73429716626805L235.76558463541667,149.75570198893547L235.78483984375,149.76567762096724L235.84741927083334,149.73570969700813L236.2325234375,149.77234757939974L236.25177864583333,149.7788856625557L236.38175130208333,149.8026701013247L236.42507552083333,149.8151455024878L236.84387630208332,149.8607538342476L236.87757291666668,149.86725382010144L237.08938020833332,149.84572005271912L237.34451171875,149.835659434398L237.51299479166667,149.84685711065927L237.53225,149.85624956091246L237.82589192708335,149.84276311596236L238.29283072916667,149.78358335296312L238.47575520833334,149.8016297519207L238.69719010416668,149.84417857726413L238.70200390625,149.84500206510225L238.7164453125,149.8516866763433L238.98601822916666,149.89626051982245L239.39037760416667,149.92035852869353L239.50590885416668,149.90937185287476L239.74178515625,149.8562056024869L239.8091783854167,149.84358660380045L240.52162109374999,149.77916113535565L240.66603515625002,149.7960060040156L240.9500494791667,149.76275292038918L241.19555338541664,159.63482183218002L242.18719661458334,152.05195533235866L242.23052083333334,151.77752581238747L242.32679687499999,152.51728017628193L242.47602473958335,152.7076099018256L242.48565234375002,152.78379424909753L243.135515625,153.17753279705843L243.30881250000002,152.90176401038966L243.52061979166666,153.12276645998162L243.8046341145833,152.69706427554289L243.86239973958334,152.6119900693496L244.406359375,152.47455551723638L244.58447005208333,152.39647216598192L244.73369791666667,152.41415517528853L244.90218098958334,152.22090807557106L245.62425130208334,152.4592990130186L245.66757552083334,152.4056829214096L245.7975481770833,152.47064907848835L245.94196223958335,152.4231725136439L246.10563151041666,152.37875985105833L246.32225260416666,152.44988311827183L246.36076302083333,152.44664338231087L246.49554947916667,152.31525164842606L247.03950911458332,152.49433387815952L247.1165299479167,152.46476158003014L247.22724739583333,152.5485668530067L247.41498567708334,152.54531979064146L247.4968203125,152.58644143243632L247.91080729166666,152.42709800104302L247.9541315104167,152.4308960090081L248.11780078125,152.44114857912064L248.67138802083332,152.5676404138406L248.85912630208335,152.54381494720778L249.10944401041667,152.43209314346313L250.49581901041665,152.15332053105035L250.59690885416668,152.12088214357695L251.27565494791668,152.02934311827025L251.48264843750002,151.9681002398332L251.7377799479167,151.98615543047586L251.7714765625,151.97038314739862L251.86775260416667,152.00179290771484L251.9929114583333,151.9937954048316L252.42615364583332,152.10484904050827L252.67647135416667,152.12147997816402L252.96529947916667,152.13481696446738L252.99899609375,152.12865106264752L253.13859635416665,152.08506188790003L253.39372786458333,152.08026748895645L253.41298307291666,152.08946652213731L253.47556250000002,152.097607622544L253.54295572916666,152.11599103609723L253.65848697916667,152.10120342175165L253.71625260416664,152.10187158981958L253.87029427083334,152.10280350844067L253.90399088541668,152.0751419365406L253.97138411458332,152.08028214176494L254.51534375,151.94471728801727L254.56829557291667,151.96558874845505L254.59717838541664,151.98803978164992L254.79454427083334,151.93999908367792L254.81379947916665,151.94127680857977L254.88119270833332,151.95044067502022L254.99191015625001,151.8932624856631L255.50217317708334,151.96472423275313L255.70916666666665,151.95830630262694L255.92097395833332,152.0373083849748L256.0076223958333,152.037100315094L256.08464322916666,152.05925829211873L256.22905729166666,152.08346180121103L256.5612096354167,152.05003581444421L257.1629348958333,151.96199001868564L257.36992838541664,151.97730513413748L257.3795559895833,151.9606566131115L257.5576666666667,151.91618240873018L257.56248046875004,151.907546043396L257.6106184895833,151.91682713230452L257.64912890625,151.94483451048532L257.7694739583333,151.9746998647849L258.16901953125,151.92259154717127L258.19308854166667,151.91414566834766L258.26529557291667,151.92149551709494L259.1991731770833,151.84727318088213L259.86347786458333,151.83560368418694L260.88400390625,151.6438306570053L261.25948046875,151.63059037923813L261.51942578125,151.56828956802684L261.63977083333333,151.55243229866028L262.24630989583335,151.49519256750742L262.6362278645833,151.50893983244896L262.87210416666665,151.45715680718422L262.92986979166665,151.47037364045778L263.02133203125,151.46165228883427L263.30534635416666,151.41829462846118L263.86374739583334,151.4366516669591L264.2440377604167,151.3625905116399L264.44621744791664,151.3802061180274L264.79281119791665,151.36487048864365L265.0335013020833,151.28417454163235L265.21161197916666,151.25983622670174L265.2886328125,151.27632649739584" style="fill: none;" fill="none"></path></g></g></g></g></g></g><g transform="translate(41, 177)" clip-path="url(#clip_1)"><clipPath id="clip_1"><rect width="288" height="23"></rect></clipPath><g><g><line x1="0" y1="0" x2="0" y2="5" style="visibility: inherit;" fill="rgb(0, 0, 0)" stroke="rgb(204, 204, 204)" stroke-width="1px"></line><line x1="24.069010416666664" y1="0" x2="24.069010416666664" y2="5" style="visibility: inherit;" fill="rgb(0, 0, 0)" stroke="rgb(204, 204, 204)" stroke-width="1px"></line><line x1="48.13802083333333" y1="0" x2="48.13802083333333" y2="5" style="visibility: inherit;" fill="rgb(0, 0, 0)" stroke="rgb(204, 204, 204)" stroke-width="1px"></line><line x1="72.20703125" y1="0" x2="72.20703125" y2="5" style="visibility: inherit;" fill="rgb(0, 0, 0)" stroke="rgb(204, 204, 204)" stroke-width="1px"></line><line x1="96.27604166666666" y1="0" x2="96.27604166666666" y2="5" style="visibility: inherit;" fill="rgb(0, 0, 0)" stroke="rgb(204, 204, 204)" stroke-width="1px"></line><line x1="120.34505208333334" y1="0" x2="120.34505208333334" y2="5" style="visibility: inherit;" fill="rgb(0, 0, 0)" stroke="rgb(204, 204, 204)" stroke-width="1px"></line><line x1="144.4140625" y1="0" x2="144.4140625" y2="5" style="visibility: inherit;" fill="rgb(0, 0, 0)" stroke="rgb(204, 204, 204)" stroke-width="1px"></line><line x1="168.48307291666669" y1="0" x2="168.48307291666669" y2="5" style="visibility: inherit;" fill="rgb(0, 0, 0)" stroke="rgb(204, 204, 204)" stroke-width="1px"></line><line x1="192.55208333333331" y1="0" x2="192.55208333333331" y2="5" style="visibility: inherit;" fill="rgb(0, 0, 0)" stroke="rgb(204, 204, 204)" stroke-width="1px"></line><line x1="216.62109375" y1="0" x2="216.62109375" y2="5" style="visibility: inherit;" fill="rgb(0, 0, 0)" stroke="rgb(204, 204, 204)" stroke-width="1px"></line><line x1="240.69010416666669" y1="0" x2="240.69010416666669" y2="5" style="visibility: inherit;" fill="rgb(0, 0, 0)" stroke="rgb(204, 204, 204)" stroke-width="1px"></line><line x1="264.7591145833333" y1="0" x2="264.7591145833333" y2="5" style="visibility: inherit;" fill="rgb(0, 0, 0)" stroke="rgb(204, 204, 204)" stroke-width="1px"></line><line x1="288.828125" y1="0" x2="288.828125" y2="5" style="visibility: inherit;" fill="rgb(0, 0, 0)" stroke="rgb(204, 204, 204)" stroke-width="1px"></line></g><g transform="translate(0, 8)"><text x="0" y="0" dx="0em" dy="0.95em" style="text-anchor: middle; visibility: hidden; font-family: Roboto, sans-serif; font-size: 12px; font-weight: 200;" fill="rgb(33, 33, 33)" stroke="none" stroke-width="1px">-5k</text><text x="24.069010416666664" y="0" dx="0em" dy="0.95em" style="text-anchor: middle; visibility: inherit; font-family: Roboto, sans-serif; font-size: 12px; font-weight: 200;" fill="rgb(33, 33, 33)" stroke="none" stroke-width="1px">0</text><text x="48.13802083333333" y="0" dx="0em" dy="0.95em" style="text-anchor: middle; visibility: hidden; font-family: Roboto, sans-serif; font-size: 12px; font-weight: 200;" fill="rgb(33, 33, 33)" stroke="none" stroke-width="1px">5k</text><text x="72.20703125" y="0" dx="0em" dy="0.95em" style="text-anchor: middle; visibility: inherit; font-family: Roboto, sans-serif; font-size: 12px; font-weight: 200;" fill="rgb(33, 33, 33)" stroke="none" stroke-width="1px">10k</text><text x="96.27604166666666" y="0" dx="0em" dy="0.95em" style="text-anchor: middle; visibility: hidden; font-family: Roboto, sans-serif; font-size: 12px; font-weight: 200;" fill="rgb(33, 33, 33)" stroke="none" stroke-width="1px">15k</text><text x="120.34505208333334" y="0" dx="0em" dy="0.95em" style="text-anchor: middle; visibility: inherit; font-family: Roboto, sans-serif; font-size: 12px; font-weight: 200;" fill="rgb(33, 33, 33)" stroke="none" stroke-width="1px">20k</text><text x="144.4140625" y="0" dx="0em" dy="0.95em" style="text-anchor: middle; visibility: hidden; font-family: Roboto, sans-serif; font-size: 12px; font-weight: 200;" fill="rgb(33, 33, 33)" stroke="none" stroke-width="1px">25k</text><text x="168.48307291666669" y="0" dx="0em" dy="0.95em" style="text-anchor: middle; visibility: inherit; font-family: Roboto, sans-serif; font-size: 12px; font-weight: 200;" fill="rgb(33, 33, 33)" stroke="none" stroke-width="1px">30k</text><text x="192.55208333333331" y="0" dx="0em" dy="0.95em" style="text-anchor: middle; visibility: hidden; font-family: Roboto, sans-serif; font-size: 12px; font-weight: 200;" fill="rgb(33, 33, 33)" stroke="none" stroke-width="1px">35k</text><text x="216.62109375" y="0" dx="0em" dy="0.95em" style="text-anchor: middle; visibility: inherit; font-family: Roboto, sans-serif; font-size: 12px; font-weight: 200;" fill="rgb(33, 33, 33)" stroke="none" stroke-width="1px">40k</text><text x="240.69010416666669" y="0" dx="0em" dy="0.95em" style="text-anchor: middle; visibility: hidden; font-family: Roboto, sans-serif; font-size: 12px; font-weight: 200;" fill="rgb(33, 33, 33)" stroke="none" stroke-width="1px">45k</text><text x="264.7591145833333" y="0" dx="0em" dy="0.95em" style="text-anchor: middle; visibility: inherit; font-family: Roboto, sans-serif; font-size: 12px; font-weight: 200;" fill="rgb(33, 33, 33)" stroke="none" stroke-width="1px">50k</text><text x="288.828125" y="0" dx="0em" dy="0.95em" style="text-anchor: middle; visibility: hidden; font-family: Roboto, sans-serif; font-size: 12px; font-weight: 200;" fill="rgb(33, 33, 33)" stroke="none" stroke-width="1px">55k</text></g><line x1="0" y1="0" x2="288.828125" y2="0" fill="rgb(0, 0, 0)" stroke="rgb(204, 204, 204)" stroke-width="1px"></line></g></g></g></g></svg>