<svg viewBox="0 0 330 200" xmlns="http://www.w3.org/2000/svg"><g><g><g><g><g><line x1="41.171875" y1="177" x2="36.171875" y2="177" style="visibility: inherit;" fill="rgb(0, 0, 0)" stroke="rgb(204, 204, 204)" stroke-width="1px"></line><line x1="41.171875" y1="159.3" x2="36.171875" y2="159.3" style="visibility: inherit;" fill="rgb(0, 0, 0)" stroke="rgb(204, 204, 204)" stroke-width="1px"></line><line x1="41.171875" y1="141.6" x2="36.171875" y2="141.6" style="visibility: inherit;" fill="rgb(0, 0, 0)" stroke="rgb(204, 204, 204)" stroke-width="1px"></line><line x1="41.171875" y1="123.89999999999999" x2="36.171875" y2="123.89999999999999" style="visibility: inherit;" fill="rgb(0, 0, 0)" stroke="rgb(204, 204, 204)" stroke-width="1px"></line><line x1="41.171875" y1="106.2" x2="36.171875" y2="106.2" style="visibility: inherit;" fill="rgb(0, 0, 0)" stroke="rgb(204, 204, 204)" stroke-width="1px"></line><line x1="41.171875" y1="88.5" x2="36.171875" y2="88.5" style="visibility: inherit;" fill="rgb(0, 0, 0)" stroke="rgb(204, 204, 204)" stroke-width="1px"></line><line x1="41.171875" y1="70.8" x2="36.171875" y2="70.8" style="visibility: inherit;" fill="rgb(0, 0, 0)" stroke="rgb(204, 204, 204)" stroke-width="1px"></line><line x1="41.171875" y1="53.10000000000001" x2="36.171875" y2="53.10000000000001" style="visibility: inherit;" fill="rgb(0, 0, 0)" stroke="rgb(204, 204, 204)" stroke-width="1px"></line><line x1="41.171875" y1="35.39999999999999" x2="36.171875" y2="35.39999999999999" style="visibility: inherit;" fill="rgb(0, 0, 0)" stroke="rgb(204, 204, 204)" stroke-width="1px"></line><line x1="41.171875" y1="17.699999999999996" x2="36.171875" y2="17.699999999999996" style="visibility: inherit;" fill="rgb(0, 0, 0)" stroke="rgb(204, 204, 204)" stroke-width="1px"></line><line x1="41.171875" y1="0" x2="36.171875" y2="0" style="visibility: inherit;" fill="rgb(0, 0, 0)" stroke="rgb(204, 204, 204)" stroke-width="1px"></line></g><g transform="translate(31.171875, 0)"><text x="0" y="177" dx="0em" dy="0.3em" style="text-anchor: end; visibility: hidden; font-family: Roboto, sans-serif; font-size: 12px; font-weight: 200;" fill="rgb(33, 33, 33)" stroke="none" stroke-width="1px">0</text><text x="0" y="159.3" dx="0em" dy="0.3em" style="text-anchor: end; visibility: inherit; font-family: Roboto, sans-serif; font-size: 12px; font-weight: 200;" fill="rgb(33, 33, 33)" stroke="none" stroke-width="1px">0.2</text><text x="0" y="141.6" dx="0em" dy="0.3em" style="text-anchor: end; visibility: hidden; font-family: Roboto, sans-serif; font-size: 12px; font-weight: 200;" fill="rgb(33, 33, 33)" stroke="none" stroke-width="1px">0.4</text><text x="0" y="123.89999999999999" dx="0em" dy="0.3em" style="text-anchor: end; visibility: inherit; font-family: Roboto, sans-serif; font-size: 12px; font-weight: 200;" fill="rgb(33, 33, 33)" stroke="none" stroke-width="1px">0.6</text><text x="0" y="106.2" dx="0em" dy="0.3em" style="text-anchor: end; visibility: hidden; font-family: Roboto, sans-serif; font-size: 12px; font-weight: 200;" fill="rgb(33, 33, 33)" stroke="none" stroke-width="1px">0.8</text><text x="0" y="88.5" dx="0em" dy="0.3em" style="text-anchor: end; visibility: inherit; font-family: Roboto, sans-serif; font-size: 12px; font-weight: 200;" fill="rgb(33, 33, 33)" stroke="none" stroke-width="1px">1</text><text x="0" y="70.8" dx="0em" dy="0.3em" style="text-anchor: end; visibility: hidden; font-family: Roboto, sans-serif; font-size: 12px; font-weight: 200;" fill="rgb(33, 33, 33)" stroke="none" stroke-width="1px">1.2</text><text x="0" y="53.10000000000001" dx="0em" dy="0.3em" style="text-anchor: end; visibility: inherit; font-family: Roboto, sans-serif; font-size: 12px; font-weight: 200;" fill="rgb(33, 33, 33)" stroke="none" stroke-width="1px">1.4</text><text x="0" y="35.39999999999999" dx="0em" dy="0.3em" style="text-anchor: end; visibility: hidden; font-family: Roboto, sans-serif; font-size: 12px; font-weight: 200;" fill="rgb(33, 33, 33)" stroke="none" stroke-width="1px">1.6</text><text x="0" y="17.699999999999996" dx="0em" dy="0.3em" style="text-anchor: end; visibility: inherit; font-family: Roboto, sans-serif; font-size: 12px; font-weight: 200;" fill="rgb(33, 33, 33)" stroke="none" stroke-width="1px">1.8</text><text x="0" y="0" dx="0em" dy="0.3em" style="text-anchor: end; visibility: hidden; font-family: Roboto, sans-serif; font-size: 12px; font-weight: 200;" fill="rgb(33, 33, 33)" stroke="none" stroke-width="1px">2</text></g><line x1="41.171875" y1="0" x2="41.171875" y2="177" fill="rgb(0, 0, 0)" stroke="rgb(204, 204, 204)" stroke-width="1px"></line></g></g><g transform="translate(41, 0)" clip-path="url(#clip_0)"><clipPath id="clip_0"><rect width="288" height="177"></rect></clipPath><g><g><g><line x1="0" y1="0" x2="0" y2="177" fill="rgb(0, 0, 0)" stroke="rgb(66, 66, 66)" stroke-width="1px" opacity="0.25"></line><line x1="24.069010416666664" y1="0" x2="24.069010416666664" y2="177" fill="rgb(0, 0, 0)" stroke="rgb(66, 66, 66)" stroke-width="1px" opacity="0.25"></line><line x1="48.13802083333333" y1="0" x2="48.13802083333333" y2="177" fill="rgb(0, 0, 0)" stroke="rgb(66, 66, 66)" stroke-width="1px" opacity="0.25"></line><line x1="72.20703125" y1="0" x2="72.20703125" y2="177" fill="rgb(0, 0, 0)" stroke="rgb(66, 66, 66)" stroke-width="1px" opacity="0.25"></line><line x1="96.27604166666666" y1="0" x2="96.27604166666666" y2="177" fill="rgb(0, 0, 0)" stroke="rgb(66, 66, 66)" stroke-width="1px" opacity="0.25"></line><line x1="120.34505208333334" y1="0" x2="120.34505208333334" y2="177" fill="rgb(0, 0, 0)" stroke="rgb(66, 66, 66)" stroke-width="1px" opacity="0.25"></line><line x1="144.4140625" y1="0" x2="144.4140625" y2="177" fill="rgb(0, 0, 0)" stroke="rgb(66, 66, 66)" stroke-width="1px" opacity="0.25"></line><line x1="168.48307291666669" y1="0" x2="168.48307291666669" y2="177" fill="rgb(0, 0, 0)" stroke="rgb(66, 66, 66)" stroke-width="1px" opacity="0.25"></line><line x1="192.55208333333331" y1="0" x2="192.55208333333331" y2="177" fill="rgb(0, 0, 0)" stroke="rgb(66, 66, 66)" stroke-width="1px" opacity="0.25"></line><line x1="216.62109375" y1="0" x2="216.62109375" y2="177" fill="rgb(0, 0, 0)" stroke="rgb(66, 66, 66)" stroke-width="1px" opacity="0.25"></line><line x1="240.69010416666669" y1="0" x2="240.69010416666669" y2="177" fill="rgb(0, 0, 0)" stroke="rgb(66, 66, 66)" stroke-width="1px" opacity="0.25"></line><line x1="264.7591145833333" y1="0" x2="264.7591145833333" y2="177" fill="rgb(0, 0, 0)" stroke="rgb(66, 66, 66)" stroke-width="1px" opacity="0.25"></line><line x1="288.828125" y1="0" x2="288.828125" y2="177" fill="rgb(0, 0, 0)" stroke="rgb(66, 66, 66)" stroke-width="1px" opacity="0.25"></line></g><g><line x1="0" y1="177" x2="288.828125" y2="177" fill="rgb(0, 0, 0)" stroke="rgb(66, 66, 66)" stroke-width="1px" opacity="0.25"></line><line x1="0" y1="159.3" x2="288.828125" y2="159.3" fill="rgb(0, 0, 0)" stroke="rgb(66, 66, 66)" stroke-width="1px" opacity="0.25"></line><line x1="0" y1="141.6" x2="288.828125" y2="141.6" fill="rgb(0, 0, 0)" stroke="rgb(66, 66, 66)" stroke-width="1px" opacity="0.25"></line><line x1="0" y1="123.89999999999999" x2="288.828125" y2="123.89999999999999" fill="rgb(0, 0, 0)" stroke="rgb(66, 66, 66)" stroke-width="1px" opacity="0.25"></line><line x1="0" y1="106.2" x2="288.828125" y2="106.2" fill="rgb(0, 0, 0)" stroke="rgb(66, 66, 66)" stroke-width="1px" opacity="0.25"></line><line x1="0" y1="88.5" x2="288.828125" y2="88.5" fill="rgb(0, 0, 0)" stroke="rgb(66, 66, 66)" stroke-width="1px" opacity="0.25"></line><line x1="0" y1="70.8" x2="288.828125" y2="70.8" fill="rgb(0, 0, 0)" stroke="rgb(66, 66, 66)" stroke-width="1px" opacity="0.25"></line><line x1="0" y1="53.10000000000001" x2="288.828125" y2="53.10000000000001" fill="rgb(0, 0, 0)" stroke="rgb(66, 66, 66)" stroke-width="1px" opacity="0.25"></line><line x1="0" y1="35.39999999999999" x2="288.828125" y2="35.39999999999999" fill="rgb(0, 0, 0)" stroke="rgb(66, 66, 66)" stroke-width="1px" opacity="0.25"></line><line x1="0" y1="17.699999999999996" x2="288.828125" y2="17.699999999999996" fill="rgb(0, 0, 0)" stroke="rgb(66, 66, 66)" stroke-width="1px" opacity="0.25"></line><line x1="0" y1="0" x2="288.828125" y2="0" fill="rgb(0, 0, 0)" stroke="rgb(66, 66, 66)" stroke-width="1px" opacity="0.25"></line></g></g></g><g><g><line x1="0" y1="177" x2="288.828125" y2="177" fill="rgb(0, 0, 0)" stroke="rgb(153, 153, 153)" stroke-width="1.5px"></line></g></g><g><g><line x1="24.069010416666664" y1="0" x2="24.069010416666664" y2="177" fill="rgb(0, 0, 0)" stroke="rgb(153, 153, 153)" stroke-width="1.5px"></line></g></g><g><g><g><g><g><path stroke="rgb(255, 112, 67)" stroke-width="2px" d="M24.27600390625,14.427661657333374L24.290445312499997,17.020361244678497L24.415604166666668,30.55692583322525L24.526321614583335,37.95119369029999L24.87772916666667,44.89435315132141L25.176184895833334,50.43087816238403L25.200253906249998,50.74198776483536L25.30134375,51.277496337890625L25.3879921875,52.5447860956192L25.556475260416665,55.58031231164932L25.566102864583332,55.8298836350441L25.604613281250003,55.91582411527634L26.35556640625,60.28988438844681L26.654022135416664,63.12717568874359L26.861015625,64.11379265785217L26.894712239583335,64.58226639032364L27.12577473958333,66.0771095752716L27.188354166666667,66.41773813962936L27.303885416666667,67.18306839466095L27.51087890625,67.82248413562775L27.549389322916667,67.9803968667984L27.852658854166666,68.88875377178192L27.934493489583335,69.49019998311996L27.963376302083333,69.66961365938187L28.098162760416667,70.07917606830597L28.748026041666666,72.70249181985855L28.955019531250002,73.43529635667801L29.205337239583333,74.31360679864883L29.388261718749998,75.16498303413391L29.754110677083336,75.7425861954689L30.144028645833334,75.96982312202454L30.40878776041667,76.13388651609421L30.423229166666665,76.1088935136795L30.490622395833334,76.27400135993958L30.509877604166665,76.3746485710144L30.74094010416667,77.10546970367432L30.774636718750003,77.23600512742996L30.986444010416665,77.55602949857712L31.130858072916666,77.81682604551315L31.405244791666668,78.50094223022461L31.544845052083335,78.82831996679306L31.621865885416668,78.77724730968475L31.69888671875,78.88118612766266L32.213963541666665,79.65229779481888L32.42095703125,79.89773350954056L32.4353984375,79.90885323286057L32.95047526041667,80.3901030421257L33.056378906249996,80.6731179356575L33.109330729166665,80.67070198059082L33.3018828125,81.0589427947998L33.383717447916666,81.07565402984619L33.446296875,81.23787117004395L33.87472526041667,81.77997350692749L34.16355338541667,82.25098979473114L34.601609375,82.55440843105316L34.659375,82.59204035997391L34.81341666666667,82.79010647535324L34.84229947916666,82.76939678192139L34.96264453125,82.96923530101776L35.179265625,83.29123252630234L35.57399739583333,83.6634584069252L35.800246093750005,83.94570314884186L35.88208072916667,83.9822906255722L35.891708333333334,84.00089031457901L35.91577734375,84.00666117668152L36.03612239583333,84.15865534543991L36.040936197916665,84.17381572723389L36.09870182291667,84.19658267498016L36.122770833333334,84.2057084441185L36.26237109375,84.28062415122986L36.334578125,84.26911407709122L36.9988828125,85.12959498167038L37.263641927083334,85.33681851625443L38.356375,86.14964497089386L38.69815494791667,86.31699997186661L38.71259635416667,86.34778493642807L38.991796875000006,86.55647492408752L39.29025260416667,86.836345911026L39.622404947916664,87.05043751001358L39.68979817708333,87.0954966545105L39.69942578125,87.08196097612381L39.70423958333333,87.09543335437775L39.98344010416666,87.15397542715073L40.82585546875,87.74067270755768L41.49016015625,88.10022801160812L41.499787760416666,88.09726345539093L41.74047786458333,88.42342793941498L42.082257812499996,88.52958226203918L42.33257552083334,88.64975228905678L42.433665364583334,88.67722982168198L42.46736197916666,88.65586602687836L42.98243880208334,89.04158538579941L43.11722526041667,89.04581066966057L43.25201171875,88.98670944571495L43.50232942708334,88.92720732092857L43.80078515625,89.14674800634384L44.27253776041667,89.34222936630249L44.421765625,89.40458527207375L44.44583463541667,89.44076657295227L44.8550078125,89.75046774744987L44.864635416666665,89.76431992650032L45.25455338541667,90.0867391526699L45.69742317708334,90.31318482756615L45.7792578125,90.27214524149895L45.880347656249995,90.26193282008171L46.52539713541667,90.48244938254356L46.544652343749995,90.50376042723656L46.58316276041667,90.51463750004768L47.12230859375,90.75585848093033L47.18970182291667,90.77311304211617L47.37262630208333,90.87455150485039L47.430391927083335,90.88530197739601L47.63257161458333,90.95633000135422L48.003234375,91.17190915346146L48.383524739583336,115.47874340415001L48.39315234375,115.0485768020153L48.65309765625,109.79646456241608L48.78788411458333,111.93032258749008L49.29333333333333,109.68851673603058L49.803596354166665,107.64398047327995L49.87098958333333,107.40448969602585L50.16463151041666,107.46651327610016L50.78561197916667,108.32548552751541L51.41140625,108.26901653409004L51.623213541666665,108.65336966514587L52.032386718750004,109.04264438152313L52.12866276041667,109.47593906521797L52.30195963541667,109.73191425204277L52.33565625,109.60500276088715L52.508953125,109.61061537265778L52.61004296875,109.70635682344437L52.90849869791667,109.9641044139862L53.00477473958333,109.87792655825615L53.539106770833335,109.89162576198578L53.58724479166666,109.96433651447296L53.919397135416666,109.54807484149933L53.9819765625,109.55148777365685L54.010859375,109.52884742617607L54.34782552083334,109.80751043558121L54.458542968749995,109.67823046445847L54.76662630208333,109.59458988904953L55.45981380208333,109.08253929018974L55.71975911458333,109.14795470237732L55.859359375,108.97714984416962L56.1193046875,108.79786804318428L56.307042968750004,108.72476693987846L56.321484375000004,108.73798084259033L56.379250000000006,108.75095209479332L56.52847786458334,108.79286733269691L57.067623697916666,108.65228828787804L57.606769531249995,108.34322011470795L57.731928385416666,108.28693574666977L58.28070182291667,108.3172459602356L58.31921223958333,108.3014684021473L58.516578125,108.30202755331993L58.95944791666667,108.17354410886765L59.26753125,108.35827499628067L59.49859375,108.31914496421814L59.60931119791667,108.23773044347763L59.93664973958333,108.31779983639717L59.984787760416665,108.3272368311882L59.999229166666666,108.3043327331543L60.07143619791666,108.35048380494118L60.230291666666666,108.36392453312874L61.10640364583333,108.52243334054947L61.42892838541667,108.7195974290371L61.56371484375,108.63903218507767L61.61185286458333,108.66092875599861L61.7803359375,108.73653548955917L62.54091666666667,108.8094519674778L62.901951822916665,108.95957350730896L63.45072526041667,109.07134571671486L63.64809114583333,109.07016411423683L64.19205078125,109.11001154780388L64.33165104166667,109.11009594798088L64.35572005208333,109.13671892881393L64.39904427083333,109.08925437927246L64.83228645833334,109.01461297273636L64.84672786458333,109.02930387854576L64.98151432291667,109.01942378282547L65.02965234375,109.05636996030807L65.4773359375,109.04871591925621L65.64100520833334,109.12099939584732L65.92983333333333,109.14924708008766L66.81075911458333,109.05427050590515L66.93591796875,109.06519505381584L66.950359375,109.08250764012337L67.05144921875,109.14271134138107L67.08514583333334,109.14659902453423L67.36434635416666,109.18600863218307L67.39322916666667,109.19919088482857L67.66280208333333,109.34208038449287L68.64963151041667,109.38331514596939L68.91920442708333,109.43766885995865L69.07324609375,109.59749642014503L69.492046875,109.67239102721214L69.65090234375,109.64147418737411L70.03119270833334,109.60951289534569L70.06488932291667,109.63606730103493L70.12746874999999,109.61804258823395L70.416296875,109.5648441016674L70.56071093749999,109.60640063881874L70.67142838541666,109.65355396270752L70.75807682291666,109.70180448889732L71.456078125,109.79463413357735L71.76416145833333,109.80097997188568L72.49104557291666,115.35950177907944L72.61620442708333,115.58562567830086L73.54045442708333,122.47807118296623L73.57415104166667,122.21877801418304L74.11811067708334,120.8493218421936L74.13255208333332,120.78518298268318L74.23364192708334,120.94288471341133L74.51765625,119.32271781563759L74.72464973958333,119.01322236657143L75.13382291666666,118.8679221868515L75.28305078125,118.64729484915733L75.36007161458333,118.49065867066383L75.44190625,118.6143049299717L75.63445833333334,118.32435867190361L75.85589322916667,118.67975199222565L75.86070703125,118.66639038920403L75.96661067708334,118.68906766176224L76.13509375,118.59345808625221L76.26025260416667,118.58897960186005L76.30357682291667,118.34551674127579L76.55389453125001,118.61139312386513L76.5683359375,118.62761905789375L76.73200520833333,119.005605250597L76.75126041666667,118.98975384235382L76.86197786458334,119.18251857161522L76.89086067708332,119.23793256282806L76.90048828124999,119.30514147877693L77.12192317708333,119.31235241889954L77.51665494791666,119.23546913266182L77.6081171875,119.09542813897133L77.65144140624999,119.05271637439728L77.97877994791668,118.66770914196968L77.98840755208334,118.69228014349937L78.27723567708334,118.31613492965698L79.04263020833334,117.71463069319725L79.29776171875001,118.07311517000198L79.39403776041667,118.10141032934189L79.54326562499999,118.13580340147018L79.58658984375,118.12137097120285L79.66842447916666,118.15815362334251L79.75025911458333,118.12638223171234L80.14499088541668,118.14581009745598L80.25570833333333,118.25375264883041L80.3231015625,118.20772290229797L80.67932291666666,118.31770688295364L81.22809635416667,118.24710085988045L81.69022135416667,118.22706636786461L81.71429036458333,118.27399814128876L81.88758723958333,118.18922871351242L82.03681510416668,118.2998615205288L82.50375390625,118.24304437637329L82.62891276041667,118.26335316896439L82.64816796875,118.25377902388573L82.72518880208332,118.21600466966629L82.92736848958334,118.31293299794197L83.23545182291667,118.35871481895447L83.24989322916667,118.38308537006378L83.3269140625,118.35278570652008L83.78903906250001,118.5839894413948L84.04417057291666,118.48506188392639L85.06951041666666,118.18502980470657L85.204296875,118.15384921431541L85.71455989583333,118.05629843473434L86.06115364583333,118.04879209399223L86.35960937499999,118.0043132007122L86.7350859375,118.01094388961792L86.81692057291666,118.06324562430382L86.94689322916666,118.09671556949615L87.04798307291667,118.0769237279892L87.10574869791667,118.09776529669762L87.17795572916667,118.12033706903458L87.45234244791668,118.21105143427849L87.80375,118.21459096670151L88.33326822916668,118.34518441557884L88.58839973958334,118.35328683257103L88.60765494791667,118.3494518995285L89.07940755208334,118.19309002161026L89.28158723958333,118.07987773418427L89.52709114583334,118.14747700095177L89.63780859375001,118.15391778945923L89.92182291666667,118.12044784426689L89.93626432291667,118.13918468356133L90.38876171875,117.95128351449966L90.55243098958333,117.98033300042152L90.7209140625,117.99005484580994L90.90865234374999,117.99862146377563L91.35152213541667,117.96752527356148L91.45742578125,117.9122431576252L91.85215755208334,117.8066954612732L92.53090364583333,117.6877386868L92.84861458333333,117.71447244286537L92.88231119791666,117.7249116897583L92.92563541666667,117.75338092446327L93.00747005208333,117.71080103516579L93.09411848958332,117.65311878919601L93.3781328125,117.6829120516777L93.61882291666666,117.71491554379463L93.84507161458333,117.74358522891998L94.14834114583334,117.73814141750336L94.50937630208333,117.76367774605751L94.53825911458333,117.77722924947739L94.68267317708333,117.74459275603294L94.72599739583333,117.75894078612328L94.77413541666667,117.75515332818031L95.21700520833333,117.76801380515099L95.26032942708333,117.76516002416611L95.27958463541665,117.77188566327095L95.36141927083334,117.78970465064049L95.66950260416667,117.71494719386101L95.76096484375,117.706776201725L96.410828125,117.77035063505173L96.71409765624999,124.42215013504028L96.93553255208333,123.18388348817825L97.14733984374999,123.8112405538559L97.56132682291667,124.01793658733368L97.84052734375,123.06629294157028L98.55778385416667,124.51943716406822L98.56741145833334,124.48997095227242L98.721453125,125.05417558550835L98.87068098958333,125.06997951865196L99.1546953125,125.24137517809868L99.84306901041667,124.77615085244179L99.95860026041667,124.7061936557293L100.00192447916666,124.43822309374809L100.26668359375,124.4074856042862L100.99356770833334,124.5974123775959L101.0609609375,124.51188334822655L101.55196875,124.13087457418442L101.65305859374999,124.19264495372772L102.29329427083334,123.85468026995659L102.63988802083334,123.93215963244438L102.74579166666668,123.82956594228745L102.82762630208333,123.88726928830147L103.04906119791667,123.97619542479515L103.21273046875,124.04444351792336L103.52562760416666,123.97808915376663L103.91073177083334,123.8608467578888L104.27658072916667,123.70023849606514L104.44987760416666,123.54629257321358L104.98420963541666,123.23897570371628L104.9890234375,123.26024454832077L105.15269270833333,123.15228089690208L105.2200859375,123.23949265480042L105.422265625,123.24939912557602L106.22617057291667,123.21174609661102L106.37539843750001,123.20866549015045L106.53906770833333,123.29957503080368L107.05895833333332,123.27884423732758L107.21781380208333,123.38754639029503L107.30446223958333,123.37011247873306L107.31408984375,123.38307845592499L107.42962109375,123.31593284010887L107.43443489583333,123.30965030193329L107.44887630208333,123.29921633005142L107.54033854166667,123.39733681082726L107.70882161458333,123.3605805337429L107.85804947916667,123.40898403525352L108.04578776041666,123.42472466826439L108.09392578125001,123.34475550055504L108.52235416666666,123.49170675873756L108.58974739583333,123.48903760313988L108.72934765625,123.60289344191551L108.76785807291667,123.63157895207405L108.90745833333334,123.61607041954994L109.38402473958332,123.48334059119225L110.49601302083333,122.83279457688332L110.63079947916667,122.7729601264L110.67412369791666,122.76143950223923L110.80891015625,122.70951756834984L110.97739322916667,122.81078723073006L111.03515885416667,122.82209685444832L111.3432421875,122.92858350276947L111.99310546875,123.17417219281197L112.25305078125,123.20961499214172L112.89328645833332,123.24709394574165L112.89810026041667,123.24027335643768L113.57203255208333,123.14093434810638L114.15450260416667,123.12676566839218L114.18819921875,123.13884544372559L114.78992447916667,123.07846766710281L115.33388411458333,123.06341278553009L115.42534635416666,123.05420261621475L115.5601328125,123.12086820602417L115.66603645833334,123.11479139328003L115.76712630208333,123.13190880417824L116.09446484374999,123.16370129585266L116.34959635416666,123.2066820859909L116.62879687499999,123.20511013269424L116.84060416666668,123.16606977581978L117.8707578125,123.01543128490448L117.95740624999999,122.997448772192L118.06330989583333,122.96238577365875L118.09219270833333,122.98499447107315L118.61689713541666,122.88388833403587L118.68429036458333,122.88561853766441L118.7372421875,122.90846988558769L119.00200130208333,122.9683623611927L119.054953125,122.94292098283768L119.0838359375,122.96485447883606L119.36785026041667,123.0138487815857L119.49782291666666,122.95769101381302L119.60854036458333,122.9512449502945L119.94550651041666,123.02675673365593L120.05141015625,123.05250406265259L120.210265625,123.03730148077011L120.32579687500001,123.0419751405716L120.51834895833333,123.08676525950432L120.60499739583332,128.17433407902718L120.63388020833334,125.20796325802803L120.64832161458334,126.30907961726189L121.01417057291667,122.79450327157974L121.018984375,123.0681813955307L121.24523307291668,127.11309680342674L121.3944609375,126.44780713319778L121.52443359375,127.01749250292778L121.538875,126.8495203256607L121.56294401041667,126.9118287563324L121.90472395833332,126.96447336673737L121.95767578125,126.6958487033844L122.19355208333333,126.97316658496857L122.46793880208332,127.17234572768211L122.68455989583333,127.31196999549866L122.88192578125,127.07543849945068L122.94450520833334,127.19960698485374L122.94931901041667,127.11507493257523L123.05522265625,127.14682522416115L123.13224348958333,126.86979219317436L123.66657552083332,127.17450320720673L123.76766536458334,127.41279128193855L124.09981770833332,127.52716407179832L124.11425911458333,127.47358578443527L124.11907291666667,127.48468440771103L124.35013541666666,127.06103771924973L124.46566666666666,126.99155527353287L125.10108854166666,126.46405416727066L125.48619270833333,126.4451379776001L125.54877213541666,126.22857767343521L125.85685546875001,126.53278228640556L126.16975260416667,126.71038663387299L126.28047005208333,126.6835421025753L126.68482942708333,126.76842758059502L126.69927083333333,126.75797778367996L126.72333984375,126.784094363451L127.04586458333334,126.44753283262253L127.13251302083333,126.40331768989563L127.49354817708334,126.36230447888374L127.68128645833333,126.42846366763115L128.4418671875,126.59568679332733L128.64404687500002,126.58684059977531L128.64886067708335,126.59944787621498L128.9617578125,126.42354208230972L128.990640625,126.40564924478531L129.11579947916667,126.42406958341599L129.21688932291667,126.4470000565052L129.24577213541667,126.44215759634972L130.00635286458333,126.578727632761L131.1568515625,126.69349077343941L131.21943098958332,126.71414244174957L131.38310026041665,126.6641089618206L131.49863151041666,126.6827666759491L131.56602473958333,126.70573934912682L131.70081119791666,126.75930708646774L132.24958463541665,126.78279143571854L132.41806770833335,126.83256644010544L132.59617838541666,126.78829854726791L133.034234375,126.85832959413528L133.66002864583334,126.89166238904L134.02106380208335,126.69316372275352L134.45430598958333,126.75458067655563L134.46874739583333,126.73953106999397L135.17637630208333,126.91955664753914L135.19563151041666,126.90675947070122L135.402625,126.95959398150444L135.45557682291667,126.97110405564308L135.50371484375,126.94360014796257L135.66738411458334,126.97201135754585L135.71552213541665,126.9370749592781L135.84068098958332,126.87360602617264L136.05730208333333,126.92821821570396L136.16801953125,126.87577405571938L136.4135234375,126.95325869321823L136.5290546875,127.02187603712082L136.62051692708332,126.97415301203728L136.846765625,127.05591568350792L137.39072526041667,127.02813220024109L137.62660156249999,126.962168186903L138.01651953125,126.88542732596397L138.06947135416667,126.84477281570435L138.16574739583334,126.88619220256805L138.51715494791665,126.79066702723503L138.79154166666666,126.75733950734138L139.30661848958334,126.77306959033012L139.98536458333334,126.69964671134949L140.17310286458334,126.67139375209808L140.312703125,126.66748496890068L140.73150390625,126.63560807704926L140.96256640625,126.68563628196716L140.97219401041667,126.699942111969L141.15511848958334,126.7533990740776L141.2658359375,126.74758073687553L141.60761588541666,126.70260599255562L142.28636197916666,126.7066730260849L142.5944453125,126.72928699851036L143.06619791666668,126.75315642356873L143.10470833333332,126.7481926381588L143.83640625,126.75099894404411L143.94230989583335,126.74682641029358L144.10116536458332,126.77876660227776L144.45738671875,126.74384075403214L144.645125,126.78634151816368L145.05911197916666,134.39056800305843L145.41051953124997,133.1668313741684L145.53086458333334,133.86996661126614L145.59344401041668,133.50287859141827L145.63676822916665,132.77329444885254L146.01705859375002,130.98454347252846L146.30107291666664,131.43690732121468L146.84984635416666,130.19433626532555L146.9220533854167,130.4534078836441L147.30234375,130.83002784848213L147.72114453125,130.89843419194221L148.14957291666667,131.34755390882492L148.32768359374998,131.3285480439663L148.49616666666665,131.38158828020096L148.85238802083333,131.4932971894741L149.44929947916665,131.14583748579025L149.5503893229167,130.8558859527111L149.59371354166666,130.8084266781807L149.670734375,130.77963039278984L149.97400390625,130.53719088435173L149.97881770833334,130.50464406609535L150.04621093749998,130.5722644329071L150.63830859375,130.66806390881538L150.6912604166667,130.64053362607956L151.17264062499999,130.85312712192535L151.49516536458333,130.7638159096241L152.45792578125003,130.6977411210537L153.06927864583335,130.76621076464653L153.07409244791668,130.7752890586853L153.21369270833333,130.97553902864456L153.2233203125,130.97981178760529L153.69988671875,130.74919885396957L154.42195703124997,130.65683341026306L154.73004036458332,130.7134606540203L154.75892317708335,130.64242208003998L154.78780598958335,130.63262110948563L154.80706119791668,130.6676524579525L154.81187500000001,130.65462318062782L155.36546223958334,130.7594693005085L155.63022135416668,130.74240991473198L156.20787760416667,130.77032527327538L156.47745052083332,130.7723667025566L156.949203125,130.64763379096985L156.99734114583333,130.64805579185486L157.03103776041667,130.68412104249L157.11768619791667,130.63464671373367L157.39207291666668,130.58813694119453L157.60388020833332,130.61476519703865L158.0178671875,130.737440854311L158.45592317708332,130.79056549072266L158.46555078125,130.79800853133202L158.61959244791666,130.80661734938622L158.70624088541666,130.83973914384842L160.068546875,130.68119341135025L160.19370572916665,130.6893011033535L160.40551302083333,130.63968962430954L160.67027213541667,130.5412737429142L160.96872786458334,130.51177060604095L161.03130729166668,130.52243667840958L161.47417708333336,130.41595003008842L161.61377734375,130.3245024383068L161.801515625,130.3300095498562L163.14938020833333,130.15649861097336L163.52967057291667,130.14128547906876L163.65482942708334,130.16602528095245L163.76073307291665,130.17811560630798L163.85219531250002,130.15922051668167L163.97254036458332,130.11522164940834L164.04956119791666,130.11060073971748L164.1073268229167,130.13575726747513L164.3143203125,130.19367688894272L164.64165885416665,130.11420357227325L164.94011458333333,130.09864228963852L165.94138541666666,130.09378400444984L165.97508203125,130.0532719194889L166.01840625,130.07024690508842L166.25909635416667,130.06033515930176L166.27353776041667,130.040559142828L166.37462760416665,130.0564052760601L166.52385546875,130.08938464522362L166.61531770833332,130.09953904151917L167.26999479166668,129.95444458723068L167.65991276041666,129.93863010406494L167.6647265625,129.932991117239L167.82839583333333,129.95738276839256L168.48788671875002,130.0039769411087L168.5119557291667,130.02319380640984L168.63711458333333,130.00003123283386L168.85854947916667,133.21440933644772L168.93075651041667,140.8123374581337L169.32548828125002,133.0778445750475L169.53248177083333,133.89267817139626L169.657640625,133.92927883565426L169.85500651041664,134.83032457530499L170.06199999999998,133.87946954369545L170.697421875,133.853445276618L170.7311184895833,133.7931914627552L170.75037369791664,133.94300705194473L171.24138151041666,134.90666717290878L171.43393359375,133.7556808590889L171.88643098958332,133.5987492799759L171.95382421875001,133.82670360803604L172.04047265625002,134.01622420549393L172.24265234375002,133.63980469107628L173.55200651041667,133.05425736308098L173.80713802083332,133.1508612781763L174.37998046875,133.35076573491096L175.25609244791667,133.306038916111L175.434203125,133.30421376228333L175.88670052083333,133.11864678561687L176.65209505208335,133.06012581288815L176.77725390625,133.03507742285728L176.96980598958334,133.04071113467216L177.19124088541668,133.10511374473572L177.50413802083335,133.15919315814972L177.5378346354167,133.13672161102295L177.57634505208333,133.15621277689934L177.80740755208333,133.1188182234764L177.85073177083333,133.15631300210953L178.13474609375,133.09051251411438L178.19732552083335,133.02127799391747L178.89532682291664,132.79165939986706L178.95309244791667,132.6864519417286L179.11194791666665,132.61798757314682L179.31412760416666,132.7152535021305L179.62702473958333,132.63078474998474L179.98324609374998,132.64224734902382L180.20949479166666,132.73582604527473L180.52239192708333,132.71540120244026L180.66199218749998,132.6349678337574L180.72457161458334,132.64041164517403L181.05672395833335,132.7646487057209L181.07116536458332,132.78220130503178L181.2781588541667,132.73941305279732L181.51403515624997,132.76930917799473L181.78360807291665,132.66139563918114L182.41902994791667,132.7299602329731L182.45754036458334,132.70423927903175L182.49123697916667,132.7336421906948L182.93892057291666,132.80782994627953L182.9966861979167,132.79278033971786L183.09296223958333,132.77922356128693L183.64173567708335,132.82715758681297L183.66099088541668,132.83448985219002L183.79096354166666,132.87690357863903L183.80059114583332,132.88695511221886L184.23383333333334,132.76988679170609L184.57079947916668,132.644536703825L184.70077213541666,132.6357590854168L184.73446875,132.6383280158043L184.86925520833333,132.6653096973896L185.52393229166665,132.69436445832253L185.96680208333333,132.7025249004364L186.00049869791667,132.71471545100212L186.43374088541665,132.65837305784225L186.47706510416666,132.6677784025669L186.53483072916669,132.6761498451233L186.62629296875,132.6264170408249L186.70812760416666,132.61098235845566L186.96807291666667,132.5928415954113L187.02583854166664,132.60927325487137L187.14618359375,132.60571789741516L187.32429427083332,132.63746291399002L187.60349479166666,132.60531172156334L187.8249296875,132.5326378941536L187.9163919270833,132.55496701598167L187.95008854166667,132.55912372469902L188.17152343749999,132.5565284192562L188.42184114583333,132.62022945284843L188.43628255208333,132.59023573994637L188.604765625,132.6398946940899L189.23055989583332,132.6436188519001L189.48087760416666,132.5512217581272L189.48569140625,132.5452135205269L189.58678125,132.5007557272911L189.85154036458334,132.56890359520912L190.27034114583333,132.6407808959484L190.2751549479167,132.64007404446602L190.45807942708333,132.66438657045364L190.6265625,132.63892936706543L190.66988671875,132.66428634524345L190.857625,132.63383370637894L191.09350130208333,132.63829636573792L191.35826041666667,132.66453954577446L191.51230208333334,132.63324290513992L191.96961328125,132.63926696777344L192.70131119791668,132.71149769425392L192.93718750000002,158.85899034887552L193.110484375,138.63422736525536L193.40894010416665,139.54849492013454L193.77960286458335,137.38130673766136L193.79404427083335,137.66024404764175L194.15989322916667,136.55402147769928L194.26098307291667,136.9632304608822L194.2994934895833,136.75543722510338L194.36207291666668,136.5286855995655L194.37170052083334,136.55769816040993L194.40058333333334,136.59349174797535L194.8723359375,136.9486424177885L194.88196354166666,137.0445368438959L195.30076432291668,137.28527516126633L195.31520572916668,137.16213002800941L195.44517838541665,137.22488155961037L196.26833854166665,137.8621688336134L196.30203515624999,137.906610801816L196.61974609375,137.74191968142986L196.64381510416666,137.67917078733444L197.14445052083332,137.09126552939415L197.22628515625,137.181721419096L197.54880989583333,137.15312030911446L197.6450859375,137.03285005688667L198.16016276041668,137.11820237338543L198.41048046875,137.2713412195444L198.4826875,137.2960889339447L198.55489453125,137.3908782452345L198.63191536458334,137.44136537611485L198.69449479166664,137.46754525601864L198.86297786458334,137.5741347670555L198.95444010416665,137.55164739489555L198.98813671874998,137.58108723163605L200.10975260416666,136.83342035114765L200.39858072916667,136.6890195608139L200.54299479166667,136.68526375293732L200.63445703125,136.52401721477509L201.0628854166667,136.44493424892426L201.25062369791667,136.41599817574024L201.26987890625,136.40381817519665L201.31320312499997,136.42653764784336L201.3420859375,136.35888035595417L201.46243098958334,136.34903982281685L201.73681770833335,136.51202183961868L202.43963281249998,136.58648125827312L202.99803385416666,136.60227727890015L203.15688932291667,136.71485128998756L203.68159375000002,136.62837275862694L203.71047656250002,136.59546987712383L203.75380078125,136.62869189679623L204.37478125,136.36650010943413L204.53845052083335,136.32520204782486L205.77078385416667,136.10771597921848L205.86224609375,136.17101874947548L206.06923958333334,136.10504418611526L206.40139192708332,136.05206725001335L207.436359375,136.07649318873882L207.92255338541665,136.06506487727165L208.1873125,136.00819762051105L208.25951953125,136.01065841317177L208.59167187499997,136.05193801224232L208.75534114583334,136.04589548707008L209.1115625,136.0177453905344L209.18858333333333,136.00407256186008L209.24153515625002,135.98543858528137L209.40520442708333,135.98844270408154L209.79030859375,135.93062330782413L210.08395052083335,135.8987701535225L210.0887643229167,135.90285037457943L210.36796484375,135.925767660141L210.46424088541667,135.874299377203L210.671234375,135.82399159669876L210.69530338541668,135.82292340695858L211.04189713541666,135.79573599994183L211.72064322916665,135.65077605843544L211.83136067708335,135.61026924848557L211.8361744791667,135.61308874189854L212.4908515625,135.62167645990849L212.9529765625,135.68858470022678L213.23699088541665,135.6293595135212L213.28994270833334,135.61842969059944L214.6570625,135.45353020727634L214.85442838541667,135.48364788293839L215.19139453124998,135.53332529962063L215.32618098958335,135.54050986468792L215.57168489583333,135.52461625635624L216.03862369791668,135.50581347942352L216.18785156250001,135.5356990545988L216.21192057291668,135.52696627378464L216.29375520833335,135.53337541222572L216.53925911458333,135.54421028494835L216.72218359374997,135.53331211209297L217.70419921875,136.4791453331709L218.05079296875002,137.0896197259426L218.5562421875,138.18890038132668L218.97504296875,138.13326220214367L219.03280859375,138.20858408510685L219.18685026041666,138.03989450633526L219.32163671875,138.04771734774113L219.7404375,138.45440751314163L219.78857552083335,138.62143810093403L219.81745833333332,138.56682854890823L219.83671354166665,138.59509733319283L219.98594140625002,138.68907956779003L219.9955690104167,138.67048779129982L220.06296223958333,138.63872694969177L220.09184505208333,138.56146650016308L220.44325260416667,138.68680867552757L221.63226171875,138.16351175308228L222.05587630208333,138.43109196424484L222.18103515625,138.48523204028606L222.61427734375002,138.39573884010315L222.74425,138.40424479544163L223.08121614583334,138.5726125985384L223.4085546875,138.49985964596272L223.48557552083335,138.48925159871578L223.80328645833333,138.3563213199377L224.0343489583333,138.2075449079275L224.11136979166668,138.25923737883568L224.25097005208332,138.2141228467226L224.37131510416668,138.12196576595306L224.46277734375,138.09050032496452L225.15596484374998,138.16651850938797L225.19447526041665,138.2143259346485L225.50255859375002,138.2416504919529L225.63253125,138.16735987365246L226.28239453125,138.06810526549816L226.31609114583333,138.01865203678608L226.40273958333336,138.07760028541088L226.89856119791665,138.2669969201088L227.01409244791668,138.24039767682552L227.06223046875002,138.2518602758646L227.12962369791666,138.33325105905533L227.42807942708333,138.15976122021675L227.885390625,138.13519549369812L228.2031015625,137.95803160965443L228.26568098958333,137.96671955287457L228.41972265625,137.9703856855631L228.50637109375,137.99326340854168L228.55450911458334,138.01365660130978L228.65559895833331,138.05540303885937L229.18030338541666,137.96655866503716L229.51726953124998,138.03012254834175L229.98902213541666,137.97800807654858L230.55223697916668,137.8685885220766L230.73516145833332,137.81238327920437L230.89401692708333,137.7383854240179L230.9758515625,137.72533504664898L231.16358984375,137.76344700157642L232.32852994791668,137.58696886897087L232.40555078124999,137.5186469256878L233.09873828125,137.4606771916151L233.34905598958332,137.46596275269985L233.56086328125,137.42138627171516L233.72934635416667,137.38471966981888L233.87376041666667,137.39879076182842L233.98929166666667,137.3871303498745L234.10482291666668,137.3761214017868L234.14333333333332,137.34718796610832L234.19628515624998,137.33481015264988L234.20109895833332,137.34307873249054L234.48992708333333,137.35359974205494L234.61989973958333,137.32888367772102L234.63915494791667,137.33419033885002L234.71136197916667,137.32672092318535L234.83652083333334,137.3130111694336L234.88947265625,137.3138287961483L234.94242447916668,137.32144063711166L235.10127994791665,137.29748417437077L235.510453125,137.30185452103615L235.76558463541667,137.32347942888737L235.78483984375,137.33728677034378L235.84741927083334,137.28847973048687L236.2325234375,137.3414830416441L236.25177864583333,137.34520456194878L236.38175130208333,137.35056133568287L236.42507552083333,137.36433438956738L236.84387630208332,137.445084258914L236.87757291666668,137.44215662777424L237.08938020833332,137.4277162849903L237.34451171875,137.4244985282421L237.51299479166667,137.4343205988407L237.53225,137.44851829111576L237.82589192708335,137.43034587800503L238.29283072916667,137.3424615561962L238.47575520833334,137.38014359772205L238.69719010416668,137.38962543010712L238.70200390625,137.38615183532238L238.7164453125,137.39969278872013L238.98601822916666,137.4135291427374L239.39037760416667,137.47393065690994L239.50590885416668,137.45203672349453L239.74178515625,137.40058690309525L239.8091783854167,137.37810480594635L240.52162109374999,137.31070862710476L240.66603515625002,137.34235605597496L240.9500494791667,137.3162210136652L241.19555338541664,147.24490486085415L242.18719661458334,139.87607310712337L242.23052083333334,139.78887981176376L242.32679687499999,140.81531256437302L242.47602473958335,140.67306661605835L242.48565234375002,140.7334681302309L243.135515625,141.42901526391506L243.30881250000002,141.12937089800835L243.52061979166666,141.23101244866848L243.8046341145833,141.3350963294506L243.86239973958334,141.21770359575748L244.406359375,140.8932112902403L244.58447005208333,140.85748627781868L244.73369791666667,140.7131092250347L244.90218098958334,140.34968470036983L245.62425130208334,140.85861513018608L245.66757552083334,140.84754551947117L245.7975481770833,140.92232671380043L245.94196223958335,140.76819616556168L246.10563151041666,140.72574551403522L246.32225260416666,140.83292055130005L246.36076302083333,140.85753639042377L246.49554947916667,140.58709712326527L247.03950911458332,140.7936797440052L247.1165299479167,140.78967601060867L247.22724739583333,140.90514336526394L247.41498567708334,140.80156588554382L247.4968203125,140.88571813702583L247.91080729166666,140.78994503617287L247.9541315104167,140.81261439621449L248.11780078125,140.87768429517746L248.67138802083332,140.99969002604485L248.85912630208335,140.96284671127796L249.10944401041667,140.94152511656284L250.49581901041665,140.580126196146L250.59690885416668,140.54118870198727L251.27565494791668,140.47650124132633L251.48264843750002,140.43660633265972L251.7377799479167,140.44253017008305L251.7714765625,140.42856721580029L251.86775260416667,140.42424961924553L251.9929114583333,140.40411226451397L252.42615364583332,140.55654953420162L252.67647135416667,140.49740083515644L252.96529947916667,140.5423201918602L252.99899609375,140.52280792593956L253.13859635416665,140.46273873746395L253.39372786458333,140.51179106533527L253.41298307291666,140.52867637574673L253.47556250000002,140.52655582129955L253.54295572916666,140.51913388073444L253.65848697916667,140.4796820729971L253.71625260416664,140.49397207796574L253.87029427083334,140.48263344168663L253.90399088541668,140.4354326426983L253.97138411458332,140.4345411658287L254.51534375,140.25230799615383L254.56829557291667,140.27618797123432L254.59717838541664,140.30777209997177L254.79454427083334,140.23217064142227L254.81379947916665,140.24320332705975L254.88119270833332,140.27887822687626L254.99191015625001,140.1830049008131L255.50217317708334,140.17959988117218L255.70916666666665,140.17665114998817L255.92097395833332,140.23979039490223L256.0076223958333,140.24728354811668L256.08464322916666,140.27757793664932L256.22905729166666,140.30896688997746L256.5612096354167,140.27462656795979L257.1629348958333,140.16511733829975L257.36992838541664,140.20630989968777L257.3795559895833,140.17317755520344L257.5576666666667,140.12603214383125L257.56248046875004,140.1136358678341L257.6106184895833,140.09653955698013L257.64912890625,140.13298988342285L257.7694739583333,140.13662964105606L258.16901953125,140.01010586321354L258.19308854166667,140.00862358510494L258.26529557291667,140.00252303481102L259.1991731770833,139.93331488966942L259.86347786458333,139.92227165400982L260.88400390625,139.65857385098934L261.25948046875,139.65136554837227L261.51942578125,139.600590929389L261.63977083333333,139.56999850273132L262.24630989583335,139.56973738968372L262.6362278645833,139.63154733181L262.87210416666665,139.57716988027096L262.92986979166665,139.5704521536827L263.02133203125,139.5558271855116L263.30534635416666,139.48744985461235L263.86374739583334,139.5302460193634L264.2440377604167,139.42140671610832L264.44621744791664,139.45436234772205L264.79281119791665,139.45611365139484L265.0335013020833,139.37269726395607L265.21161197916666,139.36013746261597L265.2886328125,139.3907087892294" style="fill: none;" fill="none"></path></g></g></g></g></g></g><g transform="translate(41, 177)" clip-path="url(#clip_1)"><clipPath id="clip_1"><rect width="288" height="23"></rect></clipPath><g><g><line x1="0" y1="0" x2="0" y2="5" style="visibility: inherit;" fill="rgb(0, 0, 0)" stroke="rgb(204, 204, 204)" stroke-width="1px"></line><line x1="24.069010416666664" y1="0" x2="24.069010416666664" y2="5" style="visibility: inherit;" fill="rgb(0, 0, 0)" stroke="rgb(204, 204, 204)" stroke-width="1px"></line><line x1="48.13802083333333" y1="0" x2="48.13802083333333" y2="5" style="visibility: inherit;" fill="rgb(0, 0, 0)" stroke="rgb(204, 204, 204)" stroke-width="1px"></line><line x1="72.20703125" y1="0" x2="72.20703125" y2="5" style="visibility: inherit;" fill="rgb(0, 0, 0)" stroke="rgb(204, 204, 204)" stroke-width="1px"></line><line x1="96.27604166666666" y1="0" x2="96.27604166666666" y2="5" style="visibility: inherit;" fill="rgb(0, 0, 0)" stroke="rgb(204, 204, 204)" stroke-width="1px"></line><line x1="120.34505208333334" y1="0" x2="120.34505208333334" y2="5" style="visibility: inherit;" fill="rgb(0, 0, 0)" stroke="rgb(204, 204, 204)" stroke-width="1px"></line><line x1="144.4140625" y1="0" x2="144.4140625" y2="5" style="visibility: inherit;" fill="rgb(0, 0, 0)" stroke="rgb(204, 204, 204)" stroke-width="1px"></line><line x1="168.48307291666669" y1="0" x2="168.48307291666669" y2="5" style="visibility: inherit;" fill="rgb(0, 0, 0)" stroke="rgb(204, 204, 204)" stroke-width="1px"></line><line x1="192.55208333333331" y1="0" x2="192.55208333333331" y2="5" style="visibility: inherit;" fill="rgb(0, 0, 0)" stroke="rgb(204, 204, 204)" stroke-width="1px"></line><line x1="216.62109375" y1="0" x2="216.62109375" y2="5" style="visibility: inherit;" fill="rgb(0, 0, 0)" stroke="rgb(204, 204, 204)" stroke-width="1px"></line><line x1="240.69010416666669" y1="0" x2="240.69010416666669" y2="5" style="visibility: inherit;" fill="rgb(0, 0, 0)" stroke="rgb(204, 204, 204)" stroke-width="1px"></line><line x1="264.7591145833333" y1="0" x2="264.7591145833333" y2="5" style="visibility: inherit;" fill="rgb(0, 0, 0)" stroke="rgb(204, 204, 204)" stroke-width="1px"></line><line x1="288.828125" y1="0" x2="288.828125" y2="5" style="visibility: inherit;" fill="rgb(0, 0, 0)" stroke="rgb(204, 204, 204)" stroke-width="1px"></line></g><g transform="translate(0, 8)"><text x="0" y="0" dx="0em" dy="0.95em" style="text-anchor: middle; visibility: hidden; font-family: Roboto, sans-serif; font-size: 12px; font-weight: 200;" fill="rgb(33, 33, 33)" stroke="none" stroke-width="1px">-5k</text><text x="24.069010416666664" y="0" dx="0em" dy="0.95em" style="text-anchor: middle; visibility: inherit; font-family: Roboto, sans-serif; font-size: 12px; font-weight: 200;" fill="rgb(33, 33, 33)" stroke="none" stroke-width="1px">0</text><text x="48.13802083333333" y="0" dx="0em" dy="0.95em" style="text-anchor: middle; visibility: hidden; font-family: Roboto, sans-serif; font-size: 12px; font-weight: 200;" fill="rgb(33, 33, 33)" stroke="none" stroke-width="1px">5k</text><text x="72.20703125" y="0" dx="0em" dy="0.95em" style="text-anchor: middle; visibility: inherit; font-family: Roboto, sans-serif; font-size: 12px; font-weight: 200;" fill="rgb(33, 33, 33)" stroke="none" stroke-width="1px">10k</text><text x="96.27604166666666" y="0" dx="0em" dy="0.95em" style="text-anchor: middle; visibility: hidden; font-family: Roboto, sans-serif; font-size: 12px; font-weight: 200;" fill="rgb(33, 33, 33)" stroke="none" stroke-width="1px">15k</text><text x="120.34505208333334" y="0" dx="0em" dy="0.95em" style="text-anchor: middle; visibility: inherit; font-family: Roboto, sans-serif; font-size: 12px; font-weight: 200;" fill="rgb(33, 33, 33)" stroke="none" stroke-width="1px">20k</text><text x="144.4140625" y="0" dx="0em" dy="0.95em" style="text-anchor: middle; visibility: hidden; font-family: Roboto, sans-serif; font-size: 12px; font-weight: 200;" fill="rgb(33, 33, 33)" stroke="none" stroke-width="1px">25k</text><text x="168.48307291666669" y="0" dx="0em" dy="0.95em" style="text-anchor: middle; visibility: inherit; font-family: Roboto, sans-serif; font-size: 12px; font-weight: 200;" fill="rgb(33, 33, 33)" stroke="none" stroke-width="1px">30k</text><text x="192.55208333333331" y="0" dx="0em" dy="0.95em" style="text-anchor: middle; visibility: hidden; font-family: Roboto, sans-serif; font-size: 12px; font-weight: 200;" fill="rgb(33, 33, 33)" stroke="none" stroke-width="1px">35k</text><text x="216.62109375" y="0" dx="0em" dy="0.95em" style="text-anchor: middle; visibility: inherit; font-family: Roboto, sans-serif; font-size: 12px; font-weight: 200;" fill="rgb(33, 33, 33)" stroke="none" stroke-width="1px">40k</text><text x="240.69010416666669" y="0" dx="0em" dy="0.95em" style="text-anchor: middle; visibility: hidden; font-family: Roboto, sans-serif; font-size: 12px; font-weight: 200;" fill="rgb(33, 33, 33)" stroke="none" stroke-width="1px">45k</text><text x="264.7591145833333" y="0" dx="0em" dy="0.95em" style="text-anchor: middle; visibility: inherit; font-family: Roboto, sans-serif; font-size: 12px; font-weight: 200;" fill="rgb(33, 33, 33)" stroke="none" stroke-width="1px">50k</text><text x="288.828125" y="0" dx="0em" dy="0.95em" style="text-anchor: middle; visibility: hidden; font-family: Roboto, sans-serif; font-size: 12px; font-weight: 200;" fill="rgb(33, 33, 33)" stroke="none" stroke-width="1px">55k</text></g><line x1="0" y1="0" x2="288.828125" y2="0" fill="rgb(0, 0, 0)" stroke="rgb(204, 204, 204)" stroke-width="1px"></line></g></g></g></g></svg>