<svg viewBox="0 0 330 200" xmlns="http://www.w3.org/2000/svg"><g><g><g><g><g><line x1="61.953125" y1="177" x2="56.953125" y2="177" style="visibility: inherit;" fill="rgb(0, 0, 0)" stroke="rgb(204, 204, 204)" stroke-width="1px"></line><line x1="61.953125" y1="163.3846153846154" x2="56.953125" y2="163.3846153846154" style="visibility: inherit;" fill="rgb(0, 0, 0)" stroke="rgb(204, 204, 204)" stroke-width="1px"></line><line x1="61.953125" y1="149.76923076923077" x2="56.953125" y2="149.76923076923077" style="visibility: inherit;" fill="rgb(0, 0, 0)" stroke="rgb(204, 204, 204)" stroke-width="1px"></line><line x1="61.953125" y1="136.15384615384613" x2="56.953125" y2="136.15384615384613" style="visibility: inherit;" fill="rgb(0, 0, 0)" stroke="rgb(204, 204, 204)" stroke-width="1px"></line><line x1="61.953125" y1="122.53846153846153" x2="56.953125" y2="122.53846153846153" style="visibility: inherit;" fill="rgb(0, 0, 0)" stroke="rgb(204, 204, 204)" stroke-width="1px"></line><line x1="61.953125" y1="108.92307692307693" x2="56.953125" y2="108.92307692307693" style="visibility: inherit;" fill="rgb(0, 0, 0)" stroke="rgb(204, 204, 204)" stroke-width="1px"></line><line x1="61.953125" y1="95.30769230769232" x2="56.953125" y2="95.30769230769232" style="visibility: inherit;" fill="rgb(0, 0, 0)" stroke="rgb(204, 204, 204)" stroke-width="1px"></line><line x1="61.953125" y1="81.6923076923077" x2="56.953125" y2="81.6923076923077" style="visibility: inherit;" fill="rgb(0, 0, 0)" stroke="rgb(204, 204, 204)" stroke-width="1px"></line><line x1="61.953125" y1="68.0769230769231" x2="56.953125" y2="68.0769230769231" style="visibility: inherit;" fill="rgb(0, 0, 0)" stroke="rgb(204, 204, 204)" stroke-width="1px"></line><line x1="61.953125" y1="54.46153846153847" x2="56.953125" y2="54.46153846153847" style="visibility: inherit;" fill="rgb(0, 0, 0)" stroke="rgb(204, 204, 204)" stroke-width="1px"></line><line x1="61.953125" y1="40.84615384615386" x2="56.953125" y2="40.84615384615386" style="visibility: inherit;" fill="rgb(0, 0, 0)" stroke="rgb(204, 204, 204)" stroke-width="1px"></line><line x1="61.953125" y1="27.230769230769234" x2="56.953125" y2="27.230769230769234" style="visibility: inherit;" fill="rgb(0, 0, 0)" stroke="rgb(204, 204, 204)" stroke-width="1px"></line><line x1="61.953125" y1="13.615384615384606" x2="56.953125" y2="13.615384615384606" style="visibility: inherit;" fill="rgb(0, 0, 0)" stroke="rgb(204, 204, 204)" stroke-width="1px"></line><line x1="61.953125" y1="0" x2="56.953125" y2="0" style="visibility: inherit;" fill="rgb(0, 0, 0)" stroke="rgb(204, 204, 204)" stroke-width="1px"></line></g><g transform="translate(51.953125, 0)"><text x="0" y="177" dx="0em" dy="0.3em" style="text-anchor: end; visibility: hidden; font-family: Roboto, sans-serif; font-size: 12px; font-weight: 200;" fill="rgb(33, 33, 33)" stroke="none" stroke-width="1px">-0.05</text><text x="0" y="163.3846153846154" dx="0em" dy="0.3em" style="text-anchor: end; visibility: inherit; font-family: Roboto, sans-serif; font-size: 12px; font-weight: 200;" fill="rgb(33, 33, 33)" stroke="none" stroke-width="1px">0</text><text x="0" y="149.76923076923077" dx="0em" dy="0.3em" style="text-anchor: end; visibility: hidden; font-family: Roboto, sans-serif; font-size: 12px; font-weight: 200;" fill="rgb(33, 33, 33)" stroke="none" stroke-width="1px">0.05</text><text x="0" y="136.15384615384613" dx="0em" dy="0.3em" style="text-anchor: end; visibility: inherit; font-family: Roboto, sans-serif; font-size: 12px; font-weight: 200;" fill="rgb(33, 33, 33)" stroke="none" stroke-width="1px">0.1</text><text x="0" y="122.53846153846153" dx="0em" dy="0.3em" style="text-anchor: end; visibility: hidden; font-family: Roboto, sans-serif; font-size: 12px; font-weight: 200;" fill="rgb(33, 33, 33)" stroke="none" stroke-width="1px">0.15</text><text x="0" y="108.92307692307693" dx="0em" dy="0.3em" style="text-anchor: end; visibility: inherit; font-family: Roboto, sans-serif; font-size: 12px; font-weight: 200;" fill="rgb(33, 33, 33)" stroke="none" stroke-width="1px">0.2</text><text x="0" y="95.30769230769232" dx="0em" dy="0.3em" style="text-anchor: end; visibility: hidden; font-family: Roboto, sans-serif; font-size: 12px; font-weight: 200;" fill="rgb(33, 33, 33)" stroke="none" stroke-width="1px">0.25</text><text x="0" y="81.6923076923077" dx="0em" dy="0.3em" style="text-anchor: end; visibility: inherit; font-family: Roboto, sans-serif; font-size: 12px; font-weight: 200;" fill="rgb(33, 33, 33)" stroke="none" stroke-width="1px">0.3</text><text x="0" y="68.0769230769231" dx="0em" dy="0.3em" style="text-anchor: end; visibility: hidden; font-family: Roboto, sans-serif; font-size: 12px; font-weight: 200;" fill="rgb(33, 33, 33)" stroke="none" stroke-width="1px">0.35</text><text x="0" y="54.46153846153847" dx="0em" dy="0.3em" style="text-anchor: end; visibility: inherit; font-family: Roboto, sans-serif; font-size: 12px; font-weight: 200;" fill="rgb(33, 33, 33)" stroke="none" stroke-width="1px">0.4</text><text x="0" y="40.84615384615386" dx="0em" dy="0.3em" style="text-anchor: end; visibility: hidden; font-family: Roboto, sans-serif; font-size: 12px; font-weight: 200;" fill="rgb(33, 33, 33)" stroke="none" stroke-width="1px">0.45</text><text x="0" y="27.230769230769234" dx="0em" dy="0.3em" style="text-anchor: end; visibility: inherit; font-family: Roboto, sans-serif; font-size: 12px; font-weight: 200;" fill="rgb(33, 33, 33)" stroke="none" stroke-width="1px">0.5</text><text x="0" y="13.615384615384606" dx="0em" dy="0.3em" style="text-anchor: end; visibility: hidden; font-family: Roboto, sans-serif; font-size: 12px; font-weight: 200;" fill="rgb(33, 33, 33)" stroke="none" stroke-width="1px">0.55</text><text x="0" y="0" dx="0em" dy="0.3em" style="text-anchor: end; visibility: hidden; font-family: Roboto, sans-serif; font-size: 12px; font-weight: 200;" fill="rgb(33, 33, 33)" stroke="none" stroke-width="1px">0.6</text></g><line x1="61.953125" y1="0" x2="61.953125" y2="177" fill="rgb(0, 0, 0)" stroke="rgb(204, 204, 204)" stroke-width="1px"></line></g></g><g transform="translate(61, 0)" clip-path="url(#clip_0)"><clipPath id="clip_0"><rect width="268" height="177"></rect></clipPath><g><g><g><line x1="0" y1="0" x2="0" y2="177" fill="rgb(0, 0, 0)" stroke="rgb(66, 66, 66)" stroke-width="1px" opacity="0.25"></line><line x1="22.337239583333332" y1="0" x2="22.337239583333332" y2="177" fill="rgb(0, 0, 0)" stroke="rgb(66, 66, 66)" stroke-width="1px" opacity="0.25"></line><line x1="44.674479166666664" y1="0" x2="44.674479166666664" y2="177" fill="rgb(0, 0, 0)" stroke="rgb(66, 66, 66)" stroke-width="1px" opacity="0.25"></line><line x1="67.01171875" y1="0" x2="67.01171875" y2="177" fill="rgb(0, 0, 0)" stroke="rgb(66, 66, 66)" stroke-width="1px" opacity="0.25"></line><line x1="89.34895833333333" y1="0" x2="89.34895833333333" y2="177" fill="rgb(0, 0, 0)" stroke="rgb(66, 66, 66)" stroke-width="1px" opacity="0.25"></line><line x1="111.68619791666667" y1="0" x2="111.68619791666667" y2="177" fill="rgb(0, 0, 0)" stroke="rgb(66, 66, 66)" stroke-width="1px" opacity="0.25"></line><line x1="134.0234375" y1="0" x2="134.0234375" y2="177" fill="rgb(0, 0, 0)" stroke="rgb(66, 66, 66)" stroke-width="1px" opacity="0.25"></line><line x1="156.36067708333334" y1="0" x2="156.36067708333334" y2="177" fill="rgb(0, 0, 0)" stroke="rgb(66, 66, 66)" stroke-width="1px" opacity="0.25"></line><line x1="178.69791666666666" y1="0" x2="178.69791666666666" y2="177" fill="rgb(0, 0, 0)" stroke="rgb(66, 66, 66)" stroke-width="1px" opacity="0.25"></line><line x1="201.03515625" y1="0" x2="201.03515625" y2="177" fill="rgb(0, 0, 0)" stroke="rgb(66, 66, 66)" stroke-width="1px" opacity="0.25"></line><line x1="223.37239583333334" y1="0" x2="223.37239583333334" y2="177" fill="rgb(0, 0, 0)" stroke="rgb(66, 66, 66)" stroke-width="1px" opacity="0.25"></line><line x1="245.70963541666666" y1="0" x2="245.70963541666666" y2="177" fill="rgb(0, 0, 0)" stroke="rgb(66, 66, 66)" stroke-width="1px" opacity="0.25"></line><line x1="268.046875" y1="0" x2="268.046875" y2="177" fill="rgb(0, 0, 0)" stroke="rgb(66, 66, 66)" stroke-width="1px" opacity="0.25"></line></g><g><line x1="0" y1="177" x2="268.046875" y2="177" fill="rgb(0, 0, 0)" stroke="rgb(66, 66, 66)" stroke-width="1px" opacity="0.25"></line><line x1="0" y1="163.3846153846154" x2="268.046875" y2="163.3846153846154" fill="rgb(0, 0, 0)" stroke="rgb(66, 66, 66)" stroke-width="1px" opacity="0.25"></line><line x1="0" y1="149.76923076923077" x2="268.046875" y2="149.76923076923077" fill="rgb(0, 0, 0)" stroke="rgb(66, 66, 66)" stroke-width="1px" opacity="0.25"></line><line x1="0" y1="136.15384615384613" x2="268.046875" y2="136.15384615384613" fill="rgb(0, 0, 0)" stroke="rgb(66, 66, 66)" stroke-width="1px" opacity="0.25"></line><line x1="0" y1="122.53846153846153" x2="268.046875" y2="122.53846153846153" fill="rgb(0, 0, 0)" stroke="rgb(66, 66, 66)" stroke-width="1px" opacity="0.25"></line><line x1="0" y1="108.92307692307693" x2="268.046875" y2="108.92307692307693" fill="rgb(0, 0, 0)" stroke="rgb(66, 66, 66)" stroke-width="1px" opacity="0.25"></line><line x1="0" y1="95.30769230769232" x2="268.046875" y2="95.30769230769232" fill="rgb(0, 0, 0)" stroke="rgb(66, 66, 66)" stroke-width="1px" opacity="0.25"></line><line x1="0" y1="81.6923076923077" x2="268.046875" y2="81.6923076923077" fill="rgb(0, 0, 0)" stroke="rgb(66, 66, 66)" stroke-width="1px" opacity="0.25"></line><line x1="0" y1="68.0769230769231" x2="268.046875" y2="68.0769230769231" fill="rgb(0, 0, 0)" stroke="rgb(66, 66, 66)" stroke-width="1px" opacity="0.25"></line><line x1="0" y1="54.46153846153847" x2="268.046875" y2="54.46153846153847" fill="rgb(0, 0, 0)" stroke="rgb(66, 66, 66)" stroke-width="1px" opacity="0.25"></line><line x1="0" y1="40.84615384615386" x2="268.046875" y2="40.84615384615386" fill="rgb(0, 0, 0)" stroke="rgb(66, 66, 66)" stroke-width="1px" opacity="0.25"></line><line x1="0" y1="27.230769230769234" x2="268.046875" y2="27.230769230769234" fill="rgb(0, 0, 0)" stroke="rgb(66, 66, 66)" stroke-width="1px" opacity="0.25"></line><line x1="0" y1="13.615384615384606" x2="268.046875" y2="13.615384615384606" fill="rgb(0, 0, 0)" stroke="rgb(66, 66, 66)" stroke-width="1px" opacity="0.25"></line><line x1="0" y1="0" x2="268.046875" y2="0" fill="rgb(0, 0, 0)" stroke="rgb(66, 66, 66)" stroke-width="1px" opacity="0.25"></line></g></g></g><g><g><line x1="0" y1="163.3846153846154" x2="268.046875" y2="163.3846153846154" fill="rgb(0, 0, 0)" stroke="rgb(153, 153, 153)" stroke-width="1.5px"></line></g></g><g><g><line x1="22.337239583333332" y1="0" x2="22.337239583333332" y2="177" fill="rgb(0, 0, 0)" stroke="rgb(153, 153, 153)" stroke-width="1.5px"></line></g></g><g><g><g><g><g><path stroke="rgb(255, 112, 67)" stroke-width="2px" d="M22.52933984375,16.81418053920452L22.5427421875,20.595243545678944L22.658895833333332,42.32051456891574L22.761647135416666,48.915869015913756L23.087770833333334,65.76428681153519L23.364752604166668,76.11139954970434L23.387089843749997,76.44960891283476L23.48090625,77.41405947391803L23.5613203125,78.45620689025291L23.717680989583332,81.74777321632092L23.726615885416663,81.88878643512726L23.762355468750002,82.37228583372557L24.45927734375,88.00803461441627L24.736259114583333,90.70376815245703L24.928359375,91.66495632208311L24.959631510416667,91.80644023418427L25.174069010416666,93.56785569741176L25.232145833333334,94.09117737183205L25.33936458333333,94.5203116948788L25.53146484375,94.80605498644023L25.567204427083333,95.01878400949332L25.84865364583333,95.63697472902446L25.924600260416668,95.84543910851845L25.951404947916664,95.9610795241136L26.076493489583335,96.47650491274321L26.679598958333333,98.86503803730011L26.871699218750003,99.52220703088321L27.104006510416664,100.29285774322656L27.273769531249997,100.96307224493759L27.61329557291667,101.39584226791675L27.975158854166665,102.13438033599121L28.220868489583335,102.47451304930908L28.234270833333333,102.43633414231815L28.29681510416667,102.68547697250659L28.31468489583333,102.751978631203L28.529122395833333,103.10542060320194L28.56039453125,103.21180946093338L28.75696223958333,103.5898695037915L28.890985677083332,103.9332930124723L29.145630208333333,104.37617888358923L29.275186197916668,104.55005136361488L29.346665364583334,104.47416018522703L29.41814453125,104.55479481587044L29.89616145833333,105.21346921645679L30.08826171875,105.62551656136147L30.1016640625,105.61783939141495L30.57968098958333,106.52747852985675L30.677964843749997,106.70193531880012L30.727106770833334,106.78457851134814L30.9058046875,107.17969712844261L30.98175130208333,107.21826557471202L31.039828125,107.33470535736816L31.437430989583333,107.96308902135262L31.705477864583333,108.22526518656657L32.112015625,108.41105107619212L32.165625,108.38564175367355L32.30858333333334,108.63642795269305L32.335388020833335,108.6160339483848L32.447074218750004,108.74776720542175L32.648109375000004,109.02892529505951L33.01444010416667,109.23914665900745L33.22441015625,109.60228247825916L33.30035677083333,109.57763194579346L33.30929166666667,109.59060035760588L33.33162890625,109.64210069638031L33.443315104166665,109.78856340738443L33.44778255208333,109.80576805885023L33.50139192708333,109.80209178190964L33.52372916666666,109.84890547624L33.65328515625,109.79867114012058L33.720296874999995,109.7083183160195L34.3368046875,110.4124511388632L34.582514322916666,110.57216630073694L35.596625,111.29118277017886L35.91381380208334,111.48922291627296L35.927216145833334,111.50523866139926L36.186328125,111.5649842482347L36.46330989583333,111.62547239431969L36.77156380208333,111.94666376022192L36.83410807291666,112.03384346228378L36.84304296875,112.0449899664292L36.847510416666665,112.05343809953102L37.106622395833334,112.20526914871657L37.88842578125,112.74869267298625L38.50493359375,113.01706494734839L38.51386848958333,113.02412128906983L38.73724088541666,113.26297784768619L39.0544296875,113.27765455154272L39.28673697916667,113.38534998893738L39.38055338541667,113.42358164603895L39.41182552083333,113.43375835968898L39.88984244791667,113.61834316987259L40.014930989583334,113.59961688060028L40.14001953125,113.5091058061673L40.37232682291667,113.57524227179015L40.64930859375,113.767954656711L41.08711848958333,113.75694611439339L41.225609375,113.79679273642027L41.247946614583334,113.82375210065109L41.6276796875,114.03225705715326L41.63661458333333,114.03872908995703L41.998477864583336,114.24624802516058L42.40948307291667,114.44043335547813L42.4854296875,114.43318224411743L42.57924609375,114.45732150628017L43.177884114583335,114.62425126020725L43.19575390625,114.63786484644965L43.231493489583336,114.62970886780666L43.73184765625,114.8136971959701L43.79439192708333,114.79181807316267L43.96415494791667,114.7865795814074L44.01776432291667,114.76130416301581L44.20539713541666,114.7653334599275L44.549390624999994,114.92530019925192L44.90231901041667,131.24409876878445L44.91125390625,132.0088211802336L45.152496093749996,131.13030257821083L45.277584635416666,131.38479345807662L45.74666666666666,127.68586440269763L46.220216145833334,125.1834803086061L46.28276041666667,125.4902303172992L46.55527473958333,124.87487593063942L47.13157552083334,125.94877485587047L47.712343749999995,125.46718663435715L47.90891145833333,126.06067001361114L48.28864453125,126.36020137255008L48.37799348958333,126.6997132576429L48.538821614583334,126.65285087090271L48.57009375,126.61918412722075L48.730921875,126.3631472633435L48.82473828125,126.36141868279532L49.10172005208334,126.99012290514433L49.19106901041666,126.90681424966225L49.68695572916667,126.95129070832179L49.73163020833333,127.08006590146286L50.03988411458334,126.52160859566467L50.097960937500005,126.3906341286806L50.124765625,126.37965804796951L50.43748697916667,126.50889581900375L50.54023828125,126.36924192997125L50.82615494791666,126.37982441370303L51.46946744791667,125.75774641678885L51.71070963541666,125.89094450382086L51.840265624999994,126.00380133665526L52.0815078125,125.81616919315779L52.255738281250004,125.6842858011906L52.269140625,125.65676647424698L52.322750000000006,125.6333129635224L52.46124088541667,125.77871255691237L52.96159505208333,125.64394008196318L53.46194921875,125.38791133348758L53.57810286458333,125.47903512074397L54.08739192708334,125.49486826933348L54.12313151041666,125.54200657972923L54.306296875,125.52951291891245L54.71730208333334,125.33591189751259L55.003218749999995,125.3808022416555L55.21765625,125.41132426720398L55.32040755208333,125.27979389520792L55.624194010416666,125.332369524699L55.66886848958333,125.35834286763118L55.682270833333334,125.34629961160513L55.74928255208333,125.39135226378075L55.89670833333333,125.4448327605541L56.709783854166666,125.67843459661192L57.00910286458333,125.82536394321002L57.134191406250004,125.73874014616013L57.17886588541666,125.76725766750482L57.335226562500004,125.85901039838791L58.04108333333333,125.69222672169025L58.37614192708333,125.76462421967433L58.885430989583334,125.85434404244789L59.068596354166665,125.78309893149597L59.57341796875,125.72511844451613L59.70297395833334,125.6908592765148L59.72531119791667,125.71607382939413L59.765518229166666,125.69499813134856L60.16758854166667,125.5305029979119L60.18099088541667,125.54636860810794L60.30607942708333,125.57429370513329L60.35075390625,125.57758450049622L60.7662265625,125.69238902972296L60.91811979166667,125.72452196249596L61.186166666666665,125.7165810419963L62.00370963541667,125.59235047377074L62.119863281250005,125.60178057047037L62.133265625,125.61257405464465L62.22708203125,125.66301127580496L62.25835416666667,125.64230888623459L62.51746614583333,125.63744370295451L62.544270833333336,125.63861232078993L62.79444791666667,125.67801665342772L63.71027473958333,125.70638403984216L63.96045182291667,125.80939689049355L64.10341015625,125.90852246376184L64.492078125,125.94552463751572L64.63950390625,125.9322234942363L64.99243229166666,125.82626881049231L65.02370442708333,125.83353209495544L65.08178124999999,125.82544509722636L65.349828125,125.78077792662842L65.48385156249999,125.84010151257881L65.58660286458334,125.83229449620613L65.66701692708334,125.84466642599838L66.314796875,125.92209141529524L66.60071354166666,125.89562709056415L67.27529817708333,128.29921834285443L67.39145182291666,132.44869623734402L68.24920182291666,135.171813169351L68.28047395833333,134.8977783734982L68.78529557291667,133.23715822742537L68.79869791666667,133.0671588228299L68.89251432291667,133.0480389365783L69.15609375,132.07856088418228L69.34819401041666,132.69965083094743L69.72792708333333,132.84250015937366L69.86641796875,132.67035017334499L69.93789713541668,132.53155043033453L70.01384374999999,132.76029722736433L70.19254166666667,132.4026169868616L70.39804427083334,132.45555983827666L70.40251171874999,132.40570286833324L70.50079557291667,132.27342587938676L70.65715625,132.11856575654105L70.77330989583334,132.1083870140406L70.81351692708333,131.68554212726082L71.04582421875,131.65237853848018L71.0592265625,131.66835167774786L71.21111979166666,132.01505380868912L71.22898958333333,132.03952580231888L71.33174088541666,132.09439403277176L71.35854557291667,132.1391525016381L71.36748046875,132.1782504778642L71.57298307291667,132.22280606168968L71.93931380208333,131.85896826019655L72.0241953125,131.60851073494325L72.06440234374999,131.48908651333588L72.36818880208334,130.81954153225973L72.37712369791667,130.83738121390343L72.64517057291667,130.36648097634315L73.35549479166667,130.19007851985785L73.59226953125001,130.33608473952L73.68161848958333,130.25114691715973L73.82010937499999,130.34756600398285L73.86031640625,130.39625029839004L73.93626302083332,130.45504029668297L74.01220963541667,130.4485702927296L74.37854036458334,130.4283487407061L74.48129166666666,130.49456230264443L74.5438359375,130.46044312532132L74.87442708333333,130.63467674071973L75.38371614583333,130.74142876267433L75.81259114583334,130.8647301174127L75.83492838541666,130.87757882705102L75.99575651041665,130.9047593359764L76.13424739583334,130.91607017700488L76.56758984375,130.77392080196967L76.68374348958334,130.82388530098476L76.70161328125,130.82836094498634L76.77309244791667,130.86310500823535L76.96072526041667,130.90374491077202L77.24664192708333,130.9503962970697L77.26004427083333,130.974578165091L77.3315234375,130.90731568749135L77.7603984375,130.91531544465286L77.99717317708333,130.86837799044756L78.94873958333332,130.5997663117372L79.07382812499999,130.62111590458798L79.54737760416667,130.50491755513045L79.86903385416666,130.57713042772735L80.14601562499999,130.59619756386832L80.4944765625,130.58881051953023L80.57042317708333,130.66705719324258L80.69104427083333,130.64580498521144L80.78486067708333,130.6194238433471L80.83847005208332,130.64686607397522L80.90548177083333,130.68474876880646L81.16012630208334,130.76507095648694L81.48625,130.7233253304775L81.97766927083333,130.885034852303L82.21444401041667,130.84444972872734L82.23231380208334,130.8401932005699L82.67012369791667,130.6840609885179L82.85775651041666,130.62894320946472L83.08559635416667,130.64797991284956L83.18834765625,130.62307780293318L83.45192708333335,130.65303986576887L83.46532942708333,130.65979796648026L83.88526953125,130.5129031103391L84.03716276041666,130.51924123901588L84.19352343749999,130.5144673540042L84.36775390624999,130.51771554350853L84.77875911458334,130.58053686756355L84.87704296874999,130.53755770050563L85.24337369791667,130.38371200286426L85.87328385416667,130.30031002026337L86.16813541666667,130.30412425903174L86.19940755208333,130.31404127982947L86.23961458333333,130.3173422194444L86.31556119791667,130.25313113285947L86.39597526041666,130.16711801978258L86.65955468749999,130.14797581617648L86.88292708333333,130.08789546902364L87.09289713541668,130.11856762950237L87.37434635416668,130.1337799498668L87.70940494791667,130.08270972737898L87.73620963541666,130.08122460887984L87.87023307291666,130.09830347162026L87.91044010416667,130.0994274547467L87.95511458333333,130.10254376897444L88.36611979166666,130.1656247858818L88.40632682291667,130.15771835583908L88.42419661458332,130.17242143475093L88.50014322916667,130.19050457844367L88.78605989583333,130.12535819182028L88.87094140625,130.11294365616945L89.474046875,130.10331067442894L89.75549609375,136.00151965939082L89.96099869791666,131.67281717749742L90.15756640625,132.86397554094975L90.54176692708333,133.24099072584738L90.80087890625,132.81489764956328L91.46652864583334,134.9227778682342L91.47546354166667,134.93703865775694L91.618421875,134.88175045526947L91.75691276041667,135.14854834171442L92.0204921875,134.97795448394922L92.65933723958334,134.56499821406143L92.76655598958334,134.5863701242667L92.80676302083333,134.34475635794493L93.05247265625,134.4344011132534L93.72705729166667,134.67071755115802L93.7896015625,134.6566271850696L94.24528125,134.6281319810794L94.33909765624999,134.7477530011764L94.93326822916667,134.34131542765178L95.25492447916666,134.22169034985396L95.35320833333334,134.15092607644888L95.42915494791666,134.20266379072118L95.63465755208334,134.27175629138947L95.78655078125,134.26011677659477L96.07693489583333,134.27648351284174L96.43433072916667,134.32764706244836L96.77385677083333,134.11834273888516L96.93468489583333,133.8509869185778L97.43057161458333,133.4625797386353L97.4350390625,133.4776926453297L97.58693229166666,133.33213480160788L97.6494765625,133.43202525148024L97.837109375,133.52617608354643L98.58317317708334,133.6454643721764L98.72166406250001,133.64949366908806L98.87355729166667,133.6936921752416L99.35604166666666,133.61383256545435L99.50346744791666,133.7208747130174L99.58388151041666,133.74502411943214L99.59281640625,133.75151644074L99.70003515625,133.63160529503455L99.70450260416666,133.62779917166785L99.71790494791667,133.60367411145796L99.80278645833334,133.6535818026616L99.95914713541667,133.5730384702866L100.09763802083333,133.57820595227756L100.27186848958333,133.62040604077853L100.31654296875001,133.57038270510162L100.71414583333333,133.6044978247239L100.77669010416666,133.56742667005614L100.90624609375,133.6467486344851L100.94198567708334,133.66067872139124L101.07154166666666,133.604006842925L101.51381901041665,133.58725665395076L102.54579947916666,133.057712495327L102.67088802083333,133.03006535080763L102.71109505208332,133.0474708584639L102.83618359375,132.9824888087236L102.99254427083333,133.04071884430374L103.04615364583334,133.0426990023026L103.33207031250001,133.18238129524084L103.93517578125,133.32483499783737L104.17641796875,133.27278281175174L104.77058854166665,133.32407215008368L104.77505598958334,133.32583116338805L105.40049869791666,133.26045754551888L105.94105989583333,133.26112909500415L105.97233203124999,133.26148211497528L106.53076302083333,133.27547306739368L107.03558463541667,133.21813775484378L107.12046614583333,133.22942222081699L107.2455546875,133.24494495529396L107.34383854166667,133.25402608972328L107.43765494791667,133.2468399015757L107.74144140624999,133.29580620618967L107.97821614583333,133.3120877307195L108.237328125,133.31601558511073L108.43389583333334,133.27134029911116L109.3899296875,133.20417926403192L109.47034375,133.2268861578061L109.56862760416666,133.19205282513911L109.59543229166667,133.20031024630254L110.08238411458333,133.14290595283876L110.14492838541666,133.1535939367918L110.1940703125,133.19300841368164L110.43977994791666,133.23407640365454L110.488921875,133.18698272796777L110.5157265625,133.1947816289388L110.77930598958334,133.25222041285957L110.89992708333334,133.15470574681575L111.00267838541667,133.15416810145746L111.31539973958334,133.21249957955803L111.41368359375001,133.2239443247135L111.561109375,133.22715396606006L111.668328125,133.2031486080243L111.84702604166667,133.22311249604593L111.92744010416666,125.5685561161775L111.95424479166667,129.7210549689256L111.96764713541667,129.8409214799221L112.30717317708333,133.35722559461226L112.311640625,133.62035531951832L112.52161067708333,135.25802916746872L112.6601015625,135.03470954528223L112.78072265625,136.12040014908865L112.79412500000001,135.90181789260643L112.81646223958333,136.04066835687712L113.13365104166667,135.10299659233826L113.18279296875001,135.09909714185275L113.40169791666666,135.51728175924376L113.65634244791666,135.8198847977015L113.85737760416667,136.18243225033467L114.04054296875,136.38869735598564L114.09861979166668,136.7293149645512L114.10308723958335,136.61893941576665L114.20137109375,136.53735934083278L114.27285026041667,136.41100253737892L114.76873697916666,135.9868896190937L114.86255338541666,136.2488669569676L115.17080729166666,136.38881705815976L115.18420963541668,136.26269154365247L115.18867708333335,136.28013154176566L115.40311458333333,135.8309907248387L115.51033333333334,135.7518310684424L116.10003645833334,135.42712979133313L116.45743229166666,135.1543934597419L116.51550911458332,135.00154595650162L116.80142578125,135.3361581678574L117.09180989583334,135.43502201942297L117.19456119791666,135.40728357663522L117.56982682291667,135.47678590508607L117.58322916666665,135.46575301656355L117.60556640624999,135.50470897326102L117.90488541666667,135.34574854373932L117.98529947916666,135.3719754929726L118.32035807291668,135.3643957078457L118.49458854166667,135.51077523598303L119.2004453125,135.58441641926765L119.388078125,135.60024956785716L119.39254557291667,135.61441094370988L119.6829296875,135.4283836208857L119.709734375,135.38556067530925L119.82588802083333,135.4054535535666L119.91970442708335,135.40156221848267L119.94650911458334,135.41753130004957L120.65236588541667,135.46289639518812L121.7200859375,135.62919111893729L121.77816276041666,135.62200695964006L121.93005598958332,135.57194507580536L122.03727473958332,135.59421576674168L122.09981901041667,135.63468321699364L122.22490755208334,135.6911258353637L122.73419661458333,135.69137538396396L122.89055729166667,135.64392463060526L123.05585286458333,135.62233360455588L123.462390625,135.71165171494852L124.04315885416666,135.80488550662994L124.37821744791667,135.5972083210945L124.78028776041667,135.50598106246727L124.79369010416667,135.4894297008331L125.45040494791667,135.61174300542245L125.46827473958334,135.59658546401906L125.660375,135.6470328294314L125.70951692708333,135.66540204103177L125.75419140625,135.6142486356772L125.90608463541666,135.66119623413454L125.95075911458333,135.64143320230338L126.06691276041667,135.61482482919325L126.26794791666667,135.68953115894246L126.37069921874999,135.67748181636517L126.5985390625,135.70814586144226L126.7057578125,135.7289253473282L126.79063932291666,135.68631543104465L127.000609375,135.76830127606024L127.50543098958333,135.8289314416739L127.7243359375,135.8131997356048L128.08619921875,135.7580312352914L128.13534114583334,135.74209055763023L128.22469010416665,135.7821136896427L128.55081380208333,135.7370184316085L128.80545833333332,135.68507783229535L129.28347526041668,135.70064925918211L129.91338541666667,135.62307819265587L130.08761588541668,135.5926576096278L130.217171875,135.62331151045288L130.60583984375,135.57927125463118L130.82027734375,135.64997466252402L130.82921223958334,135.661541138704L130.99897526041667,135.67013940673607L131.1017265625,135.63705697197182L131.41891536458334,135.60007508672203L132.04882552083333,135.57117411265006L132.3347421875,135.5925419651545L132.77255208333332,135.61780926814447L132.80829166666666,135.628941570337L133.48734375,135.5720647779795L133.58562760416666,135.53695957935776L133.73305338541667,135.55383758590773L134.06364453125,135.51395038687266L134.237875,135.5446894994149L134.62207552083333,140.31260360433507L134.94819921874998,138.73056894999283L135.05988541666667,139.15306284565193L135.11796223958333,138.88602758370914L135.15816927083333,138.0325774573363L135.51109765625,137.1861572976296L135.77467708333333,137.97080910664337L136.28396614583332,137.7460490006667L136.35097786458334,138.08487107662054L136.70390625,138.3975554727591L137.09257421875,138.06474893826706L137.49017708333335,138.47041149093556L137.65547265625,138.5656294983167L137.81183333333334,138.40652502041596L138.14242447916666,138.29814586043358L138.69638802083333,137.9013717014056L138.79020442708335,137.6602874650405L138.83041145833334,137.58576778952892L138.901890625,137.57522791165573L139.18333984375,137.69910343105977L139.18780729166667,137.64546265510413L139.2503515625,137.64064210653305L139.79984765625,137.74027692125395L139.84898958333335,137.70859439327168L140.295734375,137.96808841824532L140.59505338541666,137.79821683122563L141.48854296875,137.95861368683669L142.0559088541667,137.91411085312183L142.06037630208334,137.91378420820604L142.18993229166665,138.0380370937861L142.19886718749999,138.04874942394403L142.64114453125,137.80956013386066L143.31126171875,137.66449327193774L143.59717838541664,137.71505222412256L143.62398307291667,137.6444299702461L143.65078776041668,137.65747547837404L143.66865755208335,137.66972161944096L143.673125,137.6648300611056L144.18688151041667,137.7322183274306L144.43259114583336,137.67447927364935L144.96868489583335,137.48486697215301L145.21886197916666,137.55503476353792L145.656671875,137.53964187548712L145.70134635416667,137.56408140751032L145.73261848958333,137.60104097540562L145.81303255208334,137.56105842040137L146.06767708333334,137.6002679833999L146.26424479166667,137.63599198139633L146.6484453125,137.687409137304L147.05498307291666,137.81712165933388L147.06391796875,137.81948324120964L147.20687630208334,137.82205785237826L147.28729036458333,137.83452716699014L148.55157812500002,137.7078579205733L148.6677317708333,137.71446994405525L148.86429947916668,137.61883196463953L149.11000911458333,137.57159424057375L149.38699088541668,137.5842502094232L149.44506770833334,137.58646977177034L149.85607291666668,137.55325140402869L149.98562890624999,137.52419623732567L150.159859375,137.58301463952432L151.41074479166664,137.47906648883452L151.76367317708335,137.46755276276517L151.87982682291667,137.46102797985077L151.97811067708332,137.49537033071886L152.06299218750002,137.4526204237571L152.17467838541666,137.39531351511295L152.24615755208333,137.4170587337934L152.29976692708334,137.45310734785522L152.4918671875,137.45937446676768L152.7956536458333,137.41149968367355L153.07263541666666,137.39299656794623L154.00186458333334,137.47678606097514L154.03313671875,137.42437273951677L154.07334375,137.42324266983914L154.29671614583333,137.45089184320892L154.31011848958332,137.43920363600438L154.40393489583332,137.43178615891017L154.54242578125,137.4612207206396L154.62730729166665,137.4768469264874L155.23488020833335,137.3570615695073L155.59674348958333,137.3762991290826L155.6012109375,137.36855906477342L155.75310416666665,137.37633564838995L156.36514453125,137.45688912501703L156.38748177083335,137.45819367582982L156.50363541666667,137.44232603678336L156.70913802083334,141.17702169601733L156.77614973958333,146.3389385503072L157.14248046875002,139.89586352843506L157.33458072916665,139.99715185623901L157.450734375,140.611246326795L157.6338997395833,141.3741934941365L157.826,140.29154210824234L158.415703125,140.4915056045239L158.44697526041665,140.58371888444975L158.46484505208332,140.720512094406L158.92052473958333,141.40353675759758L159.09922265625,140.63056301153625L159.51916276041666,140.30881776947243L159.58170703125,140.42324696137356L159.66212109375002,140.5073630993183L159.84975390625002,140.3661977167313L161.06489973958332,140.1360063782105L161.30167447916668,140.308393739737L161.83330078125,140.30749293015555L162.64637630208333,140.3042670580057L162.811671875,140.18838723806235L163.23161197916667,140.11337860960228L163.94193619791668,139.88825533940243L164.05808984375,139.81994394614148L164.23678776041666,139.84676331969408L164.44229036458336,139.84592946217612L164.7326744791667,139.87357660669548L164.76394661458335,139.86149480251166L164.79968619791666,139.86079282027023L165.0141236979167,139.800899127355L165.05433072916668,139.85685887932777L165.31791015625,139.74550542464624L165.37598697916667,139.73510959515204L166.02376692708333,139.69361554659332L166.07737630208334,139.663278146432L166.22480208333332,139.64702908350873L166.41243489583334,139.74486430791708L166.70281901041668,139.6735400717992L167.03341015625,139.6508757838836L167.24338020833335,139.69612726339926L167.53376432291665,139.66095917041486L167.6633203125,139.64752006530762L167.72139713541668,139.64393711548584L168.02965104166668,139.72960938169408L168.04305338541667,139.74068284722475L168.23515364583335,139.67399859199156L168.45405859374998,139.7302423830216L168.70423567708332,139.66427431198267L169.29393880208335,139.67584890356432L169.32967838541668,139.65015757083893L169.36095052083334,139.66056354458516L169.77642317708333,139.7724526157746L169.83003255208334,139.75079869536253L169.91938151041668,139.75138097542984L170.42867057291667,139.73118376961122L170.44654036458334,139.74662332122142L170.56716145833332,139.76481805168666L170.57609635416665,139.768577511494L170.97816666666668,139.6541097714351L171.29088802083334,139.50978343991133L171.4115091145833,139.49483081239921L171.44278125,139.49438446530928L171.56786979166668,139.50828006175848L172.17544270833332,139.5187773337731L172.58644791666669,139.51726786906903L172.61772005208334,139.52463868260384L173.01979036458332,139.4650087402417L173.0599973958333,139.4692510664463L173.11360677083334,139.47837074903342L173.19848828125,139.43588662147522L173.27443489583334,139.43687264277386L173.51567708333332,139.4644467486785L173.56928645833332,139.48886599219765L173.68097265625002,139.5075375025089L173.84626822916667,139.5119502521478L174.10538020833332,139.51594708745296L174.31088281249998,139.43071711063385L174.39576432291665,139.4451848428983L174.42703645833333,139.45169745271022L174.6325390625,139.39972844949136L174.86484635416667,139.4347606094984L174.87824869791666,139.40539705753326L175.034609375,139.4291893862761L175.61537760416667,139.3681635948328L175.84768489583334,139.31187922679462L175.85215234375,139.3117392361164L175.94596875,139.22031517899956L176.19167838541665,139.27914981200146L176.58034635416666,139.3200189746343L176.58481380208335,139.32067429331633L176.75457682291668,139.3436591395965L176.91093750000002,139.32930705180536L176.95114453125,139.34270557990442L177.12537500000002,139.31942655031497L177.34427994791665,139.34682414623407L177.58998958333333,139.34248443520988L177.73294791666666,139.3222973736433L178.15735546874998,139.3219971037828L178.83640755208333,139.40473768115044L179.0553125,157.34854398553188L179.21614062499998,144.40306224043553L179.49312239583332,145.213466247687L179.8371158854167,144.24419919573344L179.85051822916668,144.3365220335814L180.19004427083334,143.11036802942937L180.28386067708334,142.9519979953766L180.31960026041665,142.9164403631137L180.37767708333334,142.6242209810477L180.38661197916667,142.67912370195756L180.41341666666668,142.72641620498436L180.8512265625,142.8391573933455L180.86016145833332,142.9264162205733L181.24882942708334,143.12547687842297L181.26223177083335,142.9439982382151L181.38285286458333,143.06415284596957L182.14678645833334,143.5348542561898L182.17805859375,143.63468789825072L182.47291015624998,143.54671694452946L182.49524739583333,143.2605658540359L182.95986197916667,142.9990064593462L183.03580859374998,143.05166932940483L183.33512760416664,143.02245591236996L183.42447656250002,143.00900260530986L183.90249348958335,142.89490614487576L184.13480078125,143.03142951772762L184.20181250000002,143.0817389213122L184.26882421875,143.14708819297644L184.34030338541666,143.1180695455808L184.39838020833332,143.1648203455485L184.55474088541666,143.2224133221003L184.63962239583333,143.25677596147244L184.67089453124998,143.29891112676034L185.7118098958333,142.73083909887535L185.97985677083332,142.69915048434186L186.11388020833334,142.6702738564748L186.19876171875,142.58060881266226L186.59636458333335,142.3641791664637L186.77059505208334,142.24017785833433L186.78846484374998,142.23141525341916L186.828671875,142.22596981892218L186.8554765625,142.1694237291813L186.96716276041667,142.148230357812L187.22180729166666,142.21276606046237L187.87405468749998,142.24846368340346L188.39227864583333,142.38640522269102L188.53970442708334,142.4542073744994L189.02665625,142.41770429794605L189.0534609375,142.39814009345497L189.09366796875,142.42568376660347L189.66996875,142.26717779957332L189.82186197916667,142.22514610565628L190.96552864583333,141.96677200610822L191.05041015625,142.02143938037065L191.24251041666668,141.92128923764596L191.55076432291668,141.81752368349296L192.511265625,141.72195874269192L192.96247786458332,141.66963266180113L193.2081875,141.6122141663845L193.27519921875,141.5912317954577L193.58345312499998,141.61731672516237L193.73534635416667,141.585658543385L194.0659375,141.58007717591065L194.13741666666667,141.54949631370033L194.18655859375002,141.55007047836597L194.33845182291665,141.57658552435728L194.69584765625,141.49197840461363L194.96836197916667,141.41955656042467L194.97282942708335,141.42383540593661L195.23194140625,141.46058397338942L195.32129036458335,141.4345822265515L195.513390625,141.4221798640031L195.53572786458335,141.42701867222786L195.85738411458334,141.40332372830466L196.48729427083333,141.2893104507373L196.5900455729167,141.29164565755772L196.59451302083335,141.2946240099577L197.20208593750002,141.32779368528952L197.6309609375,141.36999580264091L197.89454036458332,141.30809354782104L197.94368229166668,141.2952306362299L199.2124375,141.20250202830022L199.39560286458334,141.22010027674528L199.70832421875,141.28208774328232L199.83341276041668,141.27869144769815L200.06125260416667,141.25837251085503L200.49459505208333,141.27648811615433L200.63308593750003,141.30205366015434L200.65542317708335,141.3099012535352L200.73136979166668,141.32828669593886L200.95920963541667,141.34308918852074L201.12897265625,141.30754981591153L202.04033203125002,141.39210621439494L202.36198828125,142.6664961370138L202.8310703125,143.49459780638034L203.21973828125,143.44059183735115L203.27334765625,143.6049550955112L203.41630598958335,143.41298932754077L203.54139453124998,143.64592975836533L203.93006250000002,144.1134458734439L203.97473697916666,144.2382019139253L204.00154166666667,144.2468265570127L204.01941145833334,144.23920619487762L204.15790234375,144.35274877915015L204.16683723958334,144.38499735639644L204.22938151041666,144.4498110115528L204.25618619791666,144.39574620586174L204.58230989583333,144.56087636947632L205.68576953125,144.25118858539142L206.07890494791667,144.2733395741536L206.19505859375,144.37053773953366L206.59712890625002,144.19178384542465L206.71775,144.23268952736487L207.03047135416665,144.19943058261504L207.3342578125,144.18737718233695L207.40573697916668,144.24333490545934L207.7005885416667,144.201420884866L207.91502604166666,144.1560679628299L207.98650520833334,144.2131293805746L208.11606119791665,144.16727533248755L208.22774739583335,144.09581110569147L208.31262890625,144.03634752906288L208.95594140625,144.0860766814305L208.99168098958333,144.10333002530612L209.27759765625,144.2178383423732L209.39821875,144.10699007144342L210.00132421875,143.92840862961916L210.03259635416666,143.9167792590765L210.11301041666667,143.97051741985175L210.57315755208333,143.99605455994606L210.68037630208335,143.95841532716383L210.72505078125,143.96028795609107L210.78759505208333,144.00506874231192L211.06457682291665,143.922123251053L211.488984375,143.8599288417743L211.78383593750002,143.6909722662889L211.84191276041668,143.69848712820274L211.98487109375,143.68565059166687L212.06528515625,143.6839524438748L212.10995963541666,143.6725929104365L212.20377604166666,143.69664087433082L212.69072786458332,143.6278303838693L213.00344921874998,143.63672080636024L213.44125911458335,143.6527974169988L213.96395052083335,143.53507540088432L214.13371354166665,143.49912417164217L214.28113932291666,143.46165739114468L214.3570859375,143.46116843819618L214.53131640625,143.49707097502855L215.61243880208335,143.38125810714868L215.68391796875,143.36347929101723L216.32723046875,143.34647346689152L216.55953776041665,143.3845286140075L216.75610546875,143.30656597935237L216.91246614583335,143.33599648338097L217.0464895833333,143.33947190413107L217.15370833333336,143.33974174123543L217.26092708333334,143.34122483088422L217.29666666666665,143.2893917606427L217.34580859374998,143.29248981521678L217.35027604166666,143.29592263010832L217.61832291666664,143.32427987227072L217.73894401041667,143.32673072356445L217.75681380208334,143.33911076875833L217.82382552083334,143.31026863134826L217.9399791666667,143.32430827617645L217.98912109375001,143.31810810932745L218.03826302083334,143.31058918971283L218.18568880208332,143.2444324355859L218.565421875,143.22919982671738L218.80219661458335,143.23187588040645L218.82006640625,143.23824444183936L218.87814322916665,143.18343910574913L219.23553906249998,143.211252616002L219.25340885416665,143.20984662266878L219.37402994791668,143.20991154588188L219.41423697916667,143.2127661384069L219.80290494791666,143.23182921684707L219.83417708333334,143.2340589234462L220.03074479166665,143.22981659724164L220.26751953125,143.21608330882515L220.42388020833334,143.24045994648566L220.44175,143.25486681323784L220.71426432291668,143.25220699035205L221.14760677083333,143.14659924002794L221.31736979166666,143.17210797621655L221.52287239583333,143.1817734195636L221.52733984375,143.18134330327695L221.5407421875,143.1890001847194L221.79091927083334,143.1890549636804L222.16618489583334,143.21910020938287L222.27340364583335,143.2189683341063L222.49230859374998,143.13010468620521L222.55485286458335,143.1167812255713L223.21603515625,143.0468142903768L223.35005859375002,143.08422020536202L223.61363802083335,143.07427680950897L223.8414778645833,152.14907412460218L224.76177213541666,144.62231807525342L224.80197916666665,144.76927176805643L224.891328125,145.5029892875598L225.02981901041667,145.26643953185814L225.03875390625,145.28779521126015L225.641859375,145.69297895523218L225.80268750000002,145.51863983961252L225.99925520833332,145.7170188037249L226.26283463541665,146.11463493567246L226.3164440104167,145.890580869638L226.821265625,145.82740449676146L226.98656119791667,145.9502026965985L227.12505208333334,145.751837934439L227.28141276041666,145.44138527375L227.95152994791667,145.8903232056361L227.99173697916666,145.9358648107602L228.11235807291666,145.89398933832462L228.24638151041668,145.89278420118185L228.39827473958331,145.8973653454047L228.59930989583333,146.07753740594936L228.63504947916667,146.07134129680122L228.76013802083335,145.81781614972996L229.26495963541666,145.91612612513396L229.33643880208334,145.92944147036624L229.43919010416667,145.95431517637695L229.61342057291668,145.8986009153036L229.6893671875,145.95115422744018L230.07356770833331,145.91061982512474L230.11377473958333,145.92132809758186L230.26566796875,145.97315102357132L230.77942447916666,145.9752285663898L230.95365494791668,145.9502513890083L231.18596223958335,145.98910387433494L232.47258723958333,145.65906469180035L232.56640364583333,145.6831410596004L233.19631380208332,145.5703795827352L233.3884140625,145.51125482412485L233.62518880208336,145.51019170651068L233.65646093750001,145.4925873715144L233.74580989583333,145.47583312483934L233.86196354166665,145.4596895621373L234.26403385416666,145.58374767807814L234.49634114583333,145.491096166464L234.76438802083334,145.5386422757919L234.79566015625,145.50489640694397L234.92521614583333,145.47371094731184L235.16199088541666,145.52660307746666L235.17986067708333,145.53745945600363L235.23793750000002,145.53502483551318L235.30048177083333,145.52041102601933L235.40770052083332,145.49740183353424L235.46130989583332,145.50480307982517L235.60426822916668,145.52986749777426L235.63554036458333,145.5280110996503L235.69808463541665,145.52926087150206L236.20290624999998,145.40738174090018L236.2520481770833,145.41303614698924L236.2788528645833,145.41488240086116L236.46201822916666,145.3222045141917L236.47988802083333,145.33933612704277L236.54243229166664,145.359020033708L236.64518359375,145.3290356535178L237.11873307291668,145.32899304765922L237.31083333333333,145.36720238740628L237.50740104166667,145.35779866576195L237.58781510416665,145.37677856133533L237.65929427083336,145.40112679509016L237.79331770833332,145.42894842074466L238.10157161458332,145.42902957476105L238.66000260416666,145.38658805306142L238.85210286458334,145.4222775606009L238.86103776041668,145.4036730023531L239.02633333333335,145.4002036681542L239.03080078125,145.39130310141124L239.07547526041668,145.3633171388736L239.11121484375,145.36139175983575L239.22290104166666,145.346009016037L239.59369921875,145.25551823010812L239.61603645833333,145.26173868546118L239.68304817708332,145.24617537397606L240.54973307291667,145.0708340062545L241.16624088541667,145.03635775125946L242.11333984375,144.8144786128631L242.46180078125,144.83319475788338L242.70304296875,144.83197947648856L242.81472916666667,144.80491055433566L243.37762760416666,144.82353742993797L243.73949088541667,144.8626313484632L243.95839583333333,144.85460115854556L244.01200520833333,144.83590530202937L244.09688671875,144.82111295369955L244.36046614583333,144.7535968697988L244.87869010416665,144.82169929146767L245.23161848958335,144.74279121252206L245.41925130208332,144.75396612057318L245.7409075520833,144.7518743758018L245.96427994791665,144.69908368816743L246.12957552083333,144.71046959666106L246.2010546875,144.73421120414366" style="fill: none;" fill="none"></path></g></g></g></g></g></g><g transform="translate(61, 177)" clip-path="url(#clip_1)"><clipPath id="clip_1"><rect width="268" height="23"></rect></clipPath><g><g><line x1="0" y1="0" x2="0" y2="5" style="visibility: inherit;" fill="rgb(0, 0, 0)" stroke="rgb(204, 204, 204)" stroke-width="1px"></line><line x1="22.337239583333332" y1="0" x2="22.337239583333332" y2="5" style="visibility: inherit;" fill="rgb(0, 0, 0)" stroke="rgb(204, 204, 204)" stroke-width="1px"></line><line x1="44.674479166666664" y1="0" x2="44.674479166666664" y2="5" style="visibility: inherit;" fill="rgb(0, 0, 0)" stroke="rgb(204, 204, 204)" stroke-width="1px"></line><line x1="67.01171875" y1="0" x2="67.01171875" y2="5" style="visibility: inherit;" fill="rgb(0, 0, 0)" stroke="rgb(204, 204, 204)" stroke-width="1px"></line><line x1="89.34895833333333" y1="0" x2="89.34895833333333" y2="5" style="visibility: inherit;" fill="rgb(0, 0, 0)" stroke="rgb(204, 204, 204)" stroke-width="1px"></line><line x1="111.68619791666667" y1="0" x2="111.68619791666667" y2="5" style="visibility: inherit;" fill="rgb(0, 0, 0)" stroke="rgb(204, 204, 204)" stroke-width="1px"></line><line x1="134.0234375" y1="0" x2="134.0234375" y2="5" style="visibility: inherit;" fill="rgb(0, 0, 0)" stroke="rgb(204, 204, 204)" stroke-width="1px"></line><line x1="156.36067708333334" y1="0" x2="156.36067708333334" y2="5" style="visibility: inherit;" fill="rgb(0, 0, 0)" stroke="rgb(204, 204, 204)" stroke-width="1px"></line><line x1="178.69791666666666" y1="0" x2="178.69791666666666" y2="5" style="visibility: inherit;" fill="rgb(0, 0, 0)" stroke="rgb(204, 204, 204)" stroke-width="1px"></line><line x1="201.03515625" y1="0" x2="201.03515625" y2="5" style="visibility: inherit;" fill="rgb(0, 0, 0)" stroke="rgb(204, 204, 204)" stroke-width="1px"></line><line x1="223.37239583333334" y1="0" x2="223.37239583333334" y2="5" style="visibility: inherit;" fill="rgb(0, 0, 0)" stroke="rgb(204, 204, 204)" stroke-width="1px"></line><line x1="245.70963541666666" y1="0" x2="245.70963541666666" y2="5" style="visibility: inherit;" fill="rgb(0, 0, 0)" stroke="rgb(204, 204, 204)" stroke-width="1px"></line><line x1="268.046875" y1="0" x2="268.046875" y2="5" style="visibility: inherit;" fill="rgb(0, 0, 0)" stroke="rgb(204, 204, 204)" stroke-width="1px"></line></g><g transform="translate(0, 8)"><text x="0" y="0" dx="0em" dy="0.95em" style="text-anchor: middle; visibility: hidden; font-family: Roboto, sans-serif; font-size: 12px; font-weight: 200;" fill="rgb(33, 33, 33)" stroke="none" stroke-width="1px">-5k</text><text x="22.337239583333332" y="0" dx="0em" dy="0.95em" style="text-anchor: middle; visibility: inherit; font-family: Roboto, sans-serif; font-size: 12px; font-weight: 200;" fill="rgb(33, 33, 33)" stroke="none" stroke-width="1px">0</text><text x="44.674479166666664" y="0" dx="0em" dy="0.95em" style="text-anchor: middle; visibility: hidden; font-family: Roboto, sans-serif; font-size: 12px; font-weight: 200;" fill="rgb(33, 33, 33)" stroke="none" stroke-width="1px">5k</text><text x="67.01171875" y="0" dx="0em" dy="0.95em" style="text-anchor: middle; visibility: inherit; font-family: Roboto, sans-serif; font-size: 12px; font-weight: 200;" fill="rgb(33, 33, 33)" stroke="none" stroke-width="1px">10k</text><text x="89.34895833333333" y="0" dx="0em" dy="0.95em" style="text-anchor: middle; visibility: hidden; font-family: Roboto, sans-serif; font-size: 12px; font-weight: 200;" fill="rgb(33, 33, 33)" stroke="none" stroke-width="1px">15k</text><text x="111.68619791666667" y="0" dx="0em" dy="0.95em" style="text-anchor: middle; visibility: inherit; font-family: Roboto, sans-serif; font-size: 12px; font-weight: 200;" fill="rgb(33, 33, 33)" stroke="none" stroke-width="1px">20k</text><text x="134.0234375" y="0" dx="0em" dy="0.95em" style="text-anchor: middle; visibility: hidden; font-family: Roboto, sans-serif; font-size: 12px; font-weight: 200;" fill="rgb(33, 33, 33)" stroke="none" stroke-width="1px">25k</text><text x="156.36067708333334" y="0" dx="0em" dy="0.95em" style="text-anchor: middle; visibility: inherit; font-family: Roboto, sans-serif; font-size: 12px; font-weight: 200;" fill="rgb(33, 33, 33)" stroke="none" stroke-width="1px">30k</text><text x="178.69791666666666" y="0" dx="0em" dy="0.95em" style="text-anchor: middle; visibility: hidden; font-family: Roboto, sans-serif; font-size: 12px; font-weight: 200;" fill="rgb(33, 33, 33)" stroke="none" stroke-width="1px">35k</text><text x="201.03515625" y="0" dx="0em" dy="0.95em" style="text-anchor: middle; visibility: inherit; font-family: Roboto, sans-serif; font-size: 12px; font-weight: 200;" fill="rgb(33, 33, 33)" stroke="none" stroke-width="1px">40k</text><text x="223.37239583333334" y="0" dx="0em" dy="0.95em" style="text-anchor: middle; visibility: hidden; font-family: Roboto, sans-serif; font-size: 12px; font-weight: 200;" fill="rgb(33, 33, 33)" stroke="none" stroke-width="1px">45k</text><text x="245.70963541666666" y="0" dx="0em" dy="0.95em" style="text-anchor: middle; visibility: inherit; font-family: Roboto, sans-serif; font-size: 12px; font-weight: 200;" fill="rgb(33, 33, 33)" stroke="none" stroke-width="1px">50k</text><text x="268.046875" y="0" dx="0em" dy="0.95em" style="text-anchor: middle; visibility: hidden; font-family: Roboto, sans-serif; font-size: 12px; font-weight: 200;" fill="rgb(33, 33, 33)" stroke="none" stroke-width="1px">55k</text></g><line x1="0" y1="0" x2="268.046875" y2="0" fill="rgb(0, 0, 0)" stroke="rgb(204, 204, 204)" stroke-width="1px"></line></g></g></g></g></svg>