<svg viewBox="0 0 330 200" xmlns="http://www.w3.org/2000/svg"><g><g><g><g><g><line x1="51.5625" y1="177" x2="46.5625" y2="177" style="visibility: inherit;" fill="rgb(0, 0, 0)" stroke="rgb(204, 204, 204)" stroke-width="1px"></line><line x1="51.5625" y1="154.875" x2="46.5625" y2="154.875" style="visibility: inherit;" fill="rgb(0, 0, 0)" stroke="rgb(204, 204, 204)" stroke-width="1px"></line><line x1="51.5625" y1="132.75" x2="46.5625" y2="132.75" style="visibility: inherit;" fill="rgb(0, 0, 0)" stroke="rgb(204, 204, 204)" stroke-width="1px"></line><line x1="51.5625" y1="110.625" x2="46.5625" y2="110.625" style="visibility: inherit;" fill="rgb(0, 0, 0)" stroke="rgb(204, 204, 204)" stroke-width="1px"></line><line x1="51.5625" y1="88.5" x2="46.5625" y2="88.5" style="visibility: inherit;" fill="rgb(0, 0, 0)" stroke="rgb(204, 204, 204)" stroke-width="1px"></line><line x1="51.5625" y1="66.375" x2="46.5625" y2="66.375" style="visibility: inherit;" fill="rgb(0, 0, 0)" stroke="rgb(204, 204, 204)" stroke-width="1px"></line><line x1="51.5625" y1="44.25000000000002" x2="46.5625" y2="44.25000000000002" style="visibility: inherit;" fill="rgb(0, 0, 0)" stroke="rgb(204, 204, 204)" stroke-width="1px"></line><line x1="51.5625" y1="22.125" x2="46.5625" y2="22.125" style="visibility: inherit;" fill="rgb(0, 0, 0)" stroke="rgb(204, 204, 204)" stroke-width="1px"></line><line x1="51.5625" y1="0" x2="46.5625" y2="0" style="visibility: inherit;" fill="rgb(0, 0, 0)" stroke="rgb(204, 204, 204)" stroke-width="1px"></line></g><g transform="translate(41.5625, 0)"><text x="0" y="177" dx="0em" dy="0.3em" style="text-anchor: end; visibility: hidden; font-family: Roboto, sans-serif; font-size: 12px; font-weight: 200;" fill="rgb(33, 33, 33)" stroke="none" stroke-width="1px">0.05</text><text x="0" y="154.875" dx="0em" dy="0.3em" style="text-anchor: end; visibility: inherit; font-family: Roboto, sans-serif; font-size: 12px; font-weight: 200;" fill="rgb(33, 33, 33)" stroke="none" stroke-width="1px">0.1</text><text x="0" y="132.75" dx="0em" dy="0.3em" style="text-anchor: end; visibility: hidden; font-family: Roboto, sans-serif; font-size: 12px; font-weight: 200;" fill="rgb(33, 33, 33)" stroke="none" stroke-width="1px">0.15</text><text x="0" y="110.625" dx="0em" dy="0.3em" style="text-anchor: end; visibility: inherit; font-family: Roboto, sans-serif; font-size: 12px; font-weight: 200;" fill="rgb(33, 33, 33)" stroke="none" stroke-width="1px">0.2</text><text x="0" y="88.5" dx="0em" dy="0.3em" style="text-anchor: end; visibility: hidden; font-family: Roboto, sans-serif; font-size: 12px; font-weight: 200;" fill="rgb(33, 33, 33)" stroke="none" stroke-width="1px">0.25</text><text x="0" y="66.375" dx="0em" dy="0.3em" style="text-anchor: end; visibility: inherit; font-family: Roboto, sans-serif; font-size: 12px; font-weight: 200;" fill="rgb(33, 33, 33)" stroke="none" stroke-width="1px">0.3</text><text x="0" y="44.25000000000002" dx="0em" dy="0.3em" style="text-anchor: end; visibility: hidden; font-family: Roboto, sans-serif; font-size: 12px; font-weight: 200;" fill="rgb(33, 33, 33)" stroke="none" stroke-width="1px">0.35</text><text x="0" y="22.125" dx="0em" dy="0.3em" style="text-anchor: end; visibility: inherit; font-family: Roboto, sans-serif; font-size: 12px; font-weight: 200;" fill="rgb(33, 33, 33)" stroke="none" stroke-width="1px">0.4</text><text x="0" y="0" dx="0em" dy="0.3em" style="text-anchor: end; visibility: hidden; font-family: Roboto, sans-serif; font-size: 12px; font-weight: 200;" fill="rgb(33, 33, 33)" stroke="none" stroke-width="1px">0.45</text></g><line x1="51.5625" y1="0" x2="51.5625" y2="177" fill="rgb(0, 0, 0)" stroke="rgb(204, 204, 204)" stroke-width="1px"></line></g></g><g transform="translate(51, 0)" clip-path="url(#clip_0)"><clipPath id="clip_0"><rect width="278" height="177"></rect></clipPath><g><g><g><line x1="0" y1="0" x2="0" y2="177" fill="rgb(0, 0, 0)" stroke="rgb(66, 66, 66)" stroke-width="1px" opacity="0.25"></line><line x1="23.203125" y1="0" x2="23.203125" y2="177" fill="rgb(0, 0, 0)" stroke="rgb(66, 66, 66)" stroke-width="1px" opacity="0.25"></line><line x1="46.40625" y1="0" x2="46.40625" y2="177" fill="rgb(0, 0, 0)" stroke="rgb(66, 66, 66)" stroke-width="1px" opacity="0.25"></line><line x1="69.609375" y1="0" x2="69.609375" y2="177" fill="rgb(0, 0, 0)" stroke="rgb(66, 66, 66)" stroke-width="1px" opacity="0.25"></line><line x1="92.8125" y1="0" x2="92.8125" y2="177" fill="rgb(0, 0, 0)" stroke="rgb(66, 66, 66)" stroke-width="1px" opacity="0.25"></line><line x1="116.015625" y1="0" x2="116.015625" y2="177" fill="rgb(0, 0, 0)" stroke="rgb(66, 66, 66)" stroke-width="1px" opacity="0.25"></line><line x1="139.21875" y1="0" x2="139.21875" y2="177" fill="rgb(0, 0, 0)" stroke="rgb(66, 66, 66)" stroke-width="1px" opacity="0.25"></line><line x1="162.421875" y1="0" x2="162.421875" y2="177" fill="rgb(0, 0, 0)" stroke="rgb(66, 66, 66)" stroke-width="1px" opacity="0.25"></line><line x1="185.625" y1="0" x2="185.625" y2="177" fill="rgb(0, 0, 0)" stroke="rgb(66, 66, 66)" stroke-width="1px" opacity="0.25"></line><line x1="208.828125" y1="0" x2="208.828125" y2="177" fill="rgb(0, 0, 0)" stroke="rgb(66, 66, 66)" stroke-width="1px" opacity="0.25"></line><line x1="232.03125" y1="0" x2="232.03125" y2="177" fill="rgb(0, 0, 0)" stroke="rgb(66, 66, 66)" stroke-width="1px" opacity="0.25"></line><line x1="255.234375" y1="0" x2="255.234375" y2="177" fill="rgb(0, 0, 0)" stroke="rgb(66, 66, 66)" stroke-width="1px" opacity="0.25"></line><line x1="278.4375" y1="0" x2="278.4375" y2="177" fill="rgb(0, 0, 0)" stroke="rgb(66, 66, 66)" stroke-width="1px" opacity="0.25"></line></g><g><line x1="0" y1="177" x2="278.4375" y2="177" fill="rgb(0, 0, 0)" stroke="rgb(66, 66, 66)" stroke-width="1px" opacity="0.25"></line><line x1="0" y1="154.875" x2="278.4375" y2="154.875" fill="rgb(0, 0, 0)" stroke="rgb(66, 66, 66)" stroke-width="1px" opacity="0.25"></line><line x1="0" y1="132.75" x2="278.4375" y2="132.75" fill="rgb(0, 0, 0)" stroke="rgb(66, 66, 66)" stroke-width="1px" opacity="0.25"></line><line x1="0" y1="110.625" x2="278.4375" y2="110.625" fill="rgb(0, 0, 0)" stroke="rgb(66, 66, 66)" stroke-width="1px" opacity="0.25"></line><line x1="0" y1="88.5" x2="278.4375" y2="88.5" fill="rgb(0, 0, 0)" stroke="rgb(66, 66, 66)" stroke-width="1px" opacity="0.25"></line><line x1="0" y1="66.375" x2="278.4375" y2="66.375" fill="rgb(0, 0, 0)" stroke="rgb(66, 66, 66)" stroke-width="1px" opacity="0.25"></line><line x1="0" y1="44.25000000000002" x2="278.4375" y2="44.25000000000002" fill="rgb(0, 0, 0)" stroke="rgb(66, 66, 66)" stroke-width="1px" opacity="0.25"></line><line x1="0" y1="22.125" x2="278.4375" y2="22.125" fill="rgb(0, 0, 0)" stroke="rgb(66, 66, 66)" stroke-width="1px" opacity="0.25"></line><line x1="0" y1="0" x2="278.4375" y2="0" fill="rgb(0, 0, 0)" stroke="rgb(66, 66, 66)" stroke-width="1px" opacity="0.25"></line></g></g></g><g><g><line x1="0" y1="199.125" x2="278.4375" y2="199.125" fill="rgb(0, 0, 0)" stroke="rgb(153, 153, 153)" stroke-width="1.5px"></line></g></g><g><g><line x1="23.203125" y1="0" x2="23.203125" y2="177" fill="rgb(0, 0, 0)" stroke="rgb(153, 153, 153)" stroke-width="1.5px"></line></g></g><g><g><g><g><g><path stroke="rgb(255, 112, 67)" stroke-width="2px" d="M23.402671875,25.71716120839119L23.416593749999997,29.10054011642933L23.53725,35.8905211687088L23.643984375,45.20448951423168L23.982750000000003,37.001069247722626L24.270468750000003,34.04785430431366L24.293671874999998,33.30928681790829L24.391125,32.21790021657944L24.474656250000002,32.95107400417328L24.637078125,31.841712802648544L24.646359375,32.091880202293396L24.683484375000003,30.968342408537865L25.407421875,26.365671068429947L25.695140624999997,26.98429799079895L25.8946875,26.95198854804039L25.927171875,27.419671028852463L26.149921875,28.61186309158802L26.21025,28.645609974861145L26.321625,29.66814449429512L26.521171875,29.254069313406944L26.558296875,28.917985171079636L26.85065625,29.28478306531906L26.929546875000003,29.946981579065323L26.957390625,30.06961239874363L27.087328125,29.57278548181057L27.7138125,30.112616926431656L27.913359375000002,30.49385516345501L28.154671875,30.779562950134277L28.331015625,31.64251519739628L28.683703125,31.416480973362923L29.059593749999998,30.424198642373085L29.314828125000002,29.857649266719818L29.32875,29.753454610705376L29.39371875,29.676980137825012L29.41228125,29.880582377314568L29.63503125,30.63763877749443L29.667515625,30.68365006148815L29.871703125,30.42169301211834L30.010921874999998,30.340022653341293L30.2754375,30.592181369662285L30.410015625,30.974659234285355L30.484265625,30.800095930695534L30.558515625000002,31.022464022040367L31.0550625,31.155882239341736L31.254609375,31.178155973553658L31.26853125,31.151596292853355L31.765078125,30.966614842414856L31.867171875,31.284051820635796L31.91821875,31.08374646306038L32.10384375,31.456887558102608L32.182734374999995,31.302778109908104L32.2430625,31.49129381775856L32.656078125,31.0643739849329L32.934515625,31.613819137215614L33.356812500000004,31.622166842222214L33.4125,31.664894431829453L33.561,31.49374669790268L33.588843749999995,31.378725081682205L33.704859375,31.607278123497963L33.9136875,31.686205476522446L34.29421875,31.957670733332634L34.512328125,32.01395510137081L34.59121875,32.119824573397636L34.6005,32.14031799137592L34.623703125,32.17041192948818L34.73971875,32.31700448691845L34.744359375,32.33170858025551L34.800046875,32.40881605446339L34.823249999999994,32.40081122517586L34.957828125,32.499704495072365L35.0274375,32.597437262535095L35.667843749999996,33.14266240596771L35.923078125,33.31792464852333L36.9765,33.72119924426079L37.305984375,33.70886890590191L37.31990625,33.75166243314743L37.589062500000004,34.03572177886963L37.87678125,34.40279661118984L38.196984375,34.65072213113308L38.261953125,34.68009075522423L38.271234375,34.641134798526764L38.275875,34.68500970304012L38.54503125,34.48817266523838L39.357140625,34.82425680756569L39.997546875,35.08687323331833L40.006828125,35.08192791044712L40.238859375,35.556758031249046L40.56834375,35.76265490055084L40.80965625,35.93559613823891L40.907109375,35.890969544649124L40.93959375,35.902258068323135L41.43614062500001,36.313603430986404L41.566078125,36.22460080683231L41.696015625,36.13724662363529L41.937328125,36.060099586844444L42.225046875000004,36.29118463397026L42.679828125,36.52605450153351L42.8236875,36.62581814825535L42.846890625,36.67292399704456L43.24134375,37.02479360997677L43.250625,37.05491392314434L43.626515625,37.493834406137466L44.053453125000004,37.725104078650475L44.132343750000004,37.61552891135216L44.229796875,37.5716540068388L44.851640625,37.74289405345917L44.870203124999996,37.76325559616089L44.907328125,37.82121478021145L45.427078124999994,38.07413837313652L45.492046875,38.134682312607765L45.668390625,38.348333448171616L45.724078125000005,38.39757567644119L45.918984374999994,38.45765805244446L46.276312499999996,38.594148963689804L46.642921875,75.47097323834896L46.652203125,71.96368432044983L46.902796875,53.235416918992996L47.032734375,58.45291717350483L47.519999999999996,58.32311233878136L48.011906249999996,56.009954050183296L48.076875,54.63082878291607L48.359953125,55.681043922901154L48.958593750000006,56.659756287932396L49.561875,57.14863112568855L49.7660625,57.48664064705372L50.160515625,58.16739401221275L50.253328124999996,59.03326070308685L50.420390625,59.66682909429073L50.452875,59.36445227265358L50.6199375,59.752231523394585L50.717390625,59.93390290439129L51.005109375,60.39259149134159L51.097921875,60.3493627756834L51.613031250000006,59.88959281146526L51.659437499999996,59.81032258272171L51.979640625,59.49859580397606L52.03996875,59.68161231279373L52.0678125,59.66591915488243L52.39265625,60.27287511527538L52.499390625,60.26430322229862L52.796390624999994,60.159778878092766L53.464640625,59.35904538631439L53.715234374999994,59.39322745800018L53.8498125,59.0011622607708L54.10040625,58.862442657351494L54.281390625,58.94213488698006L54.2953125,58.9972455650568L54.351000000000006,59.039221465587616L54.494859375000004,59.00943084061146L55.014609375,59.0636315792799L55.534359374999994,58.42803230881691L55.655015625,58.16101124882698L56.184046875,58.2685819119215L56.221171874999996,58.239661663770676L56.4114375,58.28320688009262L56.838375,58.667662873864174L57.135374999999996,58.92624391615391L57.358124999999994,58.822853699326515L57.464859375,58.80031621456146L57.780421874999995,58.92302615940571L57.826828125,58.91179038584232L57.84075,58.89814129471779L57.910359375,58.980273216962814L58.0635,58.90472187101841L58.90809375,59.250432908535004L59.219015625,59.55937711894512L59.348953125,59.45966622233391L59.395359375,59.52511592209339L59.557781250000005,59.58966886997223L60.291,60.26053158938885L60.639046875,60.581120386719704L61.168078125,60.94175970554352L61.358343749999996,60.96097393333912L61.882734375,60.970020577311516L62.0173125,61.029971078038216L62.040515625,61.08095405995846L62.08228125,61.0043872743845L62.4999375,61.156953781843185L62.513859375,61.1809287071228L62.643796875,61.12469708919525L62.690203125,61.209901705384254L63.121781250000005,61.17098531126976L63.279562500000004,61.37049941718578L63.558,61.41487544775009L64.407234375,61.6083232909441L64.527890625,61.60215152800083L64.5418125,61.62836833298206L64.639265625,61.740106254816055L64.67175,61.76255142688751L64.94090625,62.078287214040756L64.96875,62.113352850079536L65.22862500000001,62.45119093358517L66.179953125,62.68698392808437L66.439828125,62.74097366631031L66.588328125,63.03600503504276L66.9920625,63.30459541082382L67.145203125,63.26276457309723L67.5118125,63.3573587089777L67.544296875,63.39713229238987L67.604625,63.35420688986778L67.8830625,63.2749762237072L68.02228124999999,63.34812743961811L68.129015625,63.479949966073036L68.212546875,63.617654129862785L68.88543750000001,63.815387919545174L69.1824375,63.95715384185314L69.883171875,74.07301618158817L70.003828125,69.4760682284832L70.894828125,84.48753646016121L70.9273125,83.8133636713028L71.451703125,82.55392840504646L71.465625,82.57894514501095L71.563078125,83.43059568107128L71.836875,79.90496291220188L72.036421875,78.62353084981441L72.430875,77.91430561244488L72.57473437499999,77.06173194944859L72.64898437500001,77.12885646522045L72.727875,77.40152178704739L72.91350000000001,77.18098676204681L73.12696875,77.99654303491116L73.131609375,77.97185598313808L73.233703125,77.9529714435339L73.396125,77.55439160764217L73.51678125000001,77.54091395437717L73.558546875,77.39209270477295L73.799859375,77.84546671807766L73.81378125,77.94876462221146L73.9715625,78.73652158677578L73.99012499999999,78.72644631564617L74.096859375,78.87789188325405L74.124703125,78.93474331498146L74.133984375,79.0325947701931L74.347453125,79.50786007940769L74.72798437499999,79.15965659916401L74.81615624999999,78.95068703591824L74.85792187499999,79.0332013964653L75.173484375,78.92931005358696L75.182765625,78.98829786479473L75.46120312500001,78.56267040967941L76.1990625,77.24720133841038L76.44501562500001,77.84530846774578L76.53782812499999,77.88390836119652L76.6816875,77.89952239394188L76.723453125,77.81579478085041L76.80234374999999,77.79692342877388L76.881234375,77.85140110552311L77.26176562500001,78.05550447106361L77.3685,78.2890292108059L77.43346875,78.2700259834528L77.776875,78.4626561999321L78.30590625,78.27319099009037L78.75140625,77.93624965846539L78.774609375,78.02231146395206L78.941671875,77.71029455959797L79.08553125,77.9639302790165L79.535671875,77.968057975173L79.656328125,78.13499888777733L79.674890625,78.13449776172638L79.749140625,77.95629470050335L79.94404687500001,78.06888981163502L80.24104687500001,78.22926333546638L80.25496875,78.2702369838953L80.32921875,78.29953967034817L80.77471875,78.814921438694L81.02067187499999,78.44898073375225L82.009125,78.21263386309147L82.1390625,78.10905902087688L82.63096875000001,78.18265861272812L82.96509375,78.07039318978786L83.25281249999999,77.85931362211704L83.61478125000001,77.89621232450008L83.69367187499999,77.92596338689327L83.81896875,77.97611555457115L83.916421875,77.93439021706581L83.97210937499999,77.95948608219624L84.04171875,78.06600174307823L84.306234375,78.18952931463718L84.645,78.27359980344772L85.15546875,78.52980709075928L85.40142187500001,78.6252979785204L85.419984375,78.60613650083542L85.874765625,78.41668447852135L86.069671875,78.16064862906933L86.30634375,78.23419547080994L86.413078125,78.308454439044L86.686875,78.28188157081604L86.70079687500001,78.31014244258404L87.137015625,78.05245815217495L87.294796875,78.11528353393078L87.45721875,78.15818256139755L87.63820312499999,78.24225305020809L88.06514062500001,78.12090142071247L88.16723437499999,78.01545394957066L88.547765625,77.99274502694607L89.20209375,77.84025764465332L89.508375,78.09302298724651L89.540859375,78.09194160997868L89.582625,78.16316744685173L89.661515625,78.15306580066681L89.74504687499999,78.12264217436314L90.01884374999999,78.20627747476101L90.250875,78.29402728378773L90.468984375,78.26703241467476L90.76134375000001,78.22005844116211L91.109390625,78.37236119806767L91.13723437499999,78.39005886018276L91.27645312499999,78.30825662612915L91.31821875,78.33634606003761L91.364625,78.35337115824223L91.7915625,78.38325409591198L91.833328125,78.40265294909477L91.851890625,78.41735704243183L91.93078125,78.4360965192318L92.22778124999999,78.31846377253532L92.31595312500001,78.30407617986202L92.9424375,78.47548766434193L93.234796875,86.29408268630505L93.448265625,87.80979117751122L93.652453125,89.99243909865618L94.051546875,89.26461285352707L94.320703125,87.32400222122669L95.01215625,88.56276603788137L95.0214375,88.56420347839594L95.1699375,90.14310660213232L95.313796875,90.39835119992495L95.58759375,90.8494503647089L96.251203125,90.84759092330933L96.362578125,90.43951606750488L96.40434375,90.06255718320608L96.65957812500001,90.2878133431077L97.3603125,90.22668915241957L97.42528125,90.07175548374653L97.89862500000001,89.03251896053553L97.996078125,88.99044415354729L98.61328125,88.41927914321423L98.94740625,88.84915957599878L99.04950000000001,88.67194557935L99.128390625,88.80722983181477L99.341859375,88.90245696902275L99.499640625,89.01644995808601L99.80128125,88.61541724205017L100.17253125,88.5078597664833L100.52521875,88.32013531029224L100.69228125,88.48563878238201L101.207390625,87.8867140263319L101.21203125,87.9250237941742L101.3698125,87.83362103998661L101.43478125,87.90840750932693L101.6296875,87.80259078741074L102.404671875,87.42596818506718L102.54853125000001,87.43483020365238L102.7063125,87.65884673595428L103.2075,87.79109126329422L103.36064062499999,88.01161310076714L103.444171875,87.90107524394989L103.453453125,87.95950917899609L103.564828125,87.92106753587723L103.56946875,87.91825859248638L103.58339062499999,87.90967351198196L103.67156250000001,88.10003547370434L103.833984375,88.17180199921131L103.97784375,88.24548071622849L104.158828125,88.19867818057537L104.205234375,88.06445552408695L104.61824999999999,88.42645315825939L104.68321875,88.47937470674515L104.817796875,88.62259125709534L104.854921875,88.66648594290018L104.98949999999999,88.64701455831528L105.448921875,88.47415244579315L106.52090625,87.56584829092026L106.65084375,87.42631106078625L106.69260937499999,87.39714024960995L106.822546875,87.37284882366657L106.98496875,87.46567583084106L107.04065625,87.45735450088978L107.33765625000001,87.54006667435169L107.964140625,87.99109330773354L108.21473437499999,88.17391200363636L108.8319375,88.2368560731411L108.836578125,88.22505323588848L109.486265625,87.9622653722763L110.04778125,87.8898394703865L110.080265625,87.89916305243969L110.66034375000001,87.71784773468971L111.18473437499999,87.70620314776897L111.27290625,87.68229416012764L111.40284375,87.91750690340996L111.50493750000001,87.92618429660797L111.602390625,87.99117243289948L111.917953125,88.11309112608433L112.16390625,88.1212937682867L112.43306249999999,88.08150699734688L112.63725000000001,87.97857834398746L113.63034375000001,87.62355691194534L113.713875,87.52906827628613L113.81596875,87.47560603916645L113.8438125,87.52347676455975L114.349640625,87.45317405462265L114.414609375,87.43246963620186L114.46565625000001,87.43289163708687L114.720890625,87.56595379114151L114.7719375,87.56827479600906L114.79978125,87.60795606672764L115.073578125,87.64514489471912L115.198875,87.61125294864178L115.305609375,87.60882644355297L115.630453125,87.79562777280807L115.73254687500001,87.85962684452534L115.8856875,87.87334187328815L115.99706250000001,87.90983176231384L116.1826875,87.97012513875961L116.26621875,122.00400857627392L116.29406250000001,100.0749303996563L116.307984375,99.66941392421722L116.66067187499999,86.62142349779606L116.6653125,86.90428277850151L116.883421875,95.63824387639761L117.02728125,93.32395146042109L117.152578125,93.22274377942085L117.1665,93.08427473902702L117.189703125,93.0470067858696L117.5191875,94.58090087771416L117.570234375,93.9170934855938L117.797625,95.29480768740177L118.062140625,96.300706140697L118.27096875000001,95.74692229181528L118.461234375,94.53692047297955L118.5215625,94.68909794837236L118.52620312500001,94.64217013120651L118.62829687499999,94.77909623086452L118.702546875,94.0115557461977L119.21765624999999,95.8088113591075L119.31510937499999,95.87122792750597L119.6353125,95.5394890755415L119.649234375,95.50449597090483L119.653875,95.4762746617198L119.876625,94.74137330800295L119.988,94.75793024897575L120.6005625,94.2116237282753L120.9718125,94.26639153063297L121.032140625,93.9225729033351L121.32914062500001,94.28240778297186L121.63078125,94.14389258623123L121.73751562499999,94.2461816444993L122.12732812499999,94.06457620114088L122.14125,94.07204034179449L122.164453125,94.04819729179144L122.475375,93.72938881069422L122.55890624999999,93.57839821279049L122.906953125,93.35173758119345L123.0879375,93.51687839627266L123.82115625,93.82010581344366L124.0160625,93.70067296922207L124.02070312500001,93.72212248295546L124.32234375,93.3664416745305L124.3501875,93.33003750443459L124.47084375,93.29393664747477L124.568296875,93.30662304908037L124.596140625,93.24353391677141L125.329359375,93.33752142637968L126.43846875,93.63662114739418L126.498796875,93.65188571065664L126.656578125,93.63461664319038L126.76795312499999,93.60433807969093L126.83292187500001,93.61098459362984L126.96285937500001,93.7279843389988L127.491890625,93.68693815916777L127.6543125,93.91622970253229L127.826015625,93.79116578400135L128.2483125,93.93922875076532L128.85159375,94.12286507338285L129.199640625,94.00681483000517L129.617296875,94.2401417568326L129.63121875000002,94.23972634971142L130.313390625,94.49671170115471L130.331953125,94.46610344946384L130.5315,94.5641922801733L130.582546875,94.58655832707882L130.628953125,94.59535440802574L130.786734375,94.6717827245593L130.833140625,94.6114563792944L130.953796875,94.50497368723154L131.16262500000002,94.54300651699305L131.269359375,94.4462957829237L131.50603125,94.61326307058334L131.61740625000002,94.84499430656433L131.705578125,94.78900665789843L131.9236875,94.99648603051901L132.448078125,94.84374149143696L132.67546875,94.63500270992517L133.051359375,94.62170968204737L133.10240625,94.61512910574675L133.19521875,94.64670664072037L133.533984375,94.5557984188199L133.7985,94.5253681987524L134.295046875,94.52017890661955L134.949375,94.48424289375544L135.130359375,94.35962735116482L135.2649375,94.28425403684378L135.668671875,94.21865268051624L135.891421875,94.3098378404975L135.900703125,94.3330412954092L136.077046875,94.49265653640032L136.18378124999998,94.51625561714172L136.513265625,94.58848370611668L137.16759374999998,94.65330699831247L137.46459375,94.68464056402445L137.919375,94.74617356806993L137.9565,94.71793247759342L138.661875,94.79546195268631L138.76396875,94.83158259093761L138.917109375,94.89368925243616L139.26051562499998,94.90491843223572L139.44150000000002,94.96858781576157L139.84059374999998,106.30899781733751L140.179359375,104.89203753322363L140.295375,106.56900970637798L140.355703125,105.50747966766357L140.39746875,104.71432241052389L140.76407812500003,101.28521575033665L141.03787499999999,102.42960302531719L141.56690625,99.93876917660236L141.63651562500002,100.29263669997454L142.003125,101.01514837145805L142.40685937499998,101.23346789181232L142.819875,102.64543010294437L142.991578125,102.26438967883587L143.154,102.67237881571054L143.49740624999998,103.48857468366623L144.07284375,103.14454505592585L144.17029687500002,102.46917220205069L144.2120625,102.41313839703798L144.2863125,102.4266885817051L144.578671875,102.14943400025368L144.5833125,102.14284683018923L144.64828125,102.23970922082663L145.21907812499998,102.36908546090126L145.270125,102.19561672210693L145.7341875,102.77611190825701L146.04510937499998,102.71414371579885L146.973234375,102.71672187745571L147.56259375000002,102.70140456408262L147.567234375,102.72980390489101L147.7018125,103.07649741321802L147.71109375,103.1000899001956L148.170515625,102.69808130711317L148.866609375,102.58739179372787L149.163609375,102.70272331684828L149.191453125,102.64553560316563L149.219296875,102.58667307347059L149.237859375,102.66953030973673L149.2425,102.64122328162193L149.77617187500002,102.82385075837374L150.03140625,102.85817129909992L150.58828125000002,102.99365336447954L150.84815625,102.94969933480024L151.30293749999998,102.75880987197161L151.34934375,102.67648013681173L151.381828125,102.750692948699L151.46535937500002,102.7247860506177L151.72987500000002,102.50361802428961L151.93406249999998,102.42552807927132L152.33315625,102.57809458673L152.755453125,102.53021726757288L152.764734375,102.53807044029236L152.913234375,102.54126182198524L152.996765625,102.62624225020409L154.31006250000002,102.37814529240131L154.43071874999998,102.42082672566175L154.63490625,102.36868324130774L154.89014062500002,102.1855348572135L155.177859375,102.06800101697445L155.2381875,102.07826750725508L155.66512500000002,101.88800445199013L155.799703125,101.71459505707026L155.98068750000002,101.64976517111063L157.28006249999999,101.31511187553406L157.646671875,101.31556025147438L157.767328125,101.38867190480232L157.86942187499997,101.43623272329569L157.95759375,101.43885044753551L158.073609375,101.39361722767353L158.147859375,101.2880972251296L158.203546875,101.33325791358948L158.40309374999998,101.46835754066706L158.71865624999998,101.31712956726551L159.006375,101.22032652050257L159.971625,101.17169091850519L160.00410937499998,101.10899741202593L160.045875,101.13871550559998L160.27790625,101.17394598573446L160.291828125,101.14091122895479L160.38928124999998,101.25178536772728L160.53314062500002,101.3842145204544L160.6213125,101.40887519717216L161.2524375,101.20255632698536L161.628328125,101.24021990597248L161.63296875,101.22354427725077L161.79074999999997,101.28674550354481L162.426515625,101.46979498118162L162.44971875000002,101.51711842417717L162.57037499999998,101.4816571623087L162.78384375,104.1192945688963L162.853453125,120.61200568825006L163.233984375,108.2268072143197L163.43353125,110.68092039227486L163.5541875,109.33145387470722L163.74445312499998,110.52792529016733L163.944,109.00151512026787L164.55656249999998,107.20711460709572L164.58904687499998,106.76406642794609L164.60760937499998,107.02968961000443L165.080953125,108.64091536402702L165.266578125,106.91151617467403L165.702796875,106.7490985840559L165.767765625,107.23868554830551L165.851296875,107.67633343487978L166.046203125,106.93947373330593L167.308453125,105.53449431806803L167.55440625,105.5314084365964L168.106640625,106.20124912261963L168.951234375,106.30043911188841L169.1229375,106.41193306446075L169.55915625,106.14158874750137L170.297015625,106.02982445061207L170.417671875,106.02002611756325L170.603296875,106.0001722946763L170.81676562500002,106.1945960149169L171.11840625000002,106.24530205875635L171.15089062500002,106.248157158494L171.188015625,106.27400471270084L171.410765625,106.30417118221521L171.45253125,106.38390297442675L171.726328125,106.38925711065531L171.78665625,106.13545654714108L172.459546875,105.5475697517395L172.515234375,105.31104484945536L172.668375,105.1761825978756L172.86328125,105.32354003190994L173.164921875,105.28320597857237L173.508328125,105.30623799562454L173.7264375,105.58798952400684L174.028078125,105.62537616491318L174.16265625,105.51785825192928L174.222984375,105.48928087949753L174.54318750000002,105.75326221436262L174.557109375,105.78913888335228L174.75665625000002,105.78048127144575L174.984046875,105.8771920055151L175.24392187499998,105.66993682086468L175.856484375,105.8630615696311L175.893609375,105.8103642091155L175.92609375,105.88347586244345L176.357671875,105.90532759577036L176.41335937500003,105.90471437573433L176.506171875,105.91942506283522L177.035203125,105.92183178663254L177.053765625,105.93886347860098L177.1790625,106.06102614104748L177.18834375,106.08954416960478L177.606,105.7955809906125L177.93084375,105.72917519509792L178.05614062499998,105.6607319265604L178.08862499999998,105.66121327131987L178.2185625,105.73746355623007L178.8496875,105.81358855962753L179.276625,105.90621116012335L179.309109375,105.9282343313098L179.72676562499998,105.83273025602102L179.76853125,105.84731566160917L179.82421875,105.8258002102375L179.912390625,105.72262758761644L179.99128125,105.6732996404171L180.241875,105.69809219241142L180.2975625,105.71407547593117L180.41357812500002,105.68344084918499L180.58528124999998,105.76059447973967L180.8544375,105.73218195140362L181.06790625,105.6919995546341L181.156078125,105.74399138242006L181.18856250000002,105.75094120949507L181.40203125,105.8148875311017L181.64334374999999,106.00097673386335L181.657265625,105.97902609407902L181.81968750000001,106.03393895924091L182.42296875,106.21929625421762L182.66428125000002,106.09611815214157L182.668921875,106.08645828813314L182.76637499999998,106.05937110632658L183.021609375,106.09786549955606L183.42534375,106.183149240911L183.429984375,106.18479768186808L183.606328125,106.20460534840822L183.76875,106.1566357165575L183.810515625,106.21610487252474L183.9915,106.11808197945356L184.218890625,106.08331965655088L184.474125,106.17106287181377L184.622625,106.01666329801083L185.063484375,106.03254108130932L185.768859375,106.08454609662294L185.99625,156.8774759620428L186.1633125,113.06373520195484L186.45103125,116.74380051344633L186.808359375,113.40976274013519L186.82228125,114.10926876962185L187.17496875,111.60208898037672L187.272421875,112.40764251351357L187.309546875,112.59986391663551L187.369875,112.01352665573359L187.37915625000002,112.13834001123905L187.407,112.29879266023636L187.86178124999998,113.02195052057505L187.8710625,113.26816825568676L188.27479687500002,114.0257323756814L188.28871875000002,113.91806939989328L188.414015625,113.89059977978468L189.2075625,115.76662449538708L189.240046875,115.76325508207083L189.546328125,115.03287045657635L189.56953124999998,115.20668866485357L190.05215625,113.7344198897481L190.13104687499998,113.83825848251581L190.44196874999997,113.73992568254471L190.53478125,113.6864568516612L191.03132812500002,114.32133080810308L191.27264062499998,114.4753743186593L191.34225,114.38081315159798L191.411859375,114.62498681992292L191.48610937499998,114.77421028912067L191.5464375,114.77404544502497L191.708859375,114.80425807088614L191.79703125,114.652707003057L191.829515625,114.68585385382175L192.91078124999999,112.96625959128141L193.18921874999998,112.48545552045107L193.3284375,112.47076461464167L193.416609375,112.23090326786041L193.82962500000002,112.34082790464163L194.010609375,112.48217182606459L194.029171875,112.50541484355927L194.07093749999999,112.56702697277069L194.09878125,112.50573134422302L194.214796875,112.44167952239513L194.4793125,112.80143527686596L195.15684374999998,113.07850523293018L195.69515625,113.0038902014494L195.84829687500002,113.25536976009607L196.354125,112.96444630622864L196.38196875,112.95555791258812L196.423734375,113.03340388834476L197.022375,112.6246234998107L197.18015625,112.61973752081394L198.36815625,112.33828930556774L198.456328125,112.49995520710945L198.655875,112.38501930981874L198.97607812500002,112.34659744799137L199.97381249999998,112.49184487760067L200.442515625,112.6515326499939L200.69774999999998,112.52820289134979L200.76735937499998,112.58785667270422L201.0875625,112.62701703608036L201.24534375,112.59212283790112L201.58875,112.50005411356688L201.66299999999998,112.52104206383228L201.714046875,112.4788881316781L201.871828125,112.45929146558046L202.243078125,112.40187956392765L202.52615625,112.49154156446457L202.53079687500002,112.49573519825935L202.799953125,112.54441695660353L202.892765625,112.34819313883781L203.09231250000002,112.21080547571182L203.115515625,112.22059062123299L203.449640625,112.1530638858676L204.10396875,111.90363498777151L204.210703125,111.82067225128412L204.21534375000002,111.82224816083908L204.84646875,111.87834130972624L205.29196875,111.94721976667643L205.56576562499998,111.87743796408176L205.6168125,111.87406855076551L206.93474999999998,111.5298213288188L207.125015625,111.57945258915424L207.449859375,111.6488585472107L207.57979687500003,111.64881898462772L207.81646874999998,111.69526545703411L208.266609375,111.58475397527218L208.41046875,111.63583586364985L208.43367187500002,111.6033417955041L208.5125625,111.59982731938362L208.74923437500001,111.62046580016613L208.925578125,111.62561552971601L209.872265625,111.22135846316814L210.206390625,112.52213662862778L210.69365625,115.96552538126707L211.097390625,116.4977410286665L211.15307812499998,116.32445691525936L211.301578125,115.88104607909918L211.431515625,115.1310054436326L211.83525,116.58624912053347L211.88165625,116.82737646996975L211.9095,116.8005728200078L211.9280625,116.82911722362041L212.07192187500002,117.1350678652525L212.081203125,117.0919776186347L212.146171875,117.00562568753958L212.174015625,116.73697596788406L212.51278125,116.85750997066498L213.659015625,116.42080499231815L214.067390625,117.03435471653938L214.188046875,116.99649991840124L214.60570312500002,117.12650915980339L214.731,117.03751312941313L215.05584375,117.42212077975273L215.37140624999998,117.31861187517643L215.44565625,117.23523373156786L215.7519375,116.76773587614298L215.9746875,116.38686688989401L216.04893750000002,116.4590356349945L216.18351562499998,116.3861877322197L216.29953125,116.2749839052558L216.387703125,116.19408501684666L217.055953125,116.40815815329552L217.09307812499998,116.51474634557962L217.390078125,116.23086503148079L217.515375,116.16965512186289L218.141859375,115.91020370274782L218.17434375,115.79214236140251L218.257875,115.81417212635279L218.735859375,116.16680661588907L218.847234375,116.09820509701967L218.89364062500002,116.13184648007154L218.958609375,116.24745494127274L219.246328125,116.121039301157L219.68718750000002,116.29206834733486L219.99346875,116.03718640655279L220.053796875,116.07150035351515L220.202296875,116.03702815622091L220.285828125,116.07464557886124L220.332234375,116.17729729413986L220.4296875,116.29531247913837L220.935515625,116.10003816336393L221.26035937499998,116.20367234945297L221.715140625,116.17366413027048L222.25809375,116.01812383532524L222.43443749999997,115.89822942763567L222.587578125,115.74574863910675L222.66646874999998,115.70019891858101L222.84745312500002,115.76678933948278L223.970484375,115.37555495649576L224.044734375,115.25745405256748L224.71298437500002,114.96289743483067L224.95429687499998,114.86677354574203L225.158484375,114.86140622198582L225.32090625,114.73787205666304L225.460125,114.81398387253284L225.57150000000001,114.76209754496813L225.682875,114.75800281763077L225.72,114.74697804450989L225.771046875,114.71830176562071L225.77568749999998,114.73628955334425L226.054125,114.73652692884207L226.179421875,114.7253636866808L226.197984375,114.73520817607641L226.26759375,114.7054505199194L226.38825000000003,114.62221084535122L226.439296875,114.65794904530048L226.49034375,114.7017909809947L226.64348437499999,114.68235256522894L227.0379375,114.67764461785555L227.283890625,114.66458237171173L227.302453125,114.68732426315546L227.36278125,114.65628082305193L227.73403125,114.73930290341377L227.75259375,114.74226350337267L227.877890625,114.73873583972454L227.91965625,114.75820063054562L228.32339062499997,114.93835544586182L228.35587500000003,114.91948409378529L228.5600625,114.91425523906946L228.806015625,114.98592285811901L228.96843750000002,114.94597124308348L228.987,114.96331284195185L229.270078125,114.88811096549034L229.72021875,114.85395526885986L229.8965625,114.91916759312153L230.11003125,114.8609578460455L230.114671875,114.84775053709745L230.12859375,114.88209085911512L230.38846875000002,114.85187823325396L230.77828125,114.99045277386904L230.88965625,114.91610149294138L231.117046875,114.91281120479107L231.18201562500002,114.87876760214567L231.868828125,114.7764785438776L232.00804687500002,114.81569165736437L232.28184375,114.75040020793676L232.518515625,128.07292199134827L233.474484375,118.39931657910347L233.51625,118.32834130525589L233.6090625,120.42058872431517L233.752921875,119.95562946796417L233.762203125,119.9437211304903L234.3886875,121.62004711478949L234.55575000000002,121.17699893563986L234.75993749999998,121.07900901138783L235.033734375,121.53785584867L235.08942187500003,121.54607827216387L235.6138125,120.84060488641262L235.785515625,120.82135768979788L235.92937500000002,120.76726904511452L236.091796875,120.0130677446723L236.78789062500002,121.40410794317722L236.82965625,121.3180131688714L236.954953125,121.47489199787378L237.094171875,120.9150089174509L237.251953125,120.81601674109697L237.46078125,120.61608063429594L237.49790625,120.6979883685708L237.62784375,120.17845252901316L238.15223437499998,120.62171170860529L238.226484375,120.59401790052652L238.33321875,120.82509635388851L238.514203125,120.5719551667571L238.59309375,120.83916085213423L238.99218749999997,120.92733266204596L239.033953125,120.95506603270769L239.19173437499998,121.06341475993395L239.72540625,121.40164187550545L239.906390625,121.29790878295898L240.14770312500002,121.19668132066727L241.484203125,120.5288847014308L241.58165625,120.4080276042223L242.235984375,120.5189742743969L242.43553125,120.49186071753502L242.68148437500003,120.47722915560007L242.71396875000002,120.43396087735891L242.80678125,120.37422137707472L242.9274375,120.43723797798157L243.34509375,120.73174843937159L243.58640625,120.6355190500617L243.86484375,120.72140941768885L243.897328125,120.67261556535959L244.03190625,120.58899345248938L244.277859375,120.69419036060572L244.296421875,120.72160063683987L244.35675,120.72627561539412L244.42171875,120.77224074304104L244.53309375,120.71205946058035L244.58878124999998,120.76239625364542L244.73728125,120.62411843240261L244.769765625,120.48642745614052L244.83473437499998,120.43674344569445L245.359125,120.07719869166613L245.410171875,120.11953065544367L245.438015625,120.19917672872543L245.62828125,120.17671177536249L245.64684375,120.2190371453762L245.71181249999998,120.3311245366931L245.818546875,120.15307313203812L246.310453125,120.11290392279625L246.51,120.0581427142024L246.7141875,120.1373535990715L246.79771875,120.10569034516811L246.87196875,120.14607714861631L247.0111875,120.14442870765924L247.33139062499998,120.03290178626776L247.91146874999998,119.68488293141127L248.111015625,119.72718192636967L248.120296875,119.68386089801788L248.292,119.58894366770983L248.296640625,119.56476433575153L248.343046875,119.53089217096567L248.380171875,119.63173060119152L248.4961875,119.5854621604085L248.88135937500002,119.35671130567789L248.9045625,119.34947794675827L248.974171875,119.32419086247683L249.874453125,119.47666505724192L250.51485937500001,119.44761952757835L251.49867187499999,119.04867703467607L251.860640625,118.99384329468012L252.11123437499998,118.8804437443614L252.22725,118.78582323342562L252.81196875,118.84163944423199L253.187859375,118.99320369958878L253.41525000000001,118.88629900664091L253.4709375,118.86264717578888L253.559109375,118.83112239092588L253.83290624999998,118.7071662247181L254.37121875,118.67467875033617L254.73782812500002,118.48919617384672L254.932734375,118.59927246719599L255.266859375,118.59192701429129L255.498890625,118.44652133435011L255.67059375,118.38498833030462L255.74484375,118.44174744933844" style="fill: none;" fill="none"></path></g></g></g></g></g></g><g transform="translate(51, 177)" clip-path="url(#clip_1)"><clipPath id="clip_1"><rect width="278" height="23"></rect></clipPath><g><g><line x1="0" y1="0" x2="0" y2="5" style="visibility: inherit;" fill="rgb(0, 0, 0)" stroke="rgb(204, 204, 204)" stroke-width="1px"></line><line x1="23.203125" y1="0" x2="23.203125" y2="5" style="visibility: inherit;" fill="rgb(0, 0, 0)" stroke="rgb(204, 204, 204)" stroke-width="1px"></line><line x1="46.40625" y1="0" x2="46.40625" y2="5" style="visibility: inherit;" fill="rgb(0, 0, 0)" stroke="rgb(204, 204, 204)" stroke-width="1px"></line><line x1="69.609375" y1="0" x2="69.609375" y2="5" style="visibility: inherit;" fill="rgb(0, 0, 0)" stroke="rgb(204, 204, 204)" stroke-width="1px"></line><line x1="92.8125" y1="0" x2="92.8125" y2="5" style="visibility: inherit;" fill="rgb(0, 0, 0)" stroke="rgb(204, 204, 204)" stroke-width="1px"></line><line x1="116.015625" y1="0" x2="116.015625" y2="5" style="visibility: inherit;" fill="rgb(0, 0, 0)" stroke="rgb(204, 204, 204)" stroke-width="1px"></line><line x1="139.21875" y1="0" x2="139.21875" y2="5" style="visibility: inherit;" fill="rgb(0, 0, 0)" stroke="rgb(204, 204, 204)" stroke-width="1px"></line><line x1="162.421875" y1="0" x2="162.421875" y2="5" style="visibility: inherit;" fill="rgb(0, 0, 0)" stroke="rgb(204, 204, 204)" stroke-width="1px"></line><line x1="185.625" y1="0" x2="185.625" y2="5" style="visibility: inherit;" fill="rgb(0, 0, 0)" stroke="rgb(204, 204, 204)" stroke-width="1px"></line><line x1="208.828125" y1="0" x2="208.828125" y2="5" style="visibility: inherit;" fill="rgb(0, 0, 0)" stroke="rgb(204, 204, 204)" stroke-width="1px"></line><line x1="232.03125" y1="0" x2="232.03125" y2="5" style="visibility: inherit;" fill="rgb(0, 0, 0)" stroke="rgb(204, 204, 204)" stroke-width="1px"></line><line x1="255.234375" y1="0" x2="255.234375" y2="5" style="visibility: inherit;" fill="rgb(0, 0, 0)" stroke="rgb(204, 204, 204)" stroke-width="1px"></line><line x1="278.4375" y1="0" x2="278.4375" y2="5" style="visibility: inherit;" fill="rgb(0, 0, 0)" stroke="rgb(204, 204, 204)" stroke-width="1px"></line></g><g transform="translate(0, 8)"><text x="0" y="0" dx="0em" dy="0.95em" style="text-anchor: middle; visibility: hidden; font-family: Roboto, sans-serif; font-size: 12px; font-weight: 200;" fill="rgb(33, 33, 33)" stroke="none" stroke-width="1px">-5k</text><text x="23.203125" y="0" dx="0em" dy="0.95em" style="text-anchor: middle; visibility: inherit; font-family: Roboto, sans-serif; font-size: 12px; font-weight: 200;" fill="rgb(33, 33, 33)" stroke="none" stroke-width="1px">0</text><text x="46.40625" y="0" dx="0em" dy="0.95em" style="text-anchor: middle; visibility: hidden; font-family: Roboto, sans-serif; font-size: 12px; font-weight: 200;" fill="rgb(33, 33, 33)" stroke="none" stroke-width="1px">5k</text><text x="69.609375" y="0" dx="0em" dy="0.95em" style="text-anchor: middle; visibility: inherit; font-family: Roboto, sans-serif; font-size: 12px; font-weight: 200;" fill="rgb(33, 33, 33)" stroke="none" stroke-width="1px">10k</text><text x="92.8125" y="0" dx="0em" dy="0.95em" style="text-anchor: middle; visibility: hidden; font-family: Roboto, sans-serif; font-size: 12px; font-weight: 200;" fill="rgb(33, 33, 33)" stroke="none" stroke-width="1px">15k</text><text x="116.015625" y="0" dx="0em" dy="0.95em" style="text-anchor: middle; visibility: inherit; font-family: Roboto, sans-serif; font-size: 12px; font-weight: 200;" fill="rgb(33, 33, 33)" stroke="none" stroke-width="1px">20k</text><text x="139.21875" y="0" dx="0em" dy="0.95em" style="text-anchor: middle; visibility: hidden; font-family: Roboto, sans-serif; font-size: 12px; font-weight: 200;" fill="rgb(33, 33, 33)" stroke="none" stroke-width="1px">25k</text><text x="162.421875" y="0" dx="0em" dy="0.95em" style="text-anchor: middle; visibility: inherit; font-family: Roboto, sans-serif; font-size: 12px; font-weight: 200;" fill="rgb(33, 33, 33)" stroke="none" stroke-width="1px">30k</text><text x="185.625" y="0" dx="0em" dy="0.95em" style="text-anchor: middle; visibility: hidden; font-family: Roboto, sans-serif; font-size: 12px; font-weight: 200;" fill="rgb(33, 33, 33)" stroke="none" stroke-width="1px">35k</text><text x="208.828125" y="0" dx="0em" dy="0.95em" style="text-anchor: middle; visibility: inherit; font-family: Roboto, sans-serif; font-size: 12px; font-weight: 200;" fill="rgb(33, 33, 33)" stroke="none" stroke-width="1px">40k</text><text x="232.03125" y="0" dx="0em" dy="0.95em" style="text-anchor: middle; visibility: hidden; font-family: Roboto, sans-serif; font-size: 12px; font-weight: 200;" fill="rgb(33, 33, 33)" stroke="none" stroke-width="1px">45k</text><text x="255.234375" y="0" dx="0em" dy="0.95em" style="text-anchor: middle; visibility: inherit; font-family: Roboto, sans-serif; font-size: 12px; font-weight: 200;" fill="rgb(33, 33, 33)" stroke="none" stroke-width="1px">50k</text><text x="278.4375" y="0" dx="0em" dy="0.95em" style="text-anchor: middle; visibility: hidden; font-family: Roboto, sans-serif; font-size: 12px; font-weight: 200;" fill="rgb(33, 33, 33)" stroke="none" stroke-width="1px">55k</text></g><line x1="0" y1="0" x2="278.4375" y2="0" fill="rgb(0, 0, 0)" stroke="rgb(204, 204, 204)" stroke-width="1px"></line></g></g></g></g></svg>