<svg viewBox="0 0 330 200" xmlns="http://www.w3.org/2000/svg"><g><g><g><g><g><line x1="51.5625" y1="177" x2="46.5625" y2="177" style="visibility: inherit;" fill="rgb(0, 0, 0)" stroke="rgb(204, 204, 204)" stroke-width="1px"></line><line x1="51.5625" y1="159.3" x2="46.5625" y2="159.3" style="visibility: inherit;" fill="rgb(0, 0, 0)" stroke="rgb(204, 204, 204)" stroke-width="1px"></line><line x1="51.5625" y1="141.6" x2="46.5625" y2="141.6" style="visibility: inherit;" fill="rgb(0, 0, 0)" stroke="rgb(204, 204, 204)" stroke-width="1px"></line><line x1="51.5625" y1="123.89999999999999" x2="46.5625" y2="123.89999999999999" style="visibility: inherit;" fill="rgb(0, 0, 0)" stroke="rgb(204, 204, 204)" stroke-width="1px"></line><line x1="51.5625" y1="106.20000000000002" x2="46.5625" y2="106.20000000000002" style="visibility: inherit;" fill="rgb(0, 0, 0)" stroke="rgb(204, 204, 204)" stroke-width="1px"></line><line x1="51.5625" y1="88.5" x2="46.5625" y2="88.5" style="visibility: inherit;" fill="rgb(0, 0, 0)" stroke="rgb(204, 204, 204)" stroke-width="1px"></line><line x1="51.5625" y1="70.8" x2="46.5625" y2="70.8" style="visibility: inherit;" fill="rgb(0, 0, 0)" stroke="rgb(204, 204, 204)" stroke-width="1px"></line><line x1="51.5625" y1="53.09999999999999" x2="46.5625" y2="53.09999999999999" style="visibility: inherit;" fill="rgb(0, 0, 0)" stroke="rgb(204, 204, 204)" stroke-width="1px"></line><line x1="51.5625" y1="35.40000000000001" x2="46.5625" y2="35.40000000000001" style="visibility: inherit;" fill="rgb(0, 0, 0)" stroke="rgb(204, 204, 204)" stroke-width="1px"></line><line x1="51.5625" y1="17.699999999999996" x2="46.5625" y2="17.699999999999996" style="visibility: inherit;" fill="rgb(0, 0, 0)" stroke="rgb(204, 204, 204)" stroke-width="1px"></line><line x1="51.5625" y1="0" x2="46.5625" y2="0" style="visibility: inherit;" fill="rgb(0, 0, 0)" stroke="rgb(204, 204, 204)" stroke-width="1px"></line></g><g transform="translate(41.5625, 0)"><text x="0" y="177" dx="0em" dy="0.3em" style="text-anchor: end; visibility: hidden; font-family: Roboto, sans-serif; font-size: 12px; font-weight: 200;" fill="rgb(33, 33, 33)" stroke="none" stroke-width="1px">0.01</text><text x="0" y="159.3" dx="0em" dy="0.3em" style="text-anchor: end; visibility: inherit; font-family: Roboto, sans-serif; font-size: 12px; font-weight: 200;" fill="rgb(33, 33, 33)" stroke="none" stroke-width="1px">0.02</text><text x="0" y="141.6" dx="0em" dy="0.3em" style="text-anchor: end; visibility: hidden; font-family: Roboto, sans-serif; font-size: 12px; font-weight: 200;" fill="rgb(33, 33, 33)" stroke="none" stroke-width="1px">0.03</text><text x="0" y="123.89999999999999" dx="0em" dy="0.3em" style="text-anchor: end; visibility: inherit; font-family: Roboto, sans-serif; font-size: 12px; font-weight: 200;" fill="rgb(33, 33, 33)" stroke="none" stroke-width="1px">0.04</text><text x="0" y="106.20000000000002" dx="0em" dy="0.3em" style="text-anchor: end; visibility: hidden; font-family: Roboto, sans-serif; font-size: 12px; font-weight: 200;" fill="rgb(33, 33, 33)" stroke="none" stroke-width="1px">0.05</text><text x="0" y="88.5" dx="0em" dy="0.3em" style="text-anchor: end; visibility: inherit; font-family: Roboto, sans-serif; font-size: 12px; font-weight: 200;" fill="rgb(33, 33, 33)" stroke="none" stroke-width="1px">0.06</text><text x="0" y="70.8" dx="0em" dy="0.3em" style="text-anchor: end; visibility: hidden; font-family: Roboto, sans-serif; font-size: 12px; font-weight: 200;" fill="rgb(33, 33, 33)" stroke="none" stroke-width="1px">0.07</text><text x="0" y="53.09999999999999" dx="0em" dy="0.3em" style="text-anchor: end; visibility: inherit; font-family: Roboto, sans-serif; font-size: 12px; font-weight: 200;" fill="rgb(33, 33, 33)" stroke="none" stroke-width="1px">0.08</text><text x="0" y="35.40000000000001" dx="0em" dy="0.3em" style="text-anchor: end; visibility: hidden; font-family: Roboto, sans-serif; font-size: 12px; font-weight: 200;" fill="rgb(33, 33, 33)" stroke="none" stroke-width="1px">0.09</text><text x="0" y="17.699999999999996" dx="0em" dy="0.3em" style="text-anchor: end; visibility: inherit; font-family: Roboto, sans-serif; font-size: 12px; font-weight: 200;" fill="rgb(33, 33, 33)" stroke="none" stroke-width="1px">0.1</text><text x="0" y="0" dx="0em" dy="0.3em" style="text-anchor: end; visibility: hidden; font-family: Roboto, sans-serif; font-size: 12px; font-weight: 200;" fill="rgb(33, 33, 33)" stroke="none" stroke-width="1px">0.11</text></g><line x1="51.5625" y1="0" x2="51.5625" y2="177" fill="rgb(0, 0, 0)" stroke="rgb(204, 204, 204)" stroke-width="1px"></line></g></g><g transform="translate(51, 0)" clip-path="url(#clip_0)"><clipPath id="clip_0"><rect width="278" height="177"></rect></clipPath><g><g><g><line x1="0" y1="0" x2="0" y2="177" fill="rgb(0, 0, 0)" stroke="rgb(66, 66, 66)" stroke-width="1px" opacity="0.25"></line><line x1="23.203125" y1="0" x2="23.203125" y2="177" fill="rgb(0, 0, 0)" stroke="rgb(66, 66, 66)" stroke-width="1px" opacity="0.25"></line><line x1="46.40625" y1="0" x2="46.40625" y2="177" fill="rgb(0, 0, 0)" stroke="rgb(66, 66, 66)" stroke-width="1px" opacity="0.25"></line><line x1="69.609375" y1="0" x2="69.609375" y2="177" fill="rgb(0, 0, 0)" stroke="rgb(66, 66, 66)" stroke-width="1px" opacity="0.25"></line><line x1="92.8125" y1="0" x2="92.8125" y2="177" fill="rgb(0, 0, 0)" stroke="rgb(66, 66, 66)" stroke-width="1px" opacity="0.25"></line><line x1="116.015625" y1="0" x2="116.015625" y2="177" fill="rgb(0, 0, 0)" stroke="rgb(66, 66, 66)" stroke-width="1px" opacity="0.25"></line><line x1="139.21875" y1="0" x2="139.21875" y2="177" fill="rgb(0, 0, 0)" stroke="rgb(66, 66, 66)" stroke-width="1px" opacity="0.25"></line><line x1="162.421875" y1="0" x2="162.421875" y2="177" fill="rgb(0, 0, 0)" stroke="rgb(66, 66, 66)" stroke-width="1px" opacity="0.25"></line><line x1="185.625" y1="0" x2="185.625" y2="177" fill="rgb(0, 0, 0)" stroke="rgb(66, 66, 66)" stroke-width="1px" opacity="0.25"></line><line x1="208.828125" y1="0" x2="208.828125" y2="177" fill="rgb(0, 0, 0)" stroke="rgb(66, 66, 66)" stroke-width="1px" opacity="0.25"></line><line x1="232.03125" y1="0" x2="232.03125" y2="177" fill="rgb(0, 0, 0)" stroke="rgb(66, 66, 66)" stroke-width="1px" opacity="0.25"></line><line x1="255.234375" y1="0" x2="255.234375" y2="177" fill="rgb(0, 0, 0)" stroke="rgb(66, 66, 66)" stroke-width="1px" opacity="0.25"></line><line x1="278.4375" y1="0" x2="278.4375" y2="177" fill="rgb(0, 0, 0)" stroke="rgb(66, 66, 66)" stroke-width="1px" opacity="0.25"></line></g><g><line x1="0" y1="177" x2="278.4375" y2="177" fill="rgb(0, 0, 0)" stroke="rgb(66, 66, 66)" stroke-width="1px" opacity="0.25"></line><line x1="0" y1="159.3" x2="278.4375" y2="159.3" fill="rgb(0, 0, 0)" stroke="rgb(66, 66, 66)" stroke-width="1px" opacity="0.25"></line><line x1="0" y1="141.6" x2="278.4375" y2="141.6" fill="rgb(0, 0, 0)" stroke="rgb(66, 66, 66)" stroke-width="1px" opacity="0.25"></line><line x1="0" y1="123.89999999999999" x2="278.4375" y2="123.89999999999999" fill="rgb(0, 0, 0)" stroke="rgb(66, 66, 66)" stroke-width="1px" opacity="0.25"></line><line x1="0" y1="106.20000000000002" x2="278.4375" y2="106.20000000000002" fill="rgb(0, 0, 0)" stroke="rgb(66, 66, 66)" stroke-width="1px" opacity="0.25"></line><line x1="0" y1="88.5" x2="278.4375" y2="88.5" fill="rgb(0, 0, 0)" stroke="rgb(66, 66, 66)" stroke-width="1px" opacity="0.25"></line><line x1="0" y1="70.8" x2="278.4375" y2="70.8" fill="rgb(0, 0, 0)" stroke="rgb(66, 66, 66)" stroke-width="1px" opacity="0.25"></line><line x1="0" y1="53.09999999999999" x2="278.4375" y2="53.09999999999999" fill="rgb(0, 0, 0)" stroke="rgb(66, 66, 66)" stroke-width="1px" opacity="0.25"></line><line x1="0" y1="35.40000000000001" x2="278.4375" y2="35.40000000000001" fill="rgb(0, 0, 0)" stroke="rgb(66, 66, 66)" stroke-width="1px" opacity="0.25"></line><line x1="0" y1="17.699999999999996" x2="278.4375" y2="17.699999999999996" fill="rgb(0, 0, 0)" stroke="rgb(66, 66, 66)" stroke-width="1px" opacity="0.25"></line><line x1="0" y1="0" x2="278.4375" y2="0" fill="rgb(0, 0, 0)" stroke="rgb(66, 66, 66)" stroke-width="1px" opacity="0.25"></line></g></g></g><g><g><line x1="0" y1="194.70000000000002" x2="278.4375" y2="194.70000000000002" fill="rgb(0, 0, 0)" stroke="rgb(153, 153, 153)" stroke-width="1.5px"></line></g></g><g><g><line x1="23.203125" y1="0" x2="23.203125" y2="177" fill="rgb(0, 0, 0)" stroke="rgb(153, 153, 153)" stroke-width="1.5px"></line></g></g><g><g><g><g><g><path stroke="rgb(255, 112, 67)" stroke-width="2px" d="M23.402671875,64.3521820127964L23.416593749999997,64.37075005173683L23.53725,44.92108532488346L23.643984375,26.8283908188343L23.982750000000003,17.33813160359859L24.270468750000003,21.114235085248943L24.293671874999998,21.843993303179737L24.391125,20.850299906730648L24.474656250000002,18.496233907341953L24.637078125,26.70768537819385L24.646359375,26.312679362297054L24.683484375000003,25.904749569296833L25.407421875,27.145194795727726L25.695140624999997,34.976001468300815L25.8946875,35.891558763384815L25.927171875,37.21052252948284L26.149921875,38.991986078023906L26.21025,39.202195268869396L26.321625,40.45592033565044L26.521171875,40.19464903771877L26.558296875,41.13366694450378L26.85065625,44.3132194250822L26.929546875000003,45.63071937561035L26.957390625,46.123458158969875L27.087328125,46.38554708361625L27.7138125,51.31698348820209L27.913359375000002,50.856659647822376L28.154671875,51.6523686915636L28.331015625,51.84443184435367L28.683703125,52.79519983828067L29.059593749999998,54.12037492990493L29.314828125000002,54.32846092879772L29.32875,54.284757462143894L29.39371875,54.89606530666351L29.41228125,54.86514055430889L29.63503125,55.927593719959255L29.667515625,56.17197179496288L29.871703125,56.81489014327526L30.010921874999998,56.67932235896587L30.2754375,58.21304501295089L30.410015625,58.505900439620014L30.484265625,58.139498171210285L30.558515625000002,58.35415155887603L31.0550625,59.73880240023136L31.254609375,61.09396592974662L31.26853125,61.20656104087829L31.765078125,63.548731890320774L31.867171875,63.79188352525234L31.91821875,64.03284603059292L32.10384375,64.05390651226044L32.182734374999995,64.00507309734822L32.2430625,64.01665174663067L32.656078125,64.88651425838471L32.934515625,65.61869898140431L33.356812500000004,65.97402372658253L33.4125,65.98642000257969L33.561,66.55244187712671L33.588843749999995,66.58162587583067L33.704859375,67.09608451724054L33.9136875,67.94193254113199L34.29421875,68.82805527448656L34.512328125,69.77863864302637L34.59121875,69.75169652402403L34.6005,69.75760453641416L34.623703125,69.85761874616148L34.73971875,70.33036523759367L34.744359375,70.3780117750168L34.800046875,70.3492365896702L34.823249999999994,70.51520162522795L34.957828125,70.39002561271192L35.0274375,70.24214067757131L35.667843749999996,71.97268718183042L35.923078125,72.64178277254106L36.9765,72.83559986650945L37.305984375,73.08128350675108L37.31990625,73.16564412117006L37.589062500000004,73.65520471036436L37.87678125,73.17554795444013L38.196984375,73.81112084984781L38.261953125,73.99192185401918L38.271234375,74.03517694473268L38.275875,73.9192453891039L38.54503125,74.35327329933645L39.357140625,75.18167422413828L39.997546875,75.93379848897459L40.006828125,75.88720695376398L40.238859375,76.30510651767256L40.56834375,75.94876633286478L40.80965625,76.19290703237058L40.907109375,76.37753241956236L40.93959375,76.39975340366365L41.43614062500001,76.85699136257173L41.566078125,76.94802486598493L41.696015625,76.75432645976545L41.937328125,76.86478519141676L42.225046875000004,77.30600030422212L42.679828125,77.32493759393694L42.8236875,77.35529528260233L42.846890625,77.25596682429315L43.24134375,77.67109700739385L43.250625,77.70964415073396L43.626515625,78.26150262057783L44.053453125000004,78.82615299224855L44.132343750000004,78.89004656374456L44.229796875,78.82707611918451L44.851640625,79.52187420129778L44.870203124999996,79.57418912351133L44.907328125,79.38802079558374L45.427078124999994,79.81565275490286L45.492046875,79.87056562006475L45.668390625,79.73105476498606L45.724078125000005,79.54120711684229L45.918984374999994,79.63491768836977L46.276312499999996,80.16460792422296L46.642921875,100.53612699061634L46.652203125,101.72252313494684L46.902796875,95.89571954011919L47.032734375,97.27499646395447L47.519999999999996,91.24551375657322L48.011906249999996,88.99746229201557L48.076875,89.90830504596235L48.359953125,91.48632460534574L48.958593750000006,93.98034983575346L49.561875,95.35647494047882L49.7660625,96.74063784331085L50.160515625,96.28300425857307L50.253328124999996,97.17292499989273L50.420390625,97.95942255556585L50.452875,97.54440446645023L50.6199375,97.57036411464216L50.717390625,97.90376459509136L51.005109375,97.73344108164312L51.097921875,97.41169837564232L51.613031250000006,99.7382947549224L51.659437499999996,99.89316248595716L51.979640625,99.07094651162626L52.03996875,99.24272724688055L52.0678125,98.9250792682171L52.39265625,98.9448737472296L52.499390625,98.31908599734308L52.796390624999994,97.6106651991606L53.464640625,97.86331185400488L53.715234374999994,97.73492467850448L53.8498125,97.95689055025579L54.10040625,96.89871014356615L54.281390625,96.00073182284834L54.2953125,96.12094273120167L54.351000000000006,96.10337694436313L54.494859375000004,96.4507825791836L55.014609375,96.4413403093815L55.534359374999994,96.2391491353512L55.655015625,96.79879484027626L56.184046875,97.20310465693476L56.221171874999996,97.11965398192407L56.4114375,97.22523992210628L56.838375,95.87891203612091L57.135374999999996,95.74488719254734L57.358124999999994,96.02397484034302L57.464859375,95.6533789381385L57.780421874999995,95.99068952053787L57.826828125,96.18086026310922L57.84075,96.01283797323705L57.910359375,96.14275490194561L58.0635,96.34950896054508L58.90809375,96.04989492595197L59.219015625,96.71783001422884L59.348953125,96.49973468184473L59.395359375,96.5186390027404L59.557781250000005,96.92552698105575L60.291,97.03890675008299L60.639046875,97.3597658917308L61.168078125,98.00745812505485L61.358343749999996,97.92539873421194L61.882734375,98.00603387206795L62.0173125,97.83515648245813L62.040515625,97.87510150372984L62.08228125,97.76471530348064L62.4999375,96.86719195246698L62.513859375,96.88632046133282L62.643796875,97.08354653120043L62.690203125,97.18698290437462L63.121781250000005,97.37603930085899L63.279562500000004,97.56803651601078L63.558,97.65703914016487L64.407234375,97.7147807300091L64.527890625,97.70819355994465L64.5418125,97.71884908229114L64.639265625,97.94882637709381L64.67175,97.98529648482801L64.94090625,97.60060970932247L64.96875,97.59062675088646L65.22862500000001,97.51348630785944L66.179953125,97.24741474986078L66.439828125,97.37625689506532L66.588328125,97.56353297531606L66.9920625,97.70508789718153L67.145203125,97.70541099160911L67.5118125,97.18401571065189L67.544296875,97.26249468773605L67.604625,97.2731172412634L67.8830625,97.1537041783333L68.02228124999999,97.29266775101425L68.129015625,97.4762842923403L68.212546875,97.49007185250522L68.88543750000001,97.72585165947677L69.1824375,97.70365705043079L69.883171875,86.47919179201128L70.003828125,100.6836756438017L70.894828125,112.64610176235439L70.9273125,111.4896017432213L71.451703125,106.28542089164259L71.465625,105.97962190657856L71.563078125,103.48916390240194L71.836875,104.10846998244526L72.036421875,103.37500606924297L72.430875,103.31102018505337L72.57473437499999,103.79092091023924L72.64898437500001,104.60173626691105L72.727875,104.35412724763157L72.91350000000001,104.28955451846124L73.12696875,105.2994685739279L73.131609375,105.21775865256788L73.233703125,106.25060581862928L73.396125,106.5874152749777L73.51678125000001,106.42025676816704L73.558546875,105.77913192361595L73.799859375,106.07749973684551L73.81378125,106.14009433686735L73.9715625,106.62704379558565L73.99012499999999,106.34916280657055L74.096859375,106.47418716251852L74.124703125,106.80436988621952L74.133984375,106.94967665970327L74.347453125,108.11536179184915L74.72798437499999,107.82755059450866L74.81615624999999,108.1523330256343L74.85792187499999,107.49077410697939L75.173484375,106.96935245096685L75.182765625,106.91943765878679L75.46120312500001,106.73717943280937L76.1990625,105.68317287862303L76.44501562500001,106.1163699746132L76.53782812499999,105.34962074160578L76.6816875,105.78039792627098L76.723453125,106.08165380805733L76.80234374999999,106.43143319785597L76.881234375,106.65517938584091L77.26176562500001,106.43425532877447L77.3685,106.70241051614286L77.43346875,106.97001182734968L77.776875,106.88219608068468L78.30590625,105.72662578225138L78.75140625,106.01125878542663L78.774609375,106.0886893540621L78.941671875,106.3807930916548L79.08553125,106.16724086254837L79.535671875,104.94307563900949L79.656328125,104.47551843971016L79.674890625,104.39801533967258L79.749140625,104.5896235227585L79.94404687500001,104.9260769158602L80.24104687500001,105.12366564273836L80.25496875,105.19323644489052L80.32921875,105.25544860661032L80.77471875,105.37813877016308L81.02067187499999,105.77115346938373L82.009125,105.21448155194523L82.1390625,105.07581469863655L82.63096875000001,105.30840971767904L82.96509375,105.82808402627708L83.25281249999999,105.84799719303848L83.61478125000001,105.7685819014907L83.69367187499999,105.9821275368333L83.81896875,106.25688967555763L83.916421875,106.13479954451324L83.97210937499999,106.1152490347624L84.04171875,106.07943830341102L84.306234375,106.29318175166847L84.645,106.49356623440983L85.15546875,106.90555119216444L85.40142187500001,106.48834397345783L85.419984375,106.50331841111185L85.874765625,105.86338703781368L86.069671875,105.5339098468423L86.30634375,105.81474484205248L86.413078125,105.78505312353374L86.686875,105.69299099296333L86.70079687500001,105.72855775505306L87.137015625,104.9275934815407L87.294796875,104.90940128713848L87.45721875,105.0080176189542L87.63820312499999,105.006758210063L88.06514062500001,104.91923258900644L88.16723437499999,104.68238459229471L88.547765625,103.84802949875595L89.20209375,103.4057000398636L89.508375,102.86508393734695L89.540859375,102.86421356052162L89.582625,102.97316232025625L89.661515625,102.63936621397735L89.74504687499999,102.41594312042L90.01884374999999,102.52683044672014L90.250875,102.50911300331356L90.468984375,102.82796104699375L90.76134375000001,103.03383154124023L91.109390625,102.88989627063276L91.13723437499999,102.9614452019334L91.27645312499999,103.01436675041916L91.31821875,103.06979392915966L91.364625,103.1185614064336L91.7915625,103.02602452486755L91.833328125,103.0475333824754L91.851890625,103.05331611335279L91.93078125,103.11437436640264L92.22778124999999,102.57150979042055L92.31595312500001,102.58270600140096L92.9424375,102.70351694226267L93.234796875,118.38940193206074L93.448265625,112.02002388685943L93.652453125,114.72564299851658L94.051546875,118.34842828363182L94.320703125,115.12548883706333L95.01215625,111.087434899807L95.0214375,110.12355190962555L95.1699375,109.67921135276558L95.313796875,109.63215825408699L95.58759375,108.0101385086775L96.251203125,106.2710596740246L96.362578125,106.78398196846248L96.40434375,106.23256528079511L96.65957812500001,106.85799037367107L97.3603125,109.14114703685047L97.42528125,108.96997292786838L97.89862500000001,108.47055466175081L97.996078125,108.05536513477566L98.61328125,106.96457197219135L98.94740625,106.89097897410394L99.04950000000001,106.8769078820944L99.128390625,106.77595076411964L99.341859375,107.03462411910297L99.499640625,107.211521615088L99.80128125,107.38291331827642L100.17253125,107.46561889797451L100.52521875,106.76688433885576L100.69228125,105.43684304952623L101.207390625,104.68243074864151L101.21203125,104.71071140170099L101.3698125,103.94370501190426L101.43478125,103.9341308668256L101.6296875,104.48080663830044L102.404671875,105.98459360450508L102.54853125000001,105.60725228190424L102.7063125,105.72287393063309L103.2075,105.56505878716709L103.36064062499999,105.7682785883546L103.444171875,105.78821153640749L103.453453125,105.81074242740871L103.564828125,105.82995665520431L103.56946875,105.84816203713419L103.58339062499999,105.88109788745643L103.67156250000001,106.0296949490905L103.833984375,105.88151329457762L103.97784375,105.72821487933399L104.158828125,105.8247541755438L104.205234375,105.91620308607818L104.61824999999999,106.32671104073526L104.68321875,106.37299926280977L104.817796875,106.62490741610529L104.854921875,106.65637945085766L104.98949999999999,106.44663182348015L105.448921875,106.01197091192009L106.52090625,105.60392243117096L106.65084375,105.6615519270301L106.69260937499999,105.38239834159614L106.822546875,105.0204468637705L106.98496875,105.33259564340116L107.04065625,105.34195878803732L107.33765625000001,105.93243033885958L107.964140625,106.376830239594L108.21473437499999,106.35489278733732L108.8319375,106.63504203110935L108.836578125,106.64557886570694L109.486265625,106.94878650158645L110.04778125,106.86995146125557L110.080265625,106.94266089498998L110.66034375000001,106.77217253744604L111.18473437499999,106.85880140662195L111.27290625,106.90204990357162L111.40284375,106.59338922500612L111.50493750000001,106.54216227382423L111.602390625,106.6355893135071L111.917953125,106.86510504484178L112.16390625,107.13109088391067L112.43306249999999,107.25049735307695L112.63725000000001,107.38480572849514L113.63034375000001,106.5574268370867L113.713875,106.64553270936014L113.81596875,106.57314637005331L113.8438125,106.5768982216716L114.349640625,105.90525743812324L114.414609375,106.03383583277466L114.46565625000001,106.1233857393265L114.720890625,106.23693694621326L114.7719375,106.0580283522606L114.79978125,106.12971575260164L115.073578125,106.4866823449731L115.198875,106.22187019586565L115.305609375,106.29275975078346L115.630453125,106.36326686739923L115.73254687500001,106.40270416885616L115.8856875,106.5291198089719L115.99706250000001,106.59301997423174L116.1826875,106.67197370231153L116.26621875,81.29065134823324L116.29406250000001,91.05648373514416L116.307984375,98.59107875525953L116.66067187499999,89.09230699092151L116.6653125,89.90335972309114L116.883421875,98.69116549640896L117.02728125,100.62107445001604L117.152578125,105.79016988426449L117.1665,104.62981910705568L117.189703125,104.98596807271244L117.5191875,101.77487102597954L117.570234375,102.30838564485313L117.797625,101.70384300202133L118.062140625,104.05858156532051L118.27096875000001,105.44600838124754L118.461234375,107.15743297040464L118.5215625,107.49660958796741L118.52620312500001,107.38526069819929L118.62829687499999,106.47267059683801L118.702546875,106.88632377684118L119.21765624999999,105.91359854936601L119.31510937499999,107.02417300343515L119.6353125,108.65556908100845L119.649234375,108.74900930821897L119.653875,108.84702560752632L119.876625,107.5582349047065L119.988,107.71845677196981L120.6005625,104.60390561521055L120.9718125,104.84552749693395L121.032140625,104.67085869312288L121.32914062500001,105.55917714983227L121.63078125,106.65438813418152L121.73751562499999,106.49634880274536L122.12732812499999,107.2856948643923L122.14125,107.18329371213915L122.164453125,107.38530685454609L122.475375,105.67901221364738L122.55890624999999,105.9083499133587L122.906953125,106.90568966120483L123.0879375,107.12709506303074L123.82115625,108.46212783157827L124.0160625,108.43817928135397L124.02070312500001,108.43080745339395L124.32234375,107.60359340608122L124.3501875,107.68854086548092L124.47084375,107.66786941587927L124.568296875,108.0265306055546L124.596140625,108.0653546869755L125.329359375,108.40072010904552L126.43846875,108.64472233951093L126.498796875,108.76737294048073L126.656578125,108.23455726057293L126.76795312499999,108.38215866386892L126.83292187500001,108.37711443454029L126.96285937500001,108.44167397618295L127.491890625,108.43400542885067L127.6543125,108.68655977100136L127.826015625,108.70738947093488L128.2483125,109.22004801481964L128.85159375,109.14967936724426L129.199640625,108.55573949664833L129.617296875,108.63210846930744L129.63121875000002,108.5274258747697L130.313390625,109.41702352166178L130.331953125,109.43335627466442L130.5315,109.74316426813604L130.582546875,109.79505718946459L130.628953125,109.7620422139764L130.786734375,109.83127673417331L130.833140625,109.73738813102247L130.953796875,109.88621597439052L131.16262500000002,109.92324655205013L131.269359375,109.82997116893532L131.50603125,110.14413764029743L131.61740625000002,109.94142555892469L131.705578125,109.60190606564285L131.9236875,109.63761129677297L132.448078125,109.89720777869226L132.67546875,110.08455639034511L133.051359375,109.48536788374187L133.10240625,109.27503341138365L133.19521875,109.28529990166427L133.533984375,108.69896264076235L133.7985,108.67548224776985L134.295046875,108.76691137701275L134.949375,108.81377985030414L135.130359375,108.91382043510677L135.2649375,109.00002070963384L135.668671875,109.10287023782732L135.891421875,108.95878990441562L135.900703125,108.98171642124655L136.077046875,109.0075639754534L136.18378124999998,108.89833827763798L136.513265625,108.80317707806827L137.16759374999998,108.7778372436762L137.46459375,108.96527816802265L137.919375,109.40030173659326L137.9565,109.44926702678205L138.661875,109.40962531864645L138.76396875,109.45747626274826L138.917109375,109.53545411378147L139.26051562499998,109.51592338532211L139.44150000000002,109.59911690354349L139.84059374999998,125.16339310705663L140.179359375,112.700948689878L140.295375,113.2888882353902L140.355703125,114.47796144783499L140.39746875,109.39633888453247L140.76407812500003,108.6941953495145L141.03787499999999,108.6738601818681L141.56690625,107.84775388687851L141.63651562500002,108.51450869143011L142.003125,110.29563595801594L142.40685937499998,111.35328886359932L142.819875,112.9247080653906L142.991578125,113.33284885883333L143.154,113.70405138731005L143.49740624999998,111.59882744103672L144.07284375,110.4060155645013L144.17029687500002,109.71784421503546L144.2120625,109.83247020542623L144.2863125,109.5957145214081L144.578671875,109.75312744528057L144.5833125,109.5664513975382L144.64828125,109.53383204787971L145.21907812499998,110.26465186178686L145.270125,110.25023130029442L145.7341875,109.563886423409L146.04510937499998,109.09133115112783L146.973234375,108.7437211096287L147.56259375000002,109.24125355929138L147.567234375,109.27698516547682L147.7018125,109.73395278006794L147.71109375,109.67361324727537L148.170515625,108.87211487889292L148.866609375,109.53095057308676L149.163609375,109.66073562651874L149.191453125,109.37867419123651L149.219296875,109.41714220941068L149.237859375,109.46070061326029L149.2425,109.45929614156486L149.77617187500002,109.32132822722198L150.03140625,108.67376127541067L150.58828125000002,108.54264428168537L150.84815625,108.52345642894508L151.30293749999998,108.4408233806491L151.34934375,108.58602465391161L151.381828125,108.65107213407757L151.46535937500002,108.59111503958704L151.72987500000002,108.66971929818394L151.93406249999998,109.2159598812461L152.33315625,109.6597465619445L152.755453125,110.09176996797325L152.764734375,110.1086631909013L152.913234375,110.42921901941301L152.996765625,110.60645939111711L154.31006250000002,110.51618417054416L154.43071874999998,110.20452992320062L154.63490625,110.41469955146314L154.89014062500002,110.38056363612415L155.177859375,110.39938883185388L155.2381875,110.51946127116682L155.66512500000002,110.10858406573536L155.799703125,109.74563692957165L155.98068750000002,109.80573249310257L157.28006249999999,109.67944213449957L157.646671875,109.82419503182174L157.767328125,109.83074263930322L157.86942187499997,109.88924910575153L157.95759375,109.89282292574646L158.073609375,109.63198022246362L158.147859375,109.72733923494818L158.203546875,109.83205479830505L158.40309374999998,110.1604769870639L158.71865624999998,110.37789975553753L159.006375,110.5469968289137L159.971625,110.96789655536415L160.00410937499998,110.94220065772535L160.045875,111.03202090859415L160.27790625,111.08452704995872L160.291828125,111.09919158071281L160.38928124999998,111.1283360168338L160.53314062500002,111.13521331250669L160.6213125,111.17608146071436L161.2524375,111.0031665980816L161.628328125,111.23738368302585L161.63296875,111.23379008173944L161.79074999999997,111.18495666682722L162.426515625,110.85384422242643L162.44971875000002,110.90025772601368L162.57037499999998,111.0044260069728L162.78384375,111.88566935509445L162.853453125,121.14691396504642L163.233984375,100.36648922860624L163.43353125,98.6616781845689L163.5541875,103.85159013122322L163.74445312499998,103.98943935781719L163.944,104.90578790456058L164.55656249999998,109.49508709162475L164.58904687499998,109.96369269937279L164.60760937499998,110.39203678518535L165.080953125,116.63953569978477L165.266578125,114.5251596093178L165.702796875,113.55486088693144L165.767765625,114.22073872089388L165.851296875,114.55924277454616L166.046203125,115.43601555079223L167.308453125,113.20436937063934L167.55440625,114.05804419219496L168.106640625,114.77754910737278L168.951234375,113.14600796699526L169.1229375,112.75674511939289L169.55915625,111.68886528611185L170.297015625,112.01670062988998L170.417671875,112.02222620397808L170.603296875,112.28034568279983L170.81676562500002,112.3623457297683L171.11840625000002,113.08678278028967L171.15089062500002,113.01264909356834L171.188015625,113.17076755017044L171.410765625,112.66845462173225L171.45253125,112.75526811629535L171.726328125,112.63740458786489L171.78665625,112.672918599844L172.459546875,111.85405885130169L172.515234375,111.32452686578037L172.668375,111.44370255321266L172.86328125,111.8364337205887L173.164921875,110.97523541450502L173.508328125,110.83955553621055L173.7264375,111.1882403612137L174.028078125,110.81968193203213L174.16265625,110.44839368462564L174.222984375,110.4392679154873L174.54318750000002,110.68926387727262L174.557109375,110.71354211568834L174.75665625000002,110.87576848715545L174.984046875,111.13247690051796L175.24392187499998,110.85269031375648L175.856484375,111.25177786946298L175.893609375,111.22864694595339L175.92609375,111.2082919970155L176.357671875,111.61034015268089L176.41335937500003,111.5271202594042L176.506171875,111.56961706727745L177.035203125,111.90497589558365L177.053765625,111.97818645536901L177.1790625,112.03400266617538L177.18834375,112.04394606202843L177.606,112.12330860346557L177.93084375,112.02066348195078L178.05614062499998,112.04171736985447L178.08862499999998,112.03470819890501L178.2185625,112.0951004818082L178.8496875,112.14208104908468L179.276625,112.20629112124445L179.309109375,112.29857084602119L179.72676562499998,112.50252255499365L179.76853125,112.62159933596851L179.82421875,112.62211364954712L179.912390625,112.56412149667742L179.99128125,112.70406094640495L180.241875,112.63853212147953L180.2975625,112.69885187298061L180.41357812500002,112.72002444863321L180.58528124999998,112.78627858757974L180.8544375,112.58892064243557L181.06790625,112.31536516249182L181.156078125,112.3751706004143L181.18856250000002,112.44703603237869L181.40203125,112.36193691641094L181.64334374999999,112.10090958774092L181.657265625,111.85752717107536L181.81968750000001,112.02565496116878L182.42296875,111.81415339261295L182.66428125000002,111.60533548593523L182.668921875,111.60795321017505L182.76637499999998,111.41970784664156L183.021609375,111.59665809273721L183.42534375,111.77563262432815L183.429984375,111.77204561680557L183.606328125,111.95893266499044L183.76875,111.91694357693197L183.810515625,111.95695453584196L183.9915,112.16015455573799L184.218890625,112.35259355306627L184.474125,112.65837275683882L184.622625,112.87552518099548L185.063484375,112.65137677341701L185.768859375,113.10481013059618L185.99625,166.9179277986288L186.1633125,140.06051228642465L186.45103125,128.19376168102028L186.808359375,120.93040772974493L186.82228125,121.66017254143955L187.17496875,120.1288236424327L187.272421875,121.40368172228338L187.309546875,119.03667216449978L187.369875,119.87902549356224L187.37915625000002,120.18169244080784L187.407,121.12134994268419L187.86178124999998,121.94551767110826L187.8710625,121.70164072215559L188.27479687500002,121.99535333812238L188.28871875000002,121.7522214844823L188.414015625,121.44919847398998L189.2075625,118.88871469795706L189.240046875,118.62582792788746L189.546328125,118.44477636069061L189.56953124999998,118.38263673037292L190.05215625,117.19284479767086L190.13104687499998,117.95797196477653L190.44196874999997,118.68134741932155L190.53478125,117.41235778927805L191.03132812500002,114.47116987109186L191.27264062499998,114.80557260364296L191.34225,114.98462626039984L191.411859375,115.05679500550033L191.48610937499998,115.35254509449007L191.5464375,115.07879180163147L191.708859375,115.7908127948642L191.79703125,115.90696853846313L191.829515625,116.00523540079595L192.91078124999999,114.95616098195316L193.18921874999998,115.32001146376135L193.3284375,115.22297104150059L193.416609375,115.43976740241052L193.82962500000002,114.50156712234022L194.010609375,114.01129440665247L194.029171875,113.98509738296272L194.07093749999999,113.92740854322912L194.09878125,113.64158866256477L194.214796875,113.51084751337768L194.4793125,114.03677930384876L195.15684374999998,114.15366695523264L195.69515625,114.51771524995567L195.84829687500002,114.8080782338977L196.354125,114.82319773435594L196.38196875,114.55149510204794L196.423734375,114.62512106895448L197.022375,114.06542920768263L197.18015625,114.05592759400608L198.36815625,113.50235474556686L198.456328125,113.50900125950577L198.655875,113.3917443573475L198.97607812500002,113.31655566841366L199.97381249999998,113.81559149622919L200.442515625,113.29678756445648L200.69774999999998,113.35112017840149L200.76735937499998,113.49506863653662L201.0875625,113.67122763097288L201.24534375,113.85814764797689L201.58875,114.17141077369453L201.66299999999998,114.11852878779175L201.714046875,114.18423564434053L201.871828125,114.1401563331485L202.243078125,114.17118658572437L202.52615625,113.43335100710394L202.53079687500002,113.4363511696458L202.799953125,113.36968162357809L202.892765625,113.31224994063379L203.09231250000002,113.21340942084791L203.115515625,113.16729263663294L203.449640625,113.52498454302551L204.10396875,113.23495124727489L204.210703125,113.29072789549829L204.21534375000002,113.3097574979067L204.84646875,113.03639323711397L205.29196875,113.38544071912767L205.56576562499998,113.51184317171575L205.6168125,113.53596315979959L206.93474999999998,114.16565441787245L207.125015625,114.14274768233301L207.449859375,114.46058688014747L207.57979687500003,114.56194621771576L207.81646874999998,114.71075427979233L208.266609375,114.90597584545614L208.41046875,114.91144866943361L208.43367187500002,114.93736216127874L208.5125625,114.99282890260221L208.74923437500001,115.21567833870651L208.925578125,115.11559819132091L209.872265625,116.06072851717474L210.206390625,116.24532093554737L210.69365625,118.39414284825327L211.097390625,115.66710059791805L211.15307812499998,115.91604155749084L211.301578125,115.87065668106081L211.431515625,116.96079706102611L211.83525,116.22570448815824L211.88165625,116.71147366315128L211.9095,116.86436985880138L211.9280625,116.86186422854664L212.07192187500002,116.13626008182766L212.081203125,116.28413842320444L212.146171875,116.44829676747324L212.174015625,116.70304683297874L212.51278125,117.1355383962393L213.659015625,116.23705894947054L214.067390625,117.45121483951809L214.188046875,117.64015254825355L214.60570312500002,115.43623314499857L214.731,115.70629393011333L215.05584375,116.31459501832725L215.37140624999998,116.93890576511623L215.44565625,116.94656112492086L215.7519375,117.29270735085012L215.9746875,116.94256530404093L216.04893750000002,117.20362560153009L216.18351562499998,117.05886611044409L216.29953125,116.44439985305073L216.387703125,116.69746850878002L217.055953125,117.42719375789167L217.09307812499998,117.57556003779175L217.390078125,118.01660371273758L217.515375,117.90021718740465L218.141859375,118.1706472232938L218.17434375,117.9545827701688L218.257875,118.21403418928386L218.735859375,118.8900070756674L218.847234375,118.66198812872173L218.89364062500002,118.72793895453216L218.958609375,119.00491659790279L219.246328125,118.31993663012983L219.68718750000002,117.80471311211588L219.99346875,116.88287855386736L220.053796875,116.9987309843302L220.202296875,117.09829022437336L220.285828125,117.23416791558267L220.332234375,117.06062005162241L220.4296875,116.99469560086729L220.935515625,116.63495962768795L221.26035937499998,116.86594576835634L221.715140625,116.95423626601698L222.25809375,116.70883615761997L222.43443749999997,116.63335074931385L222.587578125,116.6070614129305L222.66646874999998,116.63413540720941L222.84745312500002,116.45229258835317L223.970484375,116.74071700572969L224.044734375,116.51864563375713L224.71298437500002,116.65574317127468L224.95429687499998,116.70050823390486L225.158484375,116.6012523069978L225.32090625,116.4305199801922L225.460125,116.4145696654916L225.57150000000001,116.37255420237781L225.682875,116.14936848431827L225.72,115.95031594187023L225.771046875,116.0425099477172L225.77568749999998,116.04972352534534L226.054125,115.51539787352087L226.179421875,115.11672572493555L226.197984375,115.08856375962498L226.26759375,115.20307765603067L226.38825000000003,115.23956754505636L226.439296875,115.02678678631784L226.49034375,115.07736095488073L226.64348437499999,114.98150741010906L227.0379375,114.92803857922556L227.283890625,115.20274137407543L227.302453125,115.25674429982902L227.36278125,115.03071007579567L227.73403125,115.24817240685226L227.75259375,115.26105662137272L227.877890625,115.16782080084087L227.91965625,115.23458925336601L228.32339062499997,115.59460875838997L228.35587500000003,115.53851560950281L228.5600625,115.49199660569431L228.806015625,115.32084227800371L228.96843750000002,115.4178431376815L228.987,115.45425390154125L229.270078125,115.53023384213449L229.72021875,115.12828459292652L229.8965625,115.29286493808033L230.11003125,115.26952301412823L230.114671875,115.24825812578203L230.12859375,115.2718242377043L230.38846875000002,115.26787457317116L230.77828125,115.5094371110201L230.88965625,115.46870743185283L231.117046875,115.50893598496916L231.18201562500002,115.39568149745466L231.868828125,115.4915284484625L232.00804687500002,115.5729086816311L232.28184375,115.6752504900098L232.518515625,113.12402435839178L233.474484375,121.611543533206L233.51625,121.66623880416157L233.6090625,122.39895102828743L233.752921875,121.23850793838503L233.762203125,121.6696741551161L234.3886875,122.69799140542747L234.55575000000002,122.09239376038315L234.75993749999998,121.2387123450637L235.033734375,122.73181741386654L235.08942187500003,122.57307254970075L235.6138125,120.55267078131439L235.785515625,119.81970799416305L235.92937500000002,118.27875198125841L236.091796875,117.78423288166525L236.78789062500002,117.33507887721063L236.82965625,117.6446165263653L236.954953125,118.20018728524448L237.094171875,117.79223111718895L237.251953125,117.70911672413351L237.46078125,118.84116047322752L237.49790625,119.07526546418669L237.62784375,118.57504935264589L238.15223437499998,118.68292992264034L238.226484375,118.89323801994325L238.33321875,119.36230519115927L238.514203125,118.69470638483764L238.59309375,118.5972505554557L238.99218749999997,118.02665260881187L239.033953125,118.26535345315935L239.19173437499998,118.70421459227802L239.72540625,118.63949680030348L239.906390625,118.69431075900795L240.14770312500002,119.4257833555341L241.484203125,119.52319302856924L241.58165625,119.36333381831648L242.235984375,119.18257237672807L242.43553125,119.42859229892494L242.68148437500003,119.45004840642216L242.71396875000002,119.60023456513883L242.80678125,119.57903561443092L242.9274375,119.10116576850416L243.34509375,119.16601543575527L243.58640625,118.82046924233438L243.86484375,118.9462255060673L243.897328125,119.02600345462562L244.03190625,118.75414257198574L244.277859375,119.0137324601412L244.296421875,119.08843980431558L244.35675,118.96988393068315L244.42171875,118.56709727346899L244.53309375,118.30145431011917L244.58878124999998,118.3317526549101L244.73728125,118.48681160509588L244.769765625,118.35459345281126L244.83473437499998,118.48114756196739L245.359125,118.28696781098844L245.410171875,118.37058333009483L245.438015625,118.46966781914236L245.62828125,118.08223144412042L245.64684375,118.01074185669424L245.71181249999998,118.06548987776043L245.818546875,117.56969158798458L246.310453125,117.01943540275099L246.51,116.98885352611543L246.7141875,117.28492670953275L246.79771875,117.4399329096079L246.87196875,117.52664090394975L247.0111875,117.76229542940857L247.33139062499998,117.8219030544162L247.91146874999998,118.09211549609901L248.111015625,118.37690674960615L248.120296875,118.15831029117109L248.292,118.01790268421175L248.296640625,118.0023150265217L248.343046875,117.89420367479326L248.380171875,117.98033141791822L248.4961875,118.06938679218294L248.88135937500002,117.51106643378736L248.9045625,117.54592766314747L248.974171875,117.56010425537826L249.874453125,117.37375789582731L250.51485937500001,117.59820961654188L251.49867187499999,117.0881556093693L251.860640625,117.16085185557606L252.11123437499998,117.1675774946809L252.22725,117.25290079861881L252.81196875,117.41846361458303L253.187859375,117.67058936208488L253.41525000000001,117.52890256494285L253.4709375,117.49174011200668L253.559109375,117.49994275420906L253.83290624999998,117.45732066482307L254.37121875,117.83530817627909L254.73782812500002,117.57986576557161L254.932734375,117.56756180226805L255.266859375,117.78352075517179L255.498890625,117.76625168770553L255.67059375,117.90621091872455L255.74484375,117.9878351211548" style="fill: none;" fill="none"></path></g></g></g></g></g></g><g transform="translate(51, 177)" clip-path="url(#clip_1)"><clipPath id="clip_1"><rect width="278" height="23"></rect></clipPath><g><g><line x1="0" y1="0" x2="0" y2="5" style="visibility: inherit;" fill="rgb(0, 0, 0)" stroke="rgb(204, 204, 204)" stroke-width="1px"></line><line x1="23.203125" y1="0" x2="23.203125" y2="5" style="visibility: inherit;" fill="rgb(0, 0, 0)" stroke="rgb(204, 204, 204)" stroke-width="1px"></line><line x1="46.40625" y1="0" x2="46.40625" y2="5" style="visibility: inherit;" fill="rgb(0, 0, 0)" stroke="rgb(204, 204, 204)" stroke-width="1px"></line><line x1="69.609375" y1="0" x2="69.609375" y2="5" style="visibility: inherit;" fill="rgb(0, 0, 0)" stroke="rgb(204, 204, 204)" stroke-width="1px"></line><line x1="92.8125" y1="0" x2="92.8125" y2="5" style="visibility: inherit;" fill="rgb(0, 0, 0)" stroke="rgb(204, 204, 204)" stroke-width="1px"></line><line x1="116.015625" y1="0" x2="116.015625" y2="5" style="visibility: inherit;" fill="rgb(0, 0, 0)" stroke="rgb(204, 204, 204)" stroke-width="1px"></line><line x1="139.21875" y1="0" x2="139.21875" y2="5" style="visibility: inherit;" fill="rgb(0, 0, 0)" stroke="rgb(204, 204, 204)" stroke-width="1px"></line><line x1="162.421875" y1="0" x2="162.421875" y2="5" style="visibility: inherit;" fill="rgb(0, 0, 0)" stroke="rgb(204, 204, 204)" stroke-width="1px"></line><line x1="185.625" y1="0" x2="185.625" y2="5" style="visibility: inherit;" fill="rgb(0, 0, 0)" stroke="rgb(204, 204, 204)" stroke-width="1px"></line><line x1="208.828125" y1="0" x2="208.828125" y2="5" style="visibility: inherit;" fill="rgb(0, 0, 0)" stroke="rgb(204, 204, 204)" stroke-width="1px"></line><line x1="232.03125" y1="0" x2="232.03125" y2="5" style="visibility: inherit;" fill="rgb(0, 0, 0)" stroke="rgb(204, 204, 204)" stroke-width="1px"></line><line x1="255.234375" y1="0" x2="255.234375" y2="5" style="visibility: inherit;" fill="rgb(0, 0, 0)" stroke="rgb(204, 204, 204)" stroke-width="1px"></line><line x1="278.4375" y1="0" x2="278.4375" y2="5" style="visibility: inherit;" fill="rgb(0, 0, 0)" stroke="rgb(204, 204, 204)" stroke-width="1px"></line></g><g transform="translate(0, 8)"><text x="0" y="0" dx="0em" dy="0.95em" style="text-anchor: middle; visibility: hidden; font-family: Roboto, sans-serif; font-size: 12px; font-weight: 200;" fill="rgb(33, 33, 33)" stroke="none" stroke-width="1px">-5k</text><text x="23.203125" y="0" dx="0em" dy="0.95em" style="text-anchor: middle; visibility: inherit; font-family: Roboto, sans-serif; font-size: 12px; font-weight: 200;" fill="rgb(33, 33, 33)" stroke="none" stroke-width="1px">0</text><text x="46.40625" y="0" dx="0em" dy="0.95em" style="text-anchor: middle; visibility: hidden; font-family: Roboto, sans-serif; font-size: 12px; font-weight: 200;" fill="rgb(33, 33, 33)" stroke="none" stroke-width="1px">5k</text><text x="69.609375" y="0" dx="0em" dy="0.95em" style="text-anchor: middle; visibility: inherit; font-family: Roboto, sans-serif; font-size: 12px; font-weight: 200;" fill="rgb(33, 33, 33)" stroke="none" stroke-width="1px">10k</text><text x="92.8125" y="0" dx="0em" dy="0.95em" style="text-anchor: middle; visibility: hidden; font-family: Roboto, sans-serif; font-size: 12px; font-weight: 200;" fill="rgb(33, 33, 33)" stroke="none" stroke-width="1px">15k</text><text x="116.015625" y="0" dx="0em" dy="0.95em" style="text-anchor: middle; visibility: inherit; font-family: Roboto, sans-serif; font-size: 12px; font-weight: 200;" fill="rgb(33, 33, 33)" stroke="none" stroke-width="1px">20k</text><text x="139.21875" y="0" dx="0em" dy="0.95em" style="text-anchor: middle; visibility: hidden; font-family: Roboto, sans-serif; font-size: 12px; font-weight: 200;" fill="rgb(33, 33, 33)" stroke="none" stroke-width="1px">25k</text><text x="162.421875" y="0" dx="0em" dy="0.95em" style="text-anchor: middle; visibility: inherit; font-family: Roboto, sans-serif; font-size: 12px; font-weight: 200;" fill="rgb(33, 33, 33)" stroke="none" stroke-width="1px">30k</text><text x="185.625" y="0" dx="0em" dy="0.95em" style="text-anchor: middle; visibility: hidden; font-family: Roboto, sans-serif; font-size: 12px; font-weight: 200;" fill="rgb(33, 33, 33)" stroke="none" stroke-width="1px">35k</text><text x="208.828125" y="0" dx="0em" dy="0.95em" style="text-anchor: middle; visibility: inherit; font-family: Roboto, sans-serif; font-size: 12px; font-weight: 200;" fill="rgb(33, 33, 33)" stroke="none" stroke-width="1px">40k</text><text x="232.03125" y="0" dx="0em" dy="0.95em" style="text-anchor: middle; visibility: hidden; font-family: Roboto, sans-serif; font-size: 12px; font-weight: 200;" fill="rgb(33, 33, 33)" stroke="none" stroke-width="1px">45k</text><text x="255.234375" y="0" dx="0em" dy="0.95em" style="text-anchor: middle; visibility: inherit; font-family: Roboto, sans-serif; font-size: 12px; font-weight: 200;" fill="rgb(33, 33, 33)" stroke="none" stroke-width="1px">50k</text><text x="278.4375" y="0" dx="0em" dy="0.95em" style="text-anchor: middle; visibility: hidden; font-family: Roboto, sans-serif; font-size: 12px; font-weight: 200;" fill="rgb(33, 33, 33)" stroke="none" stroke-width="1px">55k</text></g><line x1="0" y1="0" x2="278.4375" y2="0" fill="rgb(0, 0, 0)" stroke="rgb(204, 204, 204)" stroke-width="1px"></line></g></g></g></g></svg>